{"glyphs":{"0":{"ha":772,"x_min":65,"x_max":767,"o":"m 324 -17 q 176 26 233 -17 q 92 140 118 68 q 65 300 65 211 q 81 470 65 378 q 129 653 96 563 q 214 820 163 744 q 338 941 265 896 q 503 986 410 986 q 700 904 633 986 q 767 672 767 822 q 758 547 767 618 q 731 399 750 476 q 678 247 711 321 q 597 114 646 174 q 480 19 547 54 q 324 -17 413 -17 m 336 97 q 433 129 390 97 q 508 215 476 161 q 563 333 540 268 q 600 463 586 397 q 621 586 614 529 q 628 681 628 643 q 589 830 628 788 q 489 872 550 872 q 379 828 426 872 q 299 715 332 785 q 244 566 265 646 q 214 413 224 486 q 204 292 204 340 q 238 150 204 203 q 336 97 271 97 z "},"1":{"ha":772,"x_min":203,"x_max":613,"o":"m 404 0 l 265 0 l 439 810 l 267 690 l 203 793 l 489 969 l 613 969 l 404 0 z "},"2":{"ha":772,"x_min":-3,"x_max":738,"o":"m 606 0 l -3 0 l 28 142 q 297 356 189 263 q 470 521 406 450 q 563 644 535 592 q 590 733 590 696 q 546 839 590 806 q 426 872 501 872 q 310 856 368 872 q 201 811 253 839 l 214 938 q 344 976 288 965 q 463 986 400 986 q 663 926 588 986 q 738 753 738 865 q 604 474 738 629 q 183 117 471 319 l 183 114 l 631 114 l 606 0 z "},"3":{"ha":772,"x_min":8,"x_max":746,"o":"m 499 504 l 499 501 q 615 432 568 483 q 661 299 661 381 q 628 163 661 222 q 539 64 594 104 q 417 3 483 24 q 282 -17 350 -17 q 145 -7 214 -17 q 8 26 76 3 l 42 150 q 151 111 96 125 q 261 97 206 97 q 383 119 324 97 q 483 186 443 140 q 522 303 522 232 q 451 414 522 381 q 249 447 379 447 l 236 447 l 257 561 q 607 746 607 561 q 558 843 607 814 q 442 872 508 872 q 325 859 386 872 q 211 824 264 846 l 225 951 q 333 975 281 964 q 438 986 385 986 q 669 927 592 986 q 746 756 746 868 q 715 641 746 694 q 628 551 683 588 q 499 504 572 515 z "},"4":{"ha":772,"x_min":0,"x_max":753,"o":"m 540 0 l 404 0 l 453 221 l 0 221 l 26 335 l 553 969 l 753 969 l 614 335 l 739 335 l 717 221 l 589 221 l 540 0 m 481 335 l 608 856 l 606 856 l 176 335 l 481 335 z "},"5":{"ha":772,"x_min":50,"x_max":790,"o":"m 50 14 l 74 138 q 169 108 122 119 q 263 97 215 97 q 405 124 340 97 q 508 203 469 150 q 546 333 546 256 q 517 427 546 392 q 440 479 489 463 q 333 496 392 496 q 243 488 288 496 q 154 467 199 481 l 269 969 l 790 969 l 767 856 l 374 856 l 315 603 q 367 608 347 607 q 396 610 386 610 q 606 544 526 610 q 685 346 685 478 q 631 145 685 226 q 483 24 576 64 q 269 -17 389 -17 q 169 -10 218 -17 q 50 14 119 -4 z "},"6":{"ha":772,"x_min":82,"x_max":803,"o":"m 803 949 l 760 838 q 688 864 726 856 q 613 872 650 872 q 244 515 343 872 l 247 513 q 347 585 294 561 q 467 610 399 610 q 594 579 539 610 q 681 493 650 549 q 713 364 713 438 q 671 167 713 253 q 551 32 629 81 q 364 -17 474 -17 q 154 61 226 -17 q 82 285 82 139 q 99 463 82 368 q 152 651 115 558 q 249 819 189 743 q 396 940 308 894 q 601 986 483 986 q 704 977 651 986 q 803 949 757 968 m 360 97 q 477 137 429 97 q 549 234 525 176 q 574 346 574 292 q 528 460 574 424 q 425 496 482 496 q 318 460 364 496 q 247 367 272 424 q 221 247 221 311 q 256 140 221 182 q 360 97 292 97 z "},"7":{"ha":772,"x_min":99,"x_max":817,"o":"m 258 0 l 99 0 l 643 856 l 176 856 l 203 969 l 817 969 l 789 846 l 258 0 z "},"8":{"ha":772,"x_min":44,"x_max":781,"o":"m 554 510 q 664 411 629 463 q 699 292 699 360 q 651 131 699 200 q 527 22 604 61 q 358 -17 450 -17 q 204 9 276 -17 q 88 90 132 35 q 44 231 44 144 q 79 363 44 306 q 173 460 114 421 q 303 514 232 499 q 206 609 240 554 q 172 726 172 664 q 218 875 172 818 q 338 959 264 932 q 494 986 413 986 q 628 963 563 986 q 737 891 693 940 q 781 763 781 842 q 719 613 781 681 q 554 510 658 544 m 450 554 l 486 572 q 597 643 551 604 q 642 751 642 682 q 597 840 642 808 q 496 872 551 872 q 417 859 460 872 q 342 814 374 846 q 311 725 311 782 q 353 631 311 675 q 450 554 394 588 m 397 457 q 242 377 300 431 q 183 253 183 324 q 234 138 183 179 q 357 97 285 97 q 456 121 410 97 q 531 188 503 144 q 560 286 560 231 q 527 375 560 331 q 397 457 494 419 z "},"9":{"ha":772,"x_min":39,"x_max":760,"o":"m 597 454 l 594 457 q 375 360 501 360 q 250 390 306 360 q 162 475 194 419 q 129 607 129 531 q 168 796 129 710 q 285 934 207 882 q 478 986 363 986 q 688 908 615 986 q 760 686 760 831 q 744 510 760 606 q 692 322 728 415 q 595 153 656 229 q 447 30 535 76 q 240 -17 360 -17 q 140 -8 193 -17 q 39 21 88 1 l 82 132 q 231 97 147 97 q 453 183 360 97 q 597 454 546 269 m 415 474 q 525 510 479 474 q 596 603 571 546 q 621 722 621 661 q 588 826 621 781 q 481 872 556 872 q 367 834 415 872 q 294 739 319 796 q 268 624 268 682 q 313 510 268 547 q 415 474 358 474 z "},"\u0000":{"ha":0,"x_min":0,"x_max":0,"o":""},"\r":{"ha":386,"x_min":0,"x_max":0,"o":""}," ":{"ha":386,"x_min":0,"x_max":0,"o":""},"!":{"ha":540,"x_min":124,"x_max":493,"o":"m 321 272 l 194 272 l 329 969 l 493 969 l 321 272 m 279 0 l 124 0 l 156 156 l 311 156 l 279 0 z "},"\"":{"ha":772,"x_min":296,"x_max":626,"o":"m 418 629 l 296 629 l 296 969 l 418 969 l 418 629 m 626 629 l 504 629 l 504 969 l 626 969 l 626 629 z "},"#":{"ha":772,"x_min":61,"x_max":786,"o":"m 543 0 l 438 0 l 478 289 l 314 289 l 274 0 l 168 0 l 208 289 l 61 289 l 76 394 l 224 394 l 249 575 l 100 575 l 115 681 l 264 681 l 304 969 l 410 969 l 369 681 l 533 681 l 574 969 l 679 969 l 639 681 l 786 681 l 771 575 l 624 575 l 599 394 l 746 394 l 731 289 l 583 289 l 543 0 m 490 394 l 515 575 l 351 575 l 326 394 l 490 394 z "},"$":{"ha":772,"x_min":28,"x_max":769,"o":"m 310 -143 l 232 -143 l 258 -17 q 138 1 194 -14 q 28 40 81 15 l 71 167 q 173 123 119 140 q 286 106 226 106 l 363 454 q 201 574 249 511 q 154 713 154 636 q 244 913 154 840 q 479 986 333 985 l 508 1119 l 590 1119 l 560 986 q 669 967 617 982 q 769 929 722 951 l 731 800 q 636 844 686 828 q 533 863 586 861 l 467 563 l 544 517 q 660 418 622 471 q 699 268 699 365 q 649 117 699 181 q 518 19 600 53 q 338 -17 436 -15 l 310 -143 m 394 599 l 453 864 q 340 824 379 861 q 301 728 301 786 q 324 657 301 689 q 394 599 346 625 m 435 417 l 364 106 q 497 151 443 108 q 551 261 551 193 q 522 353 551 322 q 435 417 492 385 z "},"%":{"ha":1389,"x_min":156,"x_max":1210,"o":"m 381 -31 l 283 -31 l 992 1000 l 1089 1000 l 381 -31 m 356 488 q 209 542 263 488 q 156 690 156 597 q 184 831 156 763 q 267 942 213 899 q 403 986 322 986 q 554 928 506 986 q 603 774 603 871 q 577 632 603 697 q 497 527 551 567 q 356 488 442 488 m 360 576 q 438 610 410 576 q 477 691 465 643 q 489 782 489 739 q 474 863 489 828 q 403 897 460 897 q 324 865 353 897 q 282 785 294 832 q 269 690 269 738 q 291 603 269 631 q 360 576 313 576 m 963 -17 q 816 38 869 -17 q 763 186 763 93 q 793 333 763 265 q 879 441 824 400 q 1010 482 935 482 q 1158 428 1106 482 q 1210 269 1210 374 q 1144 61 1210 139 q 963 -17 1079 -17 m 967 72 q 1044 105 1017 72 q 1084 185 1072 138 q 1096 278 1096 233 q 1080 361 1096 329 q 1010 393 1064 393 q 932 363 961 393 q 890 285 903 332 q 876 186 876 238 q 899 98 876 124 q 967 72 922 72 z "},"&":{"ha":1003,"x_min":96,"x_max":950,"o":"m 883 0 l 729 0 l 682 74 q 567 9 635 35 q 426 -17 500 -17 q 183 56 269 -17 q 96 256 96 128 q 169 438 96 361 q 374 546 243 515 q 317 646 336 596 q 299 754 299 696 q 339 878 299 826 q 442 958 379 929 q 569 986 504 986 q 697 964 638 986 q 792 894 756 942 q 829 772 829 847 q 756 603 829 667 q 556 493 682 539 l 710 264 q 778 369 749 307 q 826 525 808 432 l 950 525 q 885 310 929 399 q 778 163 842 222 l 883 0 m 494 583 q 650 657 593 611 q 707 763 707 703 q 669 851 707 821 q 574 881 632 881 q 472 843 514 881 q 429 740 429 806 q 443 671 429 707 q 494 583 457 635 m 618 169 l 433 453 q 235 263 235 401 q 260 169 235 208 q 328 110 286 131 q 419 89 371 89 q 522 110 469 89 q 618 169 575 132 z "},"'":{"ha":386,"x_min":188,"x_max":310,"o":"m 310 629 l 188 629 l 188 969 l 310 969 l 310 629 z "},"(":{"ha":463,"x_min":115,"x_max":606,"o":"m 329 -194 l 214 -194 q 138 110 160 -24 q 115 375 115 244 q 199 703 115 536 q 467 1050 283 869 l 606 1050 q 397 800 476 921 q 282 558 318 679 q 246 301 246 436 q 265 87 246 203 q 329 -194 285 -29 z "},")":{"ha":463,"x_min":-87,"x_max":403,"o":"m 51 -194 l -87 -194 q 122 57 43 -64 q 237 299 201 178 q 272 554 272 421 q 264 692 272 621 q 238 850 256 763 q 189 1050 219 938 l 304 1050 q 378 756 354 893 q 403 482 403 619 q 314 144 403 313 q 51 -194 225 -25 z "},"*":{"ha":772,"x_min":179,"x_max":726,"o":"m 615 460 l 500 408 l 432 617 l 278 458 l 197 549 l 376 676 l 179 771 l 238 881 l 419 750 l 449 969 l 568 942 l 501 736 l 718 774 l 726 653 l 506 653 l 615 460 z "},"+":{"ha":833,"x_min":86,"x_max":789,"o":"m 499 0 l 376 0 l 376 290 l 86 290 l 86 413 l 376 413 l 376 703 l 499 703 l 499 413 l 789 413 l 789 290 l 499 290 l 499 0 z "},",":{"ha":386,"x_min":-78,"x_max":246,"o":"m 53 -185 l -78 -185 l 79 156 l 246 156 l 53 -185 z "},"-":{"ha":463,"x_min":49,"x_max":436,"o":"m 415 321 l 49 321 l 71 426 l 436 426 l 415 321 z "},".":{"ha":386,"x_min":47,"x_max":235,"o":"m 203 0 l 47 0 l 79 156 l 235 156 l 203 0 z "},"/":{"ha":386,"x_min":0,"x_max":456,"o":"m 122 -17 l 0 -17 l 333 986 l 456 986 l 122 -17 z "},":":{"ha":386,"x_min":47,"x_max":349,"o":"m 317 553 l 161 553 l 193 708 l 349 708 l 317 553 m 203 0 l 47 0 l 79 156 l 235 156 l 203 0 z "},";":{"ha":386,"x_min":-78,"x_max":349,"o":"m 317 553 l 161 553 l 193 708 l 349 708 l 317 553 m 53 -185 l -78 -185 l 79 156 l 246 156 l 53 -185 z "},"<":{"ha":833,"x_min":85,"x_max":790,"o":"m 790 -11 l 85 299 l 85 404 l 790 714 l 790 592 l 243 351 l 790 111 l 790 -11 z "},"=":{"ha":833,"x_min":86,"x_max":789,"o":"m 789 436 l 86 436 l 86 558 l 789 558 l 789 436 m 789 144 l 86 144 l 86 267 l 789 267 l 789 144 z "},">":{"ha":833,"x_min":85,"x_max":790,"o":"m 790 299 l 85 -11 l 85 111 l 632 351 l 85 592 l 85 714 l 790 404 l 790 299 z "},"?":{"ha":694,"x_min":204,"x_max":724,"o":"m 400 272 l 269 272 q 298 378 285 338 q 330 449 311 419 q 381 507 349 479 q 464 574 413 535 q 551 663 526 621 q 576 747 576 704 q 538 833 576 801 q 408 864 500 864 q 308 851 357 864 q 211 824 260 839 l 226 953 q 335 977 279 968 q 443 986 390 986 q 645 933 567 986 q 724 760 724 879 q 683 620 724 674 q 575 513 642 567 q 496 444 531 474 q 439 384 461 415 q 407 308 417 353 l 400 272 m 360 0 l 204 0 l 236 156 l 392 156 l 360 0 z "},"@":{"ha":1111,"x_min":104,"x_max":1076,"o":"m 926 204 l 1032 204 q 856 42 965 101 q 618 -17 746 -17 q 418 17 511 -17 q 254 115 325 50 q 144 274 183 181 q 104 485 104 367 q 143 688 104 596 q 252 847 182 781 q 415 950 322 914 q 613 986 507 986 q 790 956 707 986 q 938 871 874 926 q 1040 740 1003 815 q 1076 574 1076 664 q 1040 401 1076 474 q 951 281 1004 329 q 842 210 897 233 q 747 188 786 188 q 692 208 715 188 q 667 265 669 228 l 664 265 q 585 207 625 226 q 513 188 546 188 q 408 218 456 188 q 334 299 361 249 q 307 410 307 350 q 328 537 307 475 q 388 649 349 599 q 483 728 428 699 q 606 758 538 758 q 699 734 660 758 q 764 667 738 710 l 785 739 l 889 739 l 801 407 q 792 369 799 393 q 785 328 785 344 q 788 306 785 319 q 810 293 792 293 q 889 328 850 293 q 953 423 928 364 q 979 553 979 482 q 930 735 979 660 q 797 849 881 810 q 611 889 714 889 q 406 835 494 889 q 267 688 317 781 q 218 482 218 596 q 270 262 218 351 q 415 126 322 172 q 625 81 507 81 q 785 110 703 81 q 926 204 867 140 m 543 301 q 635 338 596 301 q 698 428 675 375 q 721 526 721 481 q 690 611 721 578 q 613 644 660 644 q 518 611 560 644 q 453 528 476 578 q 429 428 429 478 q 460 336 429 371 q 543 301 492 301 z "},"A":{"ha":1003,"x_min":-43,"x_max":938,"o":"m 938 0 l 794 0 l 743 244 l 267 244 l 111 0 l -43 0 l 586 969 l 724 969 l 938 0 m 722 358 l 631 818 l 338 358 l 722 358 z "},"B":{"ha":849,"x_min":64,"x_max":814,"o":"m 371 0 l 64 0 l 274 969 l 531 969 q 814 743 814 969 q 760 588 814 650 q 615 501 706 525 l 615 499 q 733 422 700 468 q 767 300 767 376 q 746 195 767 249 q 678 98 725 142 q 556 27 632 54 q 371 0 481 0 m 322 556 l 447 556 q 558 574 506 556 q 642 629 610 592 q 675 724 675 667 q 628 824 675 793 q 483 856 581 856 l 388 856 l 322 556 m 228 114 l 358 114 q 552 160 485 114 q 619 303 619 207 q 566 410 619 378 q 425 442 513 442 l 299 442 l 228 114 z "},"C":{"ha":849,"x_min":103,"x_max":915,"o":"m 754 139 l 736 10 q 558 -17 653 -17 q 321 33 424 -17 q 160 181 218 82 q 103 426 103 279 q 124 575 103 497 q 188 726 144 653 q 300 858 232 799 q 464 951 368 917 q 685 986 560 986 q 915 942 806 986 l 875 822 q 784 853 832 842 q 688 864 736 864 q 448 803 546 864 q 300 641 350 742 q 250 419 250 540 q 294 242 250 313 q 413 139 338 172 q 581 106 488 106 q 754 139 674 106 z "},"D":{"ha":1003,"x_min":58,"x_max":965,"o":"m 349 0 l 58 0 l 264 969 l 482 969 q 838 865 711 969 q 965 578 965 761 q 891 267 965 396 q 678 69 817 138 q 349 0 540 0 m 225 122 l 372 122 q 607 176 507 122 q 763 329 707 231 q 818 563 818 428 q 736 775 818 703 q 457 847 654 847 l 379 847 l 225 122 z "},"E":{"ha":772,"x_min":58,"x_max":797,"o":"m 606 0 l 58 0 l 271 969 l 797 969 l 769 847 l 386 847 l 324 564 l 683 564 l 660 442 l 296 442 l 225 122 l 632 122 l 606 0 z "},"F":{"ha":694,"x_min":53,"x_max":772,"o":"m 194 0 l 53 0 l 264 969 l 772 969 l 749 847 l 378 847 l 317 564 l 658 564 l 632 442 l 290 442 l 194 0 z "},"G":{"ha":1003,"x_min":103,"x_max":982,"o":"m 696 118 l 760 417 l 557 417 l 585 531 l 922 531 l 810 13 q 682 -10 742 -3 q 560 -17 622 -17 q 223 100 343 -17 q 103 426 103 217 q 124 578 103 500 q 189 728 144 656 q 302 860 233 801 q 467 952 371 918 q 686 986 563 986 q 840 973 767 986 q 982 931 913 960 l 940 811 q 826 849 890 835 q 689 864 761 864 q 495 827 578 864 q 358 727 413 790 q 277 584 304 664 q 250 419 250 504 q 338 189 250 272 q 579 106 426 106 q 642 109 607 106 q 696 118 678 113 z "},"H":{"ha":1003,"x_min":64,"x_max":1008,"o":"m 804 0 l 663 0 l 758 442 l 299 442 l 206 0 l 64 0 l 268 969 l 408 969 l 324 564 l 785 564 l 872 969 l 1008 969 l 804 0 z "},"I":{"ha":386,"x_min":53,"x_max":401,"o":"m 193 0 l 53 0 l 261 969 l 401 969 l 193 0 z "},"J":{"ha":540,"x_min":-39,"x_max":553,"o":"m 265 292 l 415 969 l 553 969 l 390 233 q 331 83 369 138 q 231 6 292 29 q 81 -17 169 -17 q 20 -9 56 -17 q -39 7 -15 -1 l -14 133 q 33 113 8 119 q 92 106 57 106 q 210 158 174 106 q 265 292 247 210 z "},"K":{"ha":926,"x_min":72,"x_max":978,"o":"m 840 0 l 665 0 l 310 464 l 213 0 l 72 0 l 282 969 l 421 969 l 326 544 l 329 540 l 794 969 l 978 969 l 456 492 l 840 0 z "},"L":{"ha":694,"x_min":53,"x_max":622,"o":"m 597 0 l 53 0 l 263 969 l 403 969 l 219 122 l 622 122 l 597 0 z "},"M":{"ha":1311,"x_min":58,"x_max":1321,"o":"m 1114 0 l 975 0 l 1153 831 l 1150 831 l 651 0 l 517 0 l 382 831 l 379 831 l 193 0 l 58 0 l 281 969 l 489 969 l 621 176 l 1093 969 l 1321 969 l 1114 0 z "},"N":{"ha":1003,"x_min":58,"x_max":1024,"o":"m 813 0 l 633 0 l 360 806 l 357 806 l 192 0 l 58 0 l 260 969 l 443 969 l 717 157 l 719 157 l 892 969 l 1024 969 l 813 0 z "},"O":{"ha":1081,"x_min":103,"x_max":1043,"o":"m 510 -17 q 206 88 310 -17 q 103 394 103 193 q 124 557 103 474 q 190 717 146 640 q 299 854 233 793 q 453 951 365 915 q 650 986 540 986 q 939 883 835 986 q 1043 592 1043 779 q 1008 367 1043 475 q 906 172 974 258 q 740 34 839 85 q 510 -17 640 -17 m 515 106 q 673 147 603 106 q 793 258 743 189 q 869 409 843 326 q 896 575 896 492 q 833 790 896 715 q 646 864 769 864 q 484 826 557 864 q 359 721 411 788 q 278 569 307 654 q 250 390 250 483 q 315 185 250 264 q 515 106 381 106 z "},"P":{"ha":772,"x_min":53,"x_max":817,"o":"m 192 0 l 53 0 l 264 969 l 501 969 q 729 906 642 969 q 817 717 817 842 q 770 545 817 619 q 634 429 724 471 q 415 388 544 388 l 276 388 l 192 0 m 304 510 l 379 510 q 669 696 669 510 q 622 810 669 774 q 461 847 574 847 l 378 847 l 304 510 z "},"Q":{"ha":1081,"x_min":103,"x_max":1043,"o":"m 851 -179 l 675 -179 l 546 -14 q 531 -16 542 -15 q 510 -17 519 -17 q 206 88 310 -17 q 103 394 103 193 q 138 600 103 496 q 242 792 172 704 q 414 933 311 879 q 651 986 517 986 q 858 942 769 986 q 994 809 946 897 q 1043 592 1043 721 q 1000 341 1043 460 q 876 135 957 222 q 679 11 794 49 l 851 -179 m 515 106 q 673 147 603 106 q 793 258 743 189 q 869 409 843 326 q 896 575 896 492 q 833 790 896 715 q 644 864 769 864 q 486 826 558 864 q 361 723 414 789 q 279 572 308 657 q 250 390 250 486 q 316 185 250 264 q 515 106 382 106 z "},"R":{"ha":849,"x_min":58,"x_max":818,"o":"m 749 0 l 601 0 l 554 206 q 519 343 535 294 q 482 411 504 392 q 418 431 460 431 l 288 431 l 197 0 l 58 0 l 265 969 l 490 969 q 734 915 650 969 q 818 733 818 861 q 787 613 818 669 q 703 519 756 557 q 582 471 650 482 q 630 418 611 454 q 662 340 649 382 q 683 261 675 299 q 696 204 690 224 q 703 179 697 201 q 716 127 708 157 q 731 68 724 97 q 744 19 739 39 q 749 0 749 0 m 315 553 l 417 553 q 541 569 483 553 q 635 620 599 585 q 671 715 671 656 q 632 816 671 785 q 513 847 593 847 l 378 847 l 315 553 z "},"S":{"ha":694,"x_min":24,"x_max":706,"o":"m 24 39 l 68 167 q 167 122 113 139 q 272 106 222 106 q 390 131 343 106 q 459 195 436 156 q 482 278 482 235 q 460 356 482 325 q 406 411 439 388 q 335 456 372 435 q 243 519 285 486 q 176 597 201 551 q 151 710 151 642 q 199 861 151 800 q 320 954 246 922 q 472 986 394 986 q 590 975 532 986 q 706 940 647 964 l 667 817 q 588 851 631 839 q 492 864 544 864 q 354 828 410 864 q 299 714 299 792 q 333 632 299 667 q 433 557 367 597 q 580 442 531 500 q 629 294 629 383 q 610 188 629 243 q 552 87 592 133 q 449 12 513 40 q 293 -17 385 -17 q 172 -6 236 -17 q 24 39 107 6 z "},"T":{"ha":772,"x_min":128,"x_max":897,"o":"m 388 0 l 247 0 l 429 847 l 128 847 l 154 969 l 897 969 l 871 847 l 569 847 l 388 0 z "},"U":{"ha":1003,"x_min":131,"x_max":1022,"o":"m 772 458 l 883 969 l 1022 969 l 897 400 q 748 86 850 189 q 472 -17 646 -17 q 308 13 374 -17 q 203 89 242 43 q 147 185 164 135 q 131 278 131 236 q 138 356 131 310 q 164 493 144 401 l 267 969 l 406 969 l 281 385 q 269 299 269 333 q 327 157 269 208 q 481 106 385 106 q 624 151 568 106 q 715 276 681 196 q 772 458 750 356 z "},"V":{"ha":926,"x_min":150,"x_max":1056,"o":"m 474 0 l 307 0 l 150 969 l 289 969 l 411 139 l 414 139 l 903 969 l 1056 969 l 474 0 z "},"W":{"ha":1389,"x_min":156,"x_max":1515,"o":"m 1008 0 l 828 0 l 807 839 l 804 839 l 418 0 l 235 0 l 156 969 l 294 969 l 347 140 l 350 140 l 736 969 l 919 969 l 944 139 l 947 139 l 1367 969 l 1515 969 l 1008 0 z "},"X":{"ha":926,"x_min":-50,"x_max":1022,"o":"m 850 0 l 696 0 l 490 419 l 122 0 l -50 0 l 415 518 l 179 969 l 329 969 l 521 599 l 846 969 l 1022 969 l 594 500 l 850 0 z "},"Y":{"ha":926,"x_min":147,"x_max":1051,"o":"m 460 0 l 324 0 l 407 406 l 147 969 l 300 969 l 493 531 l 875 969 l 1051 969 l 543 406 l 460 0 z "},"Z":{"ha":772,"x_min":-18,"x_max":838,"o":"m 654 0 l -18 0 l 4 122 l 643 847 l 167 847 l 192 969 l 838 969 l 815 846 l 176 122 l 678 122 l 654 0 z "},"[":{"ha":463,"x_min":26,"x_max":563,"o":"m 294 -194 l 26 -194 l 296 1050 l 563 1050 l 540 953 l 403 953 l 175 -97 l 314 -97 l 294 -194 z "},"\\":{"ha":386,"x_min":0,"x_max":456,"o":"m 456 -17 l 333 -17 l 0 986 l 122 986 l 456 -17 z "},"]":{"ha":463,"x_min":-53,"x_max":483,"o":"m 214 -194 l -53 -194 l -31 -97 l 107 -97 l 335 953 l 196 953 l 215 1050 l 483 1050 l 214 -194 z "},"^":{"ha":833,"x_min":111,"x_max":778,"o":"m 778 408 l 656 408 l 444 842 l 233 408 l 111 408 l 388 969 l 501 969 l 778 408 z "},"_":{"ha":694,"x_min":0,"x_max":694,"o":"m 694 -174 l 0 -174 l 0 -104 l 694 -104 l 694 -174 z "},"`":{"ha":386,"x_min":144,"x_max":378,"o":"m 378 807 l 285 807 l 144 1007 l 285 1007 l 378 807 z "},"a":{"ha":772,"x_min":36,"x_max":679,"o":"m 593 0 l 472 0 l 496 118 l 493 118 q 398 19 461 56 q 263 -17 335 -17 q 150 5 201 -17 q 67 70 99 26 q 36 179 36 114 q 137 372 36 307 q 454 438 238 438 q 503 436 478 438 q 550 433 528 435 q 555 458 553 449 q 557 481 557 468 q 520 581 557 542 q 394 619 483 619 q 285 604 342 619 q 178 560 228 589 l 201 689 q 299 714 242 703 q 400 725 357 725 q 601 670 524 725 q 679 500 679 615 q 665 381 679 449 q 632 222 651 314 q 593 0 613 129 m 522 340 l 425 340 q 301 325 358 340 q 210 276 244 310 q 175 185 175 242 q 210 114 175 139 q 292 89 244 89 q 400 123 351 89 q 481 214 449 157 q 522 340 513 271 z "},"b":{"ha":849,"x_min":49,"x_max":793,"o":"m 171 0 l 49 0 l 269 1042 l 400 1042 l 313 632 l 315 632 q 408 701 349 676 q 540 725 467 725 q 672 692 615 725 q 761 598 729 658 q 793 454 793 538 q 753 219 793 326 q 635 48 714 113 q 435 -17 556 -17 q 310 3 356 -17 q 239 54 264 24 q 197 118 214 85 l 194 118 l 171 0 m 418 89 q 519 120 475 89 q 594 203 564 151 q 639 317 624 254 q 654 443 654 381 q 609 576 654 533 q 494 619 564 619 q 363 570 419 619 q 274 442 306 521 q 242 276 242 364 q 286 144 242 200 q 418 89 331 89 z "},"c":{"ha":617,"x_min":65,"x_max":635,"o":"m 539 121 l 515 0 q 449 -13 483 -10 q 379 -17 414 -17 q 149 61 232 -17 q 65 281 65 139 q 90 448 65 368 q 165 590 115 528 q 286 689 214 653 q 453 725 358 725 q 551 718 507 725 q 635 697 596 711 l 603 585 q 536 612 568 604 q 475 619 504 619 q 331 575 392 619 q 238 458 271 531 q 204 299 204 385 q 253 145 204 201 q 396 89 301 89 q 468 99 429 89 q 539 121 507 108 z "},"d":{"ha":849,"x_min":65,"x_max":886,"o":"m 671 0 l 549 0 q 560 58 556 32 q 572 108 565 85 l 569 108 q 481 16 539 49 q 328 -17 424 -17 q 190 22 249 -17 q 98 127 131 60 q 65 282 65 194 q 90 446 65 367 q 160 588 114 525 q 275 688 207 651 q 432 725 343 725 q 572 690 511 725 q 660 592 632 656 l 663 592 l 756 1042 l 886 1042 l 715 253 q 689 120 699 176 q 671 0 679 64 m 376 89 q 485 124 440 89 q 559 211 531 158 q 601 321 588 264 q 615 422 615 378 q 597 519 615 475 q 538 592 578 564 q 438 619 499 619 q 337 588 381 619 q 264 506 293 556 q 219 399 235 456 q 204 290 204 342 q 246 147 204 206 q 376 89 288 89 z "},"e":{"ha":772,"x_min":65,"x_max":719,"o":"m 622 132 l 601 13 q 499 -8 551 0 q 392 -17 446 -17 q 65 301 65 -17 q 90 447 65 372 q 163 584 114 521 q 285 686 213 647 q 456 725 358 725 q 649 653 579 725 q 719 454 719 582 q 716 388 719 418 q 707 325 713 357 l 208 325 q 204 281 204 303 q 257 136 204 183 q 422 89 310 89 q 522 101 471 89 q 622 132 574 113 m 222 422 l 585 422 q 589 476 589 454 q 552 578 589 536 q 438 619 515 619 q 308 566 368 619 q 222 422 247 513 z "},"f":{"ha":540,"x_min":83,"x_max":674,"o":"m 253 0 l 122 0 l 253 603 l 83 603 l 103 708 l 275 708 l 297 801 q 345 929 314 871 q 431 1023 376 988 q 574 1058 486 1058 q 674 1043 621 1058 l 647 939 q 617 949 636 944 q 583 953 597 953 q 499 928 531 953 q 449 864 467 904 q 421 774 432 824 l 407 708 l 594 708 l 574 603 l 383 603 l 253 0 z "},"g":{"ha":849,"x_min":32,"x_max":813,"o":"m 539 21 l 553 81 l 550 81 q 462 17 514 35 q 340 0 410 0 q 218 31 279 0 q 116 126 157 63 q 75 285 75 189 q 119 508 75 408 q 242 666 163 607 q 431 725 322 725 q 575 688 513 725 q 664 583 638 651 l 667 583 l 692 708 l 813 708 l 650 -51 q 594 -169 638 -110 q 470 -269 550 -229 q 269 -308 390 -308 q 195 -302 239 -308 q 108 -285 151 -296 q 32 -257 65 -274 l 61 -140 q 288 -203 182 -203 q 401 -181 356 -203 q 474 -124 446 -158 q 517 -50 501 -89 q 539 21 532 -11 m 372 106 q 492 141 436 106 q 581 247 547 176 q 615 425 615 318 q 571 562 615 504 q 438 619 526 619 q 340 588 382 619 q 270 507 299 557 q 228 400 242 457 q 214 290 214 343 q 255 160 214 215 q 372 106 296 106 z "},"h":{"ha":849,"x_min":49,"x_max":772,"o":"m 678 0 l 547 0 l 631 403 q 640 459 638 439 q 642 490 642 479 q 606 583 642 547 q 513 619 571 619 q 409 592 454 619 q 332 524 364 565 q 281 435 300 482 q 253 351 261 389 l 179 0 l 49 0 l 267 1042 l 397 1042 l 310 619 l 313 619 q 408 699 349 672 q 536 725 468 725 q 707 669 642 725 q 772 503 772 614 q 766 431 772 468 q 756 374 760 394 l 678 0 z "},"i":{"ha":386,"x_min":57,"x_max":411,"o":"m 381 867 l 233 867 l 264 1014 l 411 1014 l 381 867 m 188 0 l 57 0 l 207 708 l 338 708 l 188 0 z "},"j":{"ha":386,"x_min":-153,"x_max":411,"o":"m 381 867 l 233 867 l 264 1014 l 411 1014 l 381 867 m -153 -283 l -129 -181 q -71 -194 -101 -194 q 4 -160 -21 -194 q 47 -43 29 -126 l 207 708 l 338 708 l 167 -97 q 93 -255 144 -201 q -53 -308 42 -308 q -108 -299 -75 -308 q -153 -283 -142 -289 z "},"k":{"ha":772,"x_min":49,"x_max":792,"o":"m 679 0 l 513 0 l 256 364 l 179 0 l 49 0 l 269 1042 l 400 1042 l 268 431 l 271 431 l 600 708 l 792 708 l 390 394 l 679 0 z "},"l":{"ha":386,"x_min":57,"x_max":408,"o":"m 188 0 l 57 0 l 278 1042 l 408 1042 l 188 0 z "},"m":{"ha":1235,"x_min":49,"x_max":1163,"o":"m 1060 0 l 929 0 l 1025 456 q 1030 488 1028 474 q 1032 515 1032 503 q 1006 588 1032 556 q 928 619 981 619 q 786 546 847 619 q 697 350 725 472 l 619 0 l 489 0 l 581 435 q 592 515 592 486 q 563 591 592 563 q 488 619 535 619 q 346 547 408 619 q 256 343 283 474 l 179 0 l 49 0 l 175 608 q 185 660 182 636 q 193 708 189 683 l 315 708 l 299 611 l 301 611 q 399 697 340 668 q 525 725 457 725 q 644 694 592 725 q 714 601 697 663 q 826 694 767 663 q 964 725 885 725 q 1108 673 1054 725 q 1163 540 1163 621 q 1158 483 1163 515 q 1149 425 1154 450 l 1060 0 z "},"n":{"ha":849,"x_min":49,"x_max":772,"o":"m 678 0 l 547 0 l 631 404 q 640 460 638 440 q 642 490 642 479 q 606 583 642 547 q 513 619 571 619 q 388 579 442 619 q 301 477 335 539 q 253 350 267 415 l 179 0 l 49 0 l 171 593 q 192 708 189 686 l 314 708 l 292 596 l 294 596 q 396 692 333 658 q 536 725 458 725 q 707 669 642 725 q 772 503 772 614 q 767 434 772 469 q 756 374 761 399 l 678 0 z "},"o":{"ha":849,"x_min":65,"x_max":783,"o":"m 388 -17 q 150 66 235 -17 q 65 299 65 149 q 113 515 65 418 q 250 668 160 611 q 469 725 340 725 q 699 642 614 725 q 783 415 783 558 q 736 194 783 292 q 600 40 689 96 q 388 -17 511 -17 m 386 89 q 489 117 442 89 q 571 192 536 144 q 625 297 606 239 q 644 415 644 356 q 623 517 644 471 q 561 592 601 564 q 463 619 521 619 q 352 590 400 619 q 272 513 304 561 q 222 406 239 464 q 204 289 204 347 q 251 144 204 200 q 386 89 297 89 z "},"p":{"ha":849,"x_min":-22,"x_max":783,"o":"m 108 -292 l -22 -292 l 135 449 q 153 548 144 496 q 169 643 163 600 q 178 708 175 686 l 300 708 l 276 600 l 279 600 q 390 697 319 669 q 531 725 460 725 q 715 650 646 725 q 783 454 783 575 q 742 214 783 321 q 621 45 700 107 q 426 -17 542 -17 q 196 106 246 -17 l 193 106 l 108 -292 m 408 89 q 533 140 481 89 q 615 271 586 190 q 644 443 644 351 q 602 574 644 529 q 485 619 560 619 q 355 571 413 619 q 265 444 297 522 q 232 276 232 367 q 276 144 232 200 q 408 89 321 89 z "},"q":{"ha":849,"x_min":65,"x_max":813,"o":"m 600 -292 l 471 -292 l 547 71 l 544 71 q 452 3 508 22 q 328 -17 396 -17 q 187 22 246 -17 q 97 129 128 61 q 65 282 65 197 q 89 444 65 365 q 159 587 113 524 q 274 688 206 650 q 432 725 343 725 q 574 689 511 725 q 664 583 636 653 l 667 583 l 692 708 l 813 708 l 600 -292 m 376 89 q 482 122 438 89 q 556 206 526 154 q 601 317 586 258 q 615 426 615 375 q 569 563 615 507 q 438 619 524 619 q 338 588 382 619 q 265 506 294 556 q 219 399 235 456 q 204 290 204 342 q 246 147 204 206 q 376 89 288 89 z "},"r":{"ha":540,"x_min":49,"x_max":596,"o":"m 179 0 l 49 0 l 171 594 q 185 669 181 639 q 192 708 190 699 l 314 708 l 292 596 l 294 596 q 397 692 335 660 q 535 725 458 725 q 569 721 553 725 q 596 713 586 717 l 567 597 q 542 606 560 600 q 510 611 525 611 q 407 585 451 611 q 331 517 363 558 q 281 430 300 475 q 253 349 261 385 l 179 0 z "},"s":{"ha":540,"x_min":-6,"x_max":540,"o":"m -6 17 l 19 129 q 99 101 58 114 q 182 89 139 89 q 285 115 239 89 q 331 199 331 140 q 297 271 331 242 q 211 335 263 300 q 119 419 149 376 q 89 517 89 461 q 131 638 89 592 q 234 704 172 683 q 356 725 296 725 q 448 715 401 725 q 540 686 494 706 l 501 583 q 429 610 467 600 q 360 619 392 619 q 267 601 307 619 q 228 533 228 582 q 260 464 228 490 q 336 408 293 438 q 399 362 368 388 q 449 300 429 336 q 469 210 469 264 q 444 103 469 147 q 378 33 419 60 q 291 -5 338 7 q 200 -17 244 -17 q 97 -10 143 -17 q -6 17 51 -4 z "},"t":{"ha":540,"x_min":83,"x_max":586,"o":"m 469 107 l 450 -1 q 389 -13 428 -10 q 322 -17 350 -17 q 224 7 261 -17 q 169 67 186 31 q 153 140 153 103 q 158 203 153 164 q 178 307 164 243 l 239 603 l 83 603 l 103 708 l 261 708 l 296 872 l 436 921 l 392 708 l 586 708 l 565 603 l 369 603 l 315 350 q 289 216 294 256 q 283 165 283 176 q 306 108 283 128 q 378 89 328 89 q 425 94 399 89 q 469 107 451 99 z "},"u":{"ha":849,"x_min":88,"x_max":811,"o":"m 668 0 l 546 0 l 568 113 l 565 113 q 324 -17 483 -17 q 153 39 219 -17 q 88 206 88 94 q 90 254 88 228 q 106 342 93 281 l 182 708 l 313 708 l 226 292 q 221 256 224 275 q 218 218 218 236 q 253 125 218 161 q 347 89 289 89 q 453 117 408 89 q 530 187 499 144 q 580 274 561 229 q 606 351 599 318 l 681 708 l 811 708 l 689 115 q 683 82 688 104 q 674 37 678 60 q 668 0 669 14 z "},"v":{"ha":694,"x_min":96,"x_max":764,"o":"m 360 0 l 207 0 l 96 708 l 235 708 l 307 136 l 310 136 l 625 708 l 764 708 l 360 0 z "},"w":{"ha":1157,"x_min":96,"x_max":1229,"o":"m 842 0 l 692 0 l 636 569 l 633 569 l 328 0 l 174 0 l 96 708 l 226 708 l 275 139 l 278 139 l 581 708 l 739 708 l 788 139 l 790 139 l 1085 708 l 1229 708 l 842 0 z "},"x":{"ha":694,"x_min":-58,"x_max":739,"o":"m 610 0 l 463 0 l 340 278 l 104 0 l -58 0 l 269 374 l 119 708 l 263 708 l 368 453 l 581 708 l 739 708 l 438 368 l 610 0 z "},"y":{"ha":694,"x_min":-53,"x_max":769,"o":"m 214 -39 l 100 708 l 236 708 l 318 143 l 321 143 l 629 708 l 769 708 l 288 -131 q 225 -226 256 -186 q 153 -287 194 -267 q 46 -308 111 -308 q -3 -306 22 -308 q -53 -299 -28 -304 l -31 -190 q 26 -203 -8 -203 q 133 -158 89 -203 q 214 -39 178 -112 z "},"z":{"ha":694,"x_min":-8,"x_max":707,"o":"m 568 0 l -8 0 l 14 114 l 518 603 l 125 603 l 146 708 l 707 708 l 681 594 l 172 106 l 592 106 l 568 0 z "},"{":{"ha":463,"x_min":51,"x_max":583,"o":"m 313 -194 l 208 -194 q 117 -156 153 -194 q 81 -58 81 -118 q 85 -19 81 -37 l 138 224 q 142 249 140 233 q 144 275 144 264 q 114 356 144 333 q 51 379 83 379 l 72 476 q 168 522 125 483 q 224 618 211 561 l 279 875 q 351 1008 299 967 q 475 1050 403 1050 l 583 1050 l 563 953 l 493 953 q 430 928 450 953 q 399 851 410 903 l 344 599 q 302 504 332 540 q 238 451 272 468 q 179 429 204 433 l 179 426 q 249 386 224 417 q 275 303 275 356 q 273 274 275 289 q 268 249 271 260 l 215 -3 q 211 -42 211 -24 q 220 -80 211 -62 q 261 -97 229 -97 l 332 -97 l 313 -194 z "},"|":{"ha":308,"x_min":128,"x_max":250,"o":"m 250 -347 l 128 -347 l 128 1042 l 250 1042 l 250 -347 z "},"}":{"ha":463,"x_min":-119,"x_max":413,"o":"m -11 -194 l -119 -194 l -99 -97 l -29 -97 q 34 -72 14 -97 q 65 4 54 -47 l 119 257 q 163 352 133 317 q 226 406 192 388 q 285 426 260 424 l 285 429 q 215 470 242 439 q 189 553 189 501 q 192 582 189 568 q 196 607 194 596 l 249 858 q 253 897 253 879 q 244 935 253 918 q 203 953 235 953 l 132 953 l 151 1050 l 256 1050 q 348 1012 313 1050 q 383 914 383 974 q 379 875 383 894 l 326 632 q 322 607 325 622 q 319 581 319 592 q 351 499 319 522 q 413 476 382 476 l 392 379 q 297 334 340 374 q 240 238 253 294 l 185 -19 q 113 -153 165 -111 q -11 -194 61 -194 z "},"~":{"ha":833,"x_min":117,"x_max":758,"o":"m 708 463 l 758 365 q 676 274 715 303 q 585 246 636 246 q 507 260 542 246 q 440 294 472 275 q 369 327 407 313 q 285 342 332 342 q 222 319 250 342 q 167 240 193 297 l 117 338 q 290 456 179 456 q 378 439 329 456 q 486 393 426 422 q 542 369 518 379 q 586 360 567 360 q 646 383 618 360 q 708 463 674 407 z "}," ":{"ha":386,"x_min":0,"x_max":0,"o":""},"¡":{"ha":540,"x_min":47,"x_max":417,"o":"m 385 553 l 229 553 l 261 708 l 417 708 l 385 553 m 211 -261 l 47 -261 l 219 436 l 346 436 l 211 -261 z "},"¢":{"ha":772,"x_min":114,"x_max":683,"o":"m 306 -185 l 228 -185 l 289 7 q 160 106 207 38 q 114 281 114 174 q 160 502 114 401 q 292 664 206 603 q 501 725 379 725 l 515 725 l 565 881 l 643 881 l 592 718 q 683 697 639 713 l 651 585 q 560 613 610 608 l 394 94 q 418 90 406 92 q 443 89 431 89 q 517 99 478 89 q 588 121 556 108 l 564 0 q 497 -13 532 -10 q 429 -17 463 -17 q 361 -11 390 -17 l 306 -185 m 325 124 l 481 613 q 360 556 411 601 q 281 444 308 511 q 253 299 253 378 q 271 195 253 240 q 325 124 289 150 z "},"£":{"ha":772,"x_min":13,"x_max":829,"o":"m 629 0 l 13 0 l 36 122 l 168 122 l 246 483 l 128 483 l 144 564 l 263 564 l 282 647 q 349 831 307 756 q 459 947 390 907 q 633 986 528 986 q 734 977 682 986 q 829 946 786 968 l 796 831 q 727 854 763 844 q 656 864 692 864 q 535 836 582 864 q 462 757 489 808 q 418 635 435 706 l 401 564 l 626 564 l 613 483 l 385 483 l 307 122 l 653 122 l 629 0 z "},"¤":{"ha":772,"x_min":61,"x_max":767,"o":"m 697 132 l 622 211 q 528 158 582 176 q 414 140 474 140 q 302 158 356 140 q 208 211 249 175 l 132 132 l 61 203 l 139 282 q 69 485 69 364 q 86 597 69 542 q 139 690 103 651 l 61 765 l 132 838 l 208 761 q 305 812 249 794 q 414 829 361 829 q 622 761 535 829 l 697 838 l 767 765 l 692 690 q 742 598 725 653 q 758 485 758 543 q 742 375 758 428 q 692 282 725 322 l 767 203 l 697 132 m 414 254 q 528 287 478 254 q 607 372 578 319 q 636 485 636 425 q 609 594 636 542 q 532 681 582 647 q 413 715 482 715 q 300 683 350 715 q 221 599 250 651 q 192 485 192 547 q 221 371 192 424 q 301 286 250 318 q 414 254 351 254 z "},"¥":{"ha":772,"x_min":103,"x_max":874,"o":"m 629 225 l 425 225 l 381 0 l 251 0 l 296 225 l 103 225 l 118 306 l 311 306 l 331 406 l 322 428 l 143 428 l 158 508 l 293 508 l 126 969 l 271 969 l 413 529 l 735 969 l 874 969 l 536 508 l 685 508 l 669 428 l 476 428 l 460 406 l 440 306 l 644 306 l 629 225 z "},"¦":{"ha":308,"x_min":128,"x_max":250,"o":"m 250 451 l 128 451 l 128 938 l 250 938 l 250 451 m 250 -243 l 128 -243 l 128 243 l 250 243 l 250 -243 z "},"§":{"ha":772,"x_min":21,"x_max":736,"o":"m 21 -125 l 58 -10 q 165 -44 114 -31 q 271 -58 215 -58 q 425 -26 369 -58 q 481 67 481 6 q 440 138 481 113 q 339 190 400 164 q 242 235 292 211 q 158 297 192 258 q 125 396 125 335 q 163 509 125 458 q 285 613 201 560 q 223 676 246 640 q 200 761 200 713 q 230 866 200 814 q 327 952 260 918 q 508 986 394 986 q 625 976 567 986 q 736 942 683 965 l 699 828 q 606 862 651 851 q 508 872 560 872 q 428 863 469 872 q 358 833 386 854 q 331 772 331 811 q 373 698 331 728 q 496 632 415 668 q 619 563 576 597 q 677 494 661 529 q 693 418 693 458 q 656 311 693 360 q 535 217 619 263 q 593 156 575 190 q 611 75 611 122 q 576 -44 611 13 q 469 -137 542 -101 q 279 -172 396 -172 q 149 -162 215 -172 q 21 -125 83 -153 m 383 303 l 461 267 q 543 331 515 301 q 571 397 571 360 q 534 469 571 442 q 442 522 497 496 l 360 563 l 328 538 q 274 487 300 515 q 247 419 247 458 q 269 374 247 396 q 322 335 290 353 q 383 303 353 317 z "},"¨":{"ha":386,"x_min":117,"x_max":497,"o":"m 239 817 l 117 817 l 146 956 l 268 956 l 239 817 m 468 817 l 346 817 l 375 956 l 497 956 l 468 817 z "},"©":{"ha":1111,"x_min":82,"x_max":1085,"o":"m 583 -17 q 390 22 481 -17 q 229 130 299 61 q 121 290 160 199 q 82 485 82 381 q 120 678 82 588 q 227 838 158 768 q 387 947 296 907 q 583 986 478 986 q 777 947 686 986 q 938 840 868 908 q 1046 680 1007 771 q 1085 485 1085 589 q 1045 288 1085 379 q 936 128 1006 197 q 776 22 867 60 q 583 -17 686 -17 m 583 81 q 774 133 689 81 q 911 277 860 186 q 963 485 963 368 q 913 689 963 597 q 778 835 864 781 q 582 889 693 889 q 391 836 476 889 q 255 692 306 783 q 204 485 204 600 q 256 276 204 368 q 393 133 307 185 q 583 81 479 81 m 735 396 l 836 396 q 755 238 821 297 q 596 179 689 179 q 447 218 511 179 q 347 326 383 257 q 311 485 311 396 q 344 638 311 569 q 439 747 376 707 q 592 788 501 788 q 756 731 689 788 q 836 579 824 675 l 735 579 q 685 661 725 632 q 593 690 646 690 q 463 633 508 690 q 417 488 417 576 q 465 336 417 396 q 596 276 513 276 q 686 305 646 276 q 735 396 726 333 z "},"ª":{"ha":501,"x_min":89,"x_max":572,"o":"m 517 550 l 406 550 l 421 619 l 418 619 q 357 560 397 581 q 267 539 317 539 q 181 551 222 539 q 115 589 140 563 q 89 660 89 615 q 118 747 89 714 q 191 797 147 781 q 282 818 235 813 q 365 824 329 824 l 446 824 q 450 851 450 843 q 354 897 450 897 q 281 888 328 897 q 189 863 235 879 l 204 965 q 293 980 249 974 q 381 986 338 986 q 470 974 426 986 q 543 932 514 961 q 572 851 572 903 q 554 728 572 800 q 517 550 536 657 m 438 743 l 375 743 q 301 737 339 743 q 237 715 263 731 q 211 671 211 700 q 225 643 211 653 q 257 631 239 633 q 288 628 275 628 q 384 658 340 628 q 438 743 428 688 z "},"«":{"ha":772,"x_min":61,"x_max":736,"o":"m 401 93 l 267 93 l 61 374 l 315 654 l 460 654 l 199 374 l 401 93 m 678 93 l 543 93 l 338 374 l 592 654 l 736 654 l 475 374 l 678 93 z "},"¬":{"ha":833,"x_min":86,"x_max":789,"o":"m 789 149 l 667 149 l 667 436 l 86 436 l 86 558 l 789 558 l 789 149 z "},"­":{"ha":463,"x_min":49,"x_max":436,"o":"m 415 321 l 49 321 l 71 426 l 436 426 l 415 321 z "},"®":{"ha":1111,"x_min":82,"x_max":1085,"o":"m 815 203 l 707 203 l 560 447 l 496 447 l 496 203 l 390 203 l 390 771 l 603 771 q 758 731 706 771 q 811 604 811 692 q 772 494 811 531 q 663 451 732 458 l 815 203 m 496 528 l 597 528 q 680 548 654 528 q 706 613 706 568 q 593 690 706 690 l 496 690 l 496 528 m 583 -17 q 390 22 481 -17 q 229 130 299 61 q 121 290 160 199 q 82 485 82 381 q 120 678 82 588 q 227 838 158 768 q 387 947 296 907 q 583 986 478 986 q 777 947 686 986 q 938 840 868 908 q 1046 680 1007 771 q 1085 485 1085 589 q 1045 288 1085 379 q 936 128 1006 197 q 776 22 867 60 q 583 -17 686 -17 m 583 81 q 774 133 689 81 q 911 277 860 186 q 963 485 963 368 q 913 689 963 597 q 778 835 864 781 q 582 889 693 889 q 391 836 476 889 q 255 692 306 783 q 204 485 204 600 q 256 276 204 368 q 393 133 307 185 q 583 81 479 81 z "},"¯":{"ha":386,"x_min":113,"x_max":503,"o":"m 488 854 l 113 854 l 129 935 l 503 935 l 488 854 z "},"°":{"ha":556,"x_min":149,"x_max":546,"o":"m 347 589 q 248 616 293 589 q 176 688 203 643 q 149 788 149 733 q 175 887 149 842 q 247 959 201 932 q 347 986 292 986 q 447 960 401 986 q 519 888 492 933 q 546 788 546 843 q 519 688 546 733 q 447 616 492 643 q 347 589 403 589 m 457 788 q 425 865 457 833 q 347 897 393 897 q 269 865 301 897 q 238 788 238 833 q 269 710 238 742 q 347 678 301 678 q 425 710 393 678 q 457 788 457 742 z "},"±":{"ha":833,"x_min":86,"x_max":789,"o":"m 789 376 l 499 376 l 499 172 l 376 172 l 376 376 l 86 376 l 86 499 l 376 499 l 376 703 l 499 703 l 499 499 l 789 499 l 789 376 m 789 0 l 86 0 l 86 122 l 789 122 l 789 0 z "},"²":{"ha":501,"x_min":96,"x_max":593,"o":"m 499 594 l 96 594 l 115 681 l 189 738 q 334 855 271 800 q 434 955 397 910 q 471 1032 471 1000 q 453 1074 471 1063 q 415 1089 436 1086 q 382 1092 394 1092 q 305 1083 344 1092 q 236 1064 265 1074 l 244 1160 q 324 1182 286 1175 q 404 1189 363 1189 q 540 1153 486 1189 q 593 1047 593 1118 q 554 937 593 992 q 458 833 515 882 q 346 744 400 785 q 317 723 336 738 q 283 696 299 708 l 283 692 l 518 692 l 499 594 z "},"³":{"ha":501,"x_min":111,"x_max":603,"o":"m 429 899 l 429 896 q 513 853 478 885 q 547 776 547 821 q 523 693 547 729 q 460 633 499 657 q 376 598 421 610 q 289 586 331 586 q 203 592 246 586 q 111 613 160 597 l 133 717 q 202 690 165 696 q 276 683 239 683 q 385 708 346 683 q 425 779 425 732 q 397 828 425 813 q 331 847 369 843 q 260 850 292 850 l 272 947 q 367 953 319 947 q 448 977 415 958 q 481 1036 481 996 q 453 1078 481 1064 q 392 1092 426 1092 q 243 1063 321 1092 l 251 1168 q 320 1182 286 1175 q 390 1189 354 1189 q 542 1158 481 1189 q 603 1050 603 1126 q 578 978 603 1010 q 513 926 553 946 q 429 899 474 906 z "},"´":{"ha":386,"x_min":228,"x_max":514,"o":"m 326 807 l 228 807 l 358 1007 l 514 1007 l 326 807 z "},"µ":{"ha":849,"x_min":-10,"x_max":825,"o":"m 682 0 l 560 0 l 582 113 l 579 113 q 478 17 540 51 q 331 -17 417 -17 q 240 -9 274 -17 q 183 15 207 -1 l 121 -292 l -10 -292 l 196 708 l 326 708 l 240 292 q 234 253 236 272 q 232 218 232 233 q 267 125 232 161 q 361 89 303 89 q 469 118 424 89 q 546 190 515 147 q 594 275 576 232 q 618 346 613 318 l 694 708 l 825 708 l 697 88 q 689 42 693 68 q 682 0 685 17 z "},"¶":{"ha":833,"x_min":115,"x_max":879,"o":"m 644 -156 l 521 -156 l 735 872 l 575 872 l 361 -156 l 240 -156 l 369 463 q 183 515 251 463 q 115 660 115 568 q 170 837 115 768 q 314 938 225 906 q 503 969 403 969 l 879 969 l 644 -156 z "},"·":{"ha":386,"x_min":133,"x_max":297,"o":"m 215 339 q 157 363 181 339 q 133 421 133 386 q 157 479 133 456 q 215 503 181 503 q 273 480 249 503 q 297 421 297 457 q 274 363 297 386 q 215 339 250 339 z "},"¸":{"ha":386,"x_min":51,"x_max":354,"o":"m 51 -278 l 74 -228 q 117 -243 92 -233 q 165 -253 142 -253 q 231 -235 214 -253 q 249 -190 249 -217 q 230 -151 249 -165 q 185 -137 211 -137 q 126 -151 158 -137 l 103 -118 l 203 0 l 261 0 l 186 -85 l 189 -87 q 206 -83 196 -85 q 228 -82 217 -82 q 285 -92 256 -82 q 334 -124 314 -101 q 354 -187 354 -147 q 328 -255 354 -228 q 263 -295 301 -282 q 185 -308 224 -308 q 51 -278 114 -308 z "},"¹":{"ha":501,"x_min":215,"x_max":514,"o":"m 382 594 l 264 594 l 367 1075 l 264 1013 l 215 1075 l 401 1181 l 514 1181 l 382 594 z "},"º":{"ha":551,"x_min":119,"x_max":603,"o":"m 603 799 q 572 666 603 725 q 481 573 540 607 q 336 539 422 539 q 176 588 233 539 q 119 729 119 636 q 149 856 119 797 q 238 950 178 914 q 390 986 299 986 q 547 936 490 986 q 603 799 603 886 m 342 628 q 440 669 399 628 q 481 781 481 711 q 458 862 481 826 q 381 897 436 897 q 278 850 314 897 q 242 731 242 803 q 253 685 242 708 q 286 644 264 661 q 342 628 308 628 z "},"»":{"ha":772,"x_min":61,"x_max":736,"o":"m 206 93 l 61 93 l 322 374 l 119 654 l 254 654 l 460 374 l 206 93 m 482 93 l 338 93 l 599 374 l 396 654 l 531 654 l 736 374 l 482 93 z "},"¼":{"ha":1158,"x_min":126,"x_max":1107,"o":"m 293 390 l 175 390 l 278 871 l 175 808 l 126 871 l 313 976 l 425 976 l 293 390 m 979 0 l 863 0 l 888 115 l 597 115 l 611 214 l 949 586 l 1103 586 l 1022 213 l 1107 213 l 1086 115 l 1004 115 l 979 0 m 906 213 l 963 465 l 960 465 l 732 213 l 906 213 m 307 -31 l 210 -31 l 814 1000 l 911 1000 l 307 -31 z "},"½":{"ha":1158,"x_min":113,"x_max":1122,"o":"m 279 390 l 161 390 l 264 871 l 161 808 l 113 871 l 299 976 l 411 976 l 279 390 m 1028 0 l 625 0 l 644 86 l 718 143 q 863 260 800 206 q 963 360 926 315 q 1000 438 1000 406 q 983 480 1000 468 q 944 494 965 492 q 911 497 924 497 q 834 488 874 497 q 765 469 794 479 l 774 565 q 853 588 815 581 q 933 594 892 594 q 1069 559 1015 594 q 1122 453 1122 524 q 1083 342 1122 397 q 986 239 1043 288 q 875 150 929 190 q 847 128 865 143 q 813 101 828 114 l 813 97 l 1047 97 l 1028 0 m 321 -31 l 224 -31 l 828 1000 l 925 1000 l 321 -31 z "},"¾":{"ha":1158,"x_min":42,"x_max":1111,"o":"m 983 0 l 867 0 l 892 115 l 601 115 l 615 214 l 953 586 l 1107 586 l 1026 213 l 1111 213 l 1090 115 l 1008 115 l 983 0 m 910 213 l 967 465 l 964 465 l 736 213 l 910 213 m 360 694 l 360 692 q 443 649 408 681 q 478 572 478 617 q 453 489 478 525 q 390 429 429 453 q 306 394 351 406 q 219 382 261 382 q 133 388 176 382 q 42 408 90 393 l 64 513 q 133 485 96 492 q 207 479 169 479 q 316 503 276 479 q 356 575 356 528 q 328 624 356 608 q 261 642 300 639 q 190 646 222 646 l 203 743 q 298 749 250 743 q 378 773 346 754 q 411 832 411 792 q 384 874 411 860 q 322 888 357 888 q 174 858 251 888 l 182 964 q 251 978 217 971 q 321 985 285 985 q 472 953 411 985 q 533 846 533 922 q 508 774 533 806 q 444 722 483 742 q 360 694 404 701 m 363 -31 l 265 -31 l 869 1000 l 967 1000 l 363 -31 z "},"¿":{"ha":694,"x_min":-29,"x_max":490,"o":"m 458 553 l 303 553 l 335 708 l 490 708 l 458 553 m 483 -115 l 468 -244 q 360 -268 415 -258 q 251 -278 306 -278 q 43 -219 115 -278 q -29 -51 -29 -161 q 9 84 -29 31 q 111 189 47 138 q 205 269 171 238 q 256 326 239 301 q 281 376 274 350 q 294 436 289 401 l 425 436 l 418 408 q 397 333 407 365 q 373 273 388 300 q 331 218 358 246 q 258 156 304 190 q 192 103 224 131 q 139 41 160 75 q 118 -39 118 7 q 159 -126 118 -97 q 286 -156 200 -156 q 387 -143 338 -156 q 483 -115 436 -131 z "},"À":{"ha":1003,"x_min":-43,"x_max":938,"o":"m 938 0 l 794 0 l 743 244 l 267 244 l 111 0 l -43 0 l 586 969 l 724 969 l 938 0 m 722 358 l 631 818 l 338 358 l 722 358 m 714 1028 l 621 1028 l 481 1228 l 621 1228 l 714 1028 z "},"Á":{"ha":1003,"x_min":-43,"x_max":938,"o":"m 938 0 l 794 0 l 743 244 l 267 244 l 111 0 l -43 0 l 586 969 l 724 969 l 938 0 m 722 358 l 631 818 l 338 358 l 722 358 m 706 1028 l 607 1028 l 738 1228 l 893 1228 l 706 1028 z "},"Â":{"ha":1003,"x_min":-43,"x_max":938,"o":"m 938 0 l 794 0 l 743 244 l 267 244 l 111 0 l -43 0 l 586 969 l 724 969 l 938 0 m 722 358 l 631 818 l 338 358 l 722 358 m 868 1028 l 765 1028 l 694 1164 l 574 1028 l 460 1028 l 644 1228 l 764 1228 l 868 1028 z "},"Ã":{"ha":1003,"x_min":-43,"x_max":938,"o":"m 938 0 l 794 0 l 743 244 l 267 244 l 111 0 l -43 0 l 586 969 l 724 969 l 938 0 m 722 358 l 631 818 l 338 358 l 722 358 m 864 1203 l 928 1203 q 885 1088 918 1129 q 797 1047 851 1047 q 722 1063 760 1047 q 649 1095 685 1079 q 578 1111 613 1111 q 542 1097 558 1111 q 519 1047 525 1083 l 456 1047 q 499 1162 465 1121 q 586 1203 532 1203 q 661 1187 624 1203 q 735 1155 699 1171 q 807 1139 772 1139 q 844 1155 829 1139 q 864 1203 860 1171 z "},"Ä":{"ha":1003,"x_min":-43,"x_max":938,"o":"m 938 0 l 794 0 l 743 244 l 267 244 l 111 0 l -43 0 l 586 969 l 724 969 l 938 0 m 722 358 l 631 818 l 338 358 l 722 358 m 628 1058 l 506 1058 l 535 1197 l 657 1197 l 628 1058 m 857 1058 l 735 1058 l 764 1197 l 886 1197 l 857 1058 z "},"Å":{"ha":1003,"x_min":-43,"x_max":938,"o":"m 938 0 l 794 0 l 743 244 l 267 244 l 111 0 l -43 0 l 586 969 l 724 969 l 938 0 m 722 358 l 631 818 l 338 358 l 722 358 m 665 1013 q 566 1054 606 1013 q 526 1154 526 1096 q 567 1256 526 1215 q 665 1296 608 1296 q 765 1255 724 1296 q 806 1154 806 1214 q 765 1054 806 1096 q 665 1013 724 1013 m 665 1068 q 724 1094 699 1068 q 750 1154 750 1121 q 725 1213 750 1186 q 664 1240 700 1240 q 608 1216 633 1240 q 582 1154 582 1192 q 606 1094 582 1119 q 665 1068 631 1068 z "},"Æ":{"ha":1311,"x_min":-50,"x_max":1336,"o":"m 1154 0 l 644 0 l 692 244 l 317 244 l 121 0 l -50 0 l 729 969 l 1336 969 l 1315 847 l 949 847 l 894 564 l 1229 564 l 1206 442 l 871 442 l 810 122 l 1176 122 l 1154 0 m 714 358 l 811 856 l 808 856 l 408 358 l 714 358 z "},"Ç":{"ha":849,"x_min":103,"x_max":915,"o":"m 754 139 l 736 10 q 649 -10 694 -4 q 558 -17 604 -17 q 482 -11 514 -17 l 418 -85 l 421 -87 q 438 -83 428 -85 q 460 -82 449 -82 q 517 -92 488 -82 q 566 -124 546 -101 q 586 -187 586 -147 q 560 -255 586 -228 q 496 -295 535 -282 q 417 -308 457 -308 q 283 -278 346 -308 l 306 -228 q 353 -245 331 -237 q 397 -253 375 -253 q 463 -235 446 -253 q 481 -190 481 -217 q 462 -151 481 -165 q 417 -137 443 -137 q 358 -151 390 -137 l 335 -118 l 432 -3 q 186 140 269 29 q 103 426 103 251 q 124 580 103 501 q 190 731 146 658 q 303 860 235 803 q 467 952 372 918 q 685 986 563 986 q 915 942 806 986 l 875 822 q 784 853 832 842 q 688 864 736 864 q 498 828 579 864 q 361 730 417 792 q 278 588 306 668 q 250 419 250 508 q 339 188 250 271 q 581 106 428 106 q 754 139 674 106 z "},"È":{"ha":772,"x_min":58,"x_max":797,"o":"m 606 0 l 58 0 l 271 969 l 797 969 l 769 847 l 386 847 l 324 564 l 683 564 l 660 442 l 296 442 l 225 122 l 632 122 l 606 0 m 613 1028 l 519 1028 l 379 1228 l 519 1228 l 613 1028 z "},"É":{"ha":772,"x_min":58,"x_max":797,"o":"m 606 0 l 58 0 l 271 969 l 797 969 l 769 847 l 386 847 l 324 564 l 683 564 l 660 442 l 296 442 l 225 122 l 632 122 l 606 0 m 556 1028 l 457 1028 l 588 1228 l 743 1228 l 556 1028 z "},"Ê":{"ha":772,"x_min":58,"x_max":797,"o":"m 606 0 l 58 0 l 271 969 l 797 969 l 769 847 l 386 847 l 324 564 l 683 564 l 660 442 l 296 442 l 225 122 l 632 122 l 606 0 m 711 1028 l 608 1028 l 538 1164 l 417 1028 l 303 1028 l 488 1228 l 607 1228 l 711 1028 z "},"Ë":{"ha":772,"x_min":58,"x_max":797,"o":"m 606 0 l 58 0 l 271 969 l 797 969 l 769 847 l 386 847 l 324 564 l 683 564 l 660 442 l 296 442 l 225 122 l 632 122 l 606 0 m 476 1058 l 354 1058 l 383 1197 l 506 1197 l 476 1058 m 706 1058 l 583 1058 l 613 1197 l 735 1197 l 706 1058 z "},"Ì":{"ha":386,"x_min":53,"x_max":419,"o":"m 193 0 l 53 0 l 261 969 l 401 969 l 193 0 m 419 1028 l 326 1028 l 186 1228 l 326 1228 l 419 1028 z "},"Í":{"ha":386,"x_min":53,"x_max":549,"o":"m 193 0 l 53 0 l 261 969 l 401 969 l 193 0 m 361 1028 l 263 1028 l 393 1228 l 549 1228 l 361 1028 z "},"Î":{"ha":386,"x_min":53,"x_max":521,"o":"m 193 0 l 53 0 l 261 969 l 401 969 l 193 0 m 521 1028 l 418 1028 l 347 1164 l 226 1028 l 113 1028 l 297 1228 l 417 1228 l 521 1028 z "},"Ï":{"ha":386,"x_min":53,"x_max":540,"o":"m 193 0 l 53 0 l 261 969 l 401 969 l 193 0 m 282 1058 l 160 1058 l 189 1197 l 311 1197 l 282 1058 m 511 1058 l 389 1058 l 418 1197 l 540 1197 l 511 1058 z "},"Ð":{"ha":1003,"x_min":56,"x_max":965,"o":"m 349 0 l 58 0 l 160 475 l 56 475 l 75 564 l 178 564 l 264 969 l 482 969 q 838 865 711 969 q 965 578 965 761 q 891 267 965 396 q 678 69 817 138 q 349 0 540 0 m 225 122 l 372 122 q 607 176 507 122 q 763 329 707 231 q 818 563 818 428 q 736 775 818 703 q 457 847 654 847 l 379 847 l 319 564 l 569 564 l 550 475 l 300 475 l 225 122 z "},"Ñ":{"ha":1003,"x_min":58,"x_max":1024,"o":"m 813 0 l 633 0 l 360 806 l 357 806 l 192 0 l 58 0 l 260 969 l 443 969 l 717 157 l 719 157 l 892 969 l 1024 969 l 813 0 m 826 1203 l 890 1203 q 847 1088 881 1129 q 760 1047 814 1047 q 685 1063 722 1047 q 611 1095 647 1079 q 540 1111 575 1111 q 504 1097 521 1111 q 482 1047 488 1083 l 418 1047 q 461 1162 428 1121 q 549 1203 494 1203 q 624 1187 586 1203 q 698 1155 661 1171 q 769 1139 735 1139 q 807 1155 792 1139 q 826 1203 822 1171 z "},"Ò":{"ha":1081,"x_min":103,"x_max":1043,"o":"m 510 -17 q 206 88 310 -17 q 103 394 103 193 q 124 557 103 474 q 190 717 146 640 q 299 854 233 793 q 453 951 365 915 q 650 986 540 986 q 939 883 835 986 q 1043 592 1043 779 q 1008 367 1043 475 q 906 172 974 258 q 740 34 839 85 q 510 -17 640 -17 m 515 106 q 673 147 603 106 q 793 258 743 189 q 869 409 843 326 q 896 575 896 492 q 833 790 896 715 q 646 864 769 864 q 484 826 557 864 q 359 721 411 788 q 278 569 307 654 q 250 390 250 483 q 315 185 250 264 q 515 106 381 106 m 775 1028 l 682 1028 l 542 1228 l 682 1228 l 775 1028 z "},"Ó":{"ha":1081,"x_min":103,"x_max":1043,"o":"m 510 -17 q 206 88 310 -17 q 103 394 103 193 q 124 557 103 474 q 190 717 146 640 q 299 854 233 793 q 453 951 365 915 q 650 986 540 986 q 939 883 835 986 q 1043 592 1043 779 q 1008 367 1043 475 q 906 172 974 258 q 740 34 839 85 q 510 -17 640 -17 m 515 106 q 673 147 603 106 q 793 258 743 189 q 869 409 843 326 q 896 575 896 492 q 833 790 896 715 q 646 864 769 864 q 484 826 557 864 q 359 721 411 788 q 278 569 307 654 q 250 390 250 483 q 315 185 250 264 q 515 106 381 106 m 713 1028 l 614 1028 l 744 1228 l 900 1228 l 713 1028 z "},"Ô":{"ha":1081,"x_min":103,"x_max":1043,"o":"m 510 -17 q 206 88 310 -17 q 103 394 103 193 q 124 557 103 474 q 190 717 146 640 q 299 854 233 793 q 453 951 365 915 q 650 986 540 986 q 939 883 835 986 q 1043 592 1043 779 q 1008 367 1043 475 q 906 172 974 258 q 740 34 839 85 q 510 -17 640 -17 m 515 106 q 673 147 603 106 q 793 258 743 189 q 869 409 843 326 q 896 575 896 492 q 833 790 896 715 q 646 864 769 864 q 484 826 557 864 q 359 721 411 788 q 278 569 307 654 q 250 390 250 483 q 315 185 250 264 q 515 106 381 106 m 875 1028 l 772 1028 l 701 1164 l 581 1028 l 467 1028 l 651 1228 l 771 1228 l 875 1028 z "},"Õ":{"ha":1081,"x_min":103,"x_max":1043,"o":"m 510 -17 q 206 88 310 -17 q 103 394 103 193 q 124 557 103 474 q 190 717 146 640 q 299 854 233 793 q 453 951 365 915 q 650 986 540 986 q 939 883 835 986 q 1043 592 1043 779 q 1008 367 1043 475 q 906 172 974 258 q 740 34 839 85 q 510 -17 640 -17 m 515 106 q 673 147 603 106 q 793 258 743 189 q 869 409 843 326 q 896 575 896 492 q 833 790 896 715 q 646 864 769 864 q 484 826 557 864 q 359 721 411 788 q 278 569 307 654 q 250 390 250 483 q 315 185 250 264 q 515 106 381 106 m 875 1203 l 939 1203 q 896 1088 929 1129 q 808 1047 863 1047 q 733 1063 771 1047 q 660 1095 696 1079 q 589 1111 624 1111 q 553 1097 569 1111 q 531 1047 536 1083 l 467 1047 q 510 1162 476 1121 q 597 1203 543 1203 q 672 1187 635 1203 q 747 1155 710 1171 q 818 1139 783 1139 q 856 1155 840 1139 q 875 1203 871 1171 z "},"Ö":{"ha":1081,"x_min":103,"x_max":1043,"o":"m 510 -17 q 206 88 310 -17 q 103 394 103 193 q 124 557 103 474 q 190 717 146 640 q 299 854 233 793 q 453 951 365 915 q 650 986 540 986 q 939 883 835 986 q 1043 592 1043 779 q 1008 367 1043 475 q 906 172 974 258 q 740 34 839 85 q 510 -17 640 -17 m 515 106 q 673 147 603 106 q 793 258 743 189 q 869 409 843 326 q 896 575 896 492 q 833 790 896 715 q 646 864 769 864 q 484 826 557 864 q 359 721 411 788 q 278 569 307 654 q 250 390 250 483 q 315 185 250 264 q 515 106 381 106 m 636 1058 l 514 1058 l 543 1197 l 665 1197 l 636 1058 m 865 1058 l 743 1058 l 772 1197 l 894 1197 l 865 1058 z "},"×":{"ha":833,"x_min":115,"x_max":760,"o":"m 674 29 l 438 267 l 201 29 l 115 115 l 351 351 l 115 588 l 201 674 l 438 436 l 674 674 l 760 588 l 522 351 l 760 115 l 674 29 z "},"Ø":{"ha":1081,"x_min":103,"x_max":1043,"o":"m 182 -115 l 113 -67 l 219 78 q 132 210 161 129 q 103 394 103 290 q 138 602 103 497 q 243 794 174 707 q 415 933 313 881 q 653 986 518 986 q 856 940 772 986 l 951 1069 l 1021 1021 l 926 893 q 1043 593 1043 792 q 1008 364 1043 474 q 906 169 974 254 q 738 33 838 83 q 510 -17 639 -17 q 289 29 376 -17 l 182 -115 m 307 197 l 776 833 q 646 864 724 864 q 486 826 558 864 q 360 722 414 788 q 278 570 307 656 q 250 390 250 485 q 307 197 250 269 m 840 778 l 371 140 q 515 106 428 106 q 673 147 603 106 q 793 258 743 189 q 869 409 843 326 q 896 575 896 492 q 840 778 896 706 z "},"Ù":{"ha":1003,"x_min":131,"x_max":1022,"o":"m 772 458 l 883 969 l 1022 969 l 897 400 q 748 86 850 189 q 472 -17 646 -17 q 308 13 374 -17 q 203 89 242 43 q 147 185 164 135 q 131 278 131 236 q 138 356 131 310 q 164 493 144 401 l 267 969 l 406 969 l 281 385 q 269 299 269 333 q 327 157 269 208 q 481 106 385 106 q 624 151 568 106 q 715 276 681 196 q 772 458 750 356 m 731 1028 l 638 1028 l 497 1228 l 638 1228 l 731 1028 z "},"Ú":{"ha":1003,"x_min":131,"x_max":1022,"o":"m 772 458 l 883 969 l 1022 969 l 897 400 q 748 86 850 189 q 472 -17 646 -17 q 308 13 374 -17 q 203 89 242 43 q 147 185 164 135 q 131 278 131 236 q 138 356 131 310 q 164 493 144 401 l 267 969 l 406 969 l 281 385 q 269 299 269 333 q 327 157 269 208 q 481 106 385 106 q 624 151 568 106 q 715 276 681 196 q 772 458 750 356 m 681 1028 l 582 1028 l 713 1228 l 868 1228 l 681 1028 z "},"Û":{"ha":1003,"x_min":131,"x_max":1022,"o":"m 772 458 l 883 969 l 1022 969 l 897 400 q 748 86 850 189 q 472 -17 646 -17 q 308 13 374 -17 q 203 89 242 43 q 147 185 164 135 q 131 278 131 236 q 138 356 131 310 q 164 493 144 401 l 267 969 l 406 969 l 281 385 q 269 299 269 333 q 327 157 269 208 q 481 106 385 106 q 624 151 568 106 q 715 276 681 196 q 772 458 750 356 m 840 1028 l 738 1028 l 667 1164 l 546 1028 l 432 1028 l 617 1228 l 736 1228 l 840 1028 z "},"Ü":{"ha":1003,"x_min":131,"x_max":1022,"o":"m 772 458 l 883 969 l 1022 969 l 897 400 q 748 86 850 189 q 472 -17 646 -17 q 308 13 374 -17 q 203 89 242 43 q 147 185 164 135 q 131 278 131 236 q 138 356 131 310 q 164 493 144 401 l 267 969 l 406 969 l 281 385 q 269 299 269 333 q 327 157 269 208 q 481 106 385 106 q 624 151 568 106 q 715 276 681 196 q 772 458 750 356 m 599 1058 l 476 1058 l 506 1197 l 628 1197 l 599 1058 m 828 1058 l 706 1058 l 735 1197 l 857 1197 l 828 1058 z "},"Ý":{"ha":926,"x_min":147,"x_max":1051,"o":"m 460 0 l 324 0 l 407 406 l 147 969 l 300 969 l 493 531 l 875 969 l 1051 969 l 543 406 l 460 0 m 590 1028 l 492 1028 l 622 1228 l 778 1228 l 590 1028 z "},"Þ":{"ha":772,"x_min":53,"x_max":788,"o":"m 192 0 l 53 0 l 264 969 l 403 969 l 372 828 l 476 828 q 626 803 556 828 q 742 723 697 778 q 788 575 788 668 q 739 400 788 474 q 601 286 690 326 q 390 246 511 246 l 246 246 l 192 0 m 272 368 l 351 368 q 499 385 443 368 q 585 428 556 401 q 626 489 615 456 q 638 554 638 522 q 588 671 638 636 q 432 706 538 706 l 346 706 l 272 368 z "},"ß":{"ha":849,"x_min":49,"x_max":813,"o":"m 279 6 l 303 113 q 363 101 332 104 q 422 97 393 97 q 534 130 486 97 q 608 217 582 163 q 635 335 635 271 q 587 458 635 421 q 425 496 539 496 l 447 601 q 562 625 508 601 q 649 694 615 649 q 682 803 682 739 q 641 913 682 874 q 535 953 600 953 q 410 897 463 953 q 328 701 357 840 l 179 0 l 49 0 l 200 718 q 236 846 214 785 q 296 955 258 907 q 392 1031 333 1003 q 538 1058 450 1058 q 675 1033 613 1058 q 775 951 738 1007 q 813 806 813 896 q 783 685 813 740 q 704 595 753 631 q 597 550 656 560 l 597 547 q 726 481 679 538 q 774 336 774 425 q 735 172 774 251 q 617 42 696 93 q 417 -8 538 -8 q 349 -4 383 -8 q 279 6 314 0 z "},"à":{"ha":772,"x_min":36,"x_max":679,"o":"m 593 0 l 472 0 l 496 118 l 493 118 q 398 19 461 56 q 263 -17 335 -17 q 150 5 201 -17 q 67 70 99 26 q 36 179 36 114 q 137 372 36 307 q 454 438 238 438 q 503 436 478 438 q 550 433 528 435 q 555 458 553 449 q 557 481 557 468 q 520 581 557 542 q 394 619 483 619 q 285 604 342 619 q 178 560 228 589 l 201 689 q 299 714 242 703 q 400 725 357 725 q 601 670 524 725 q 679 500 679 615 q 665 381 679 449 q 632 222 651 314 q 593 0 613 129 m 522 340 l 425 340 q 301 325 358 340 q 210 276 244 310 q 175 185 175 242 q 210 114 175 139 q 292 89 244 89 q 400 123 351 89 q 481 214 449 157 q 522 340 513 271 m 571 807 l 478 807 l 338 1007 l 478 1007 l 571 807 z "},"á":{"ha":772,"x_min":36,"x_max":707,"o":"m 593 0 l 472 0 l 496 118 l 493 118 q 398 19 461 56 q 263 -17 335 -17 q 150 5 201 -17 q 67 70 99 26 q 36 179 36 114 q 137 372 36 307 q 454 438 238 438 q 503 436 478 438 q 550 433 528 435 q 555 458 553 449 q 557 481 557 468 q 520 581 557 542 q 394 619 483 619 q 285 604 342 619 q 178 560 228 589 l 201 689 q 299 714 242 703 q 400 725 357 725 q 601 670 524 725 q 679 500 679 615 q 665 381 679 449 q 632 222 651 314 q 593 0 613 129 m 522 340 l 425 340 q 301 325 358 340 q 210 276 244 310 q 175 185 175 242 q 210 114 175 139 q 292 89 244 89 q 400 123 351 89 q 481 214 449 157 q 522 340 513 271 m 519 807 l 421 807 l 551 1007 l 707 1007 l 519 807 z "},"â":{"ha":772,"x_min":36,"x_max":682,"o":"m 593 0 l 472 0 l 496 118 l 493 118 q 398 19 461 56 q 263 -17 335 -17 q 150 5 201 -17 q 67 70 99 26 q 36 179 36 114 q 137 372 36 307 q 454 438 238 438 q 503 436 478 438 q 550 433 528 435 q 555 458 553 449 q 557 481 557 468 q 520 581 557 542 q 394 619 483 619 q 285 604 342 619 q 178 560 228 589 l 201 689 q 299 714 242 703 q 400 725 357 725 q 601 670 524 725 q 679 500 679 615 q 665 381 679 449 q 632 222 651 314 q 593 0 613 129 m 522 340 l 425 340 q 301 325 358 340 q 210 276 244 310 q 175 185 175 242 q 210 114 175 139 q 292 89 244 89 q 400 123 351 89 q 481 214 449 157 q 522 340 513 271 m 682 807 l 579 807 l 508 943 l 388 807 l 274 807 l 458 1007 l 578 1007 l 682 807 z "},"ã":{"ha":772,"x_min":36,"x_max":736,"o":"m 593 0 l 472 0 l 496 118 l 493 118 q 398 19 461 56 q 263 -17 335 -17 q 150 5 201 -17 q 67 70 99 26 q 36 179 36 114 q 137 372 36 307 q 454 438 238 438 q 503 436 478 438 q 550 433 528 435 q 555 458 553 449 q 557 481 557 468 q 520 581 557 542 q 394 619 483 619 q 285 604 342 619 q 178 560 228 589 l 201 689 q 299 714 242 703 q 400 725 357 725 q 601 670 524 725 q 679 500 679 615 q 665 381 679 449 q 632 222 651 314 q 593 0 613 129 m 522 340 l 425 340 q 301 325 358 340 q 210 276 244 310 q 175 185 175 242 q 210 114 175 139 q 292 89 244 89 q 400 123 351 89 q 481 214 449 157 q 522 340 513 271 m 672 969 l 736 969 q 691 852 725 890 q 606 814 657 814 q 532 830 569 814 q 459 862 494 846 q 392 878 424 878 q 347 860 361 878 q 328 814 332 842 l 264 814 q 308 929 275 889 q 394 969 342 969 q 468 953 431 969 q 542 922 506 938 q 610 906 579 906 q 653 924 639 906 q 672 969 668 942 z "},"ä":{"ha":772,"x_min":36,"x_max":690,"o":"m 593 0 l 472 0 l 496 118 l 493 118 q 398 19 461 56 q 263 -17 335 -17 q 150 5 201 -17 q 67 70 99 26 q 36 179 36 114 q 137 372 36 307 q 454 438 238 438 q 503 436 478 438 q 550 433 528 435 q 555 458 553 449 q 557 481 557 468 q 520 581 557 542 q 394 619 483 619 q 285 604 342 619 q 178 560 228 589 l 201 689 q 299 714 242 703 q 400 725 357 725 q 601 670 524 725 q 679 500 679 615 q 665 381 679 449 q 632 222 651 314 q 593 0 613 129 m 522 340 l 425 340 q 301 325 358 340 q 210 276 244 310 q 175 185 175 242 q 210 114 175 139 q 292 89 244 89 q 400 123 351 89 q 481 214 449 157 q 522 340 513 271 m 432 817 l 310 817 l 339 956 l 461 956 l 432 817 m 661 817 l 539 817 l 568 956 l 690 956 l 661 817 z "},"å":{"ha":772,"x_min":36,"x_max":679,"o":"m 593 0 l 472 0 l 496 118 l 493 118 q 398 19 461 56 q 263 -17 335 -17 q 150 5 201 -17 q 67 70 99 26 q 36 179 36 114 q 137 372 36 307 q 454 438 238 438 q 503 436 478 438 q 550 433 528 435 q 555 458 553 449 q 557 481 557 468 q 520 581 557 542 q 394 619 483 619 q 285 604 342 619 q 178 560 228 589 l 201 689 q 299 714 242 703 q 400 725 357 725 q 601 670 524 725 q 679 500 679 615 q 665 381 679 449 q 632 222 651 314 q 593 0 613 129 m 522 340 l 425 340 q 301 325 358 340 q 210 276 244 310 q 175 185 175 242 q 210 114 175 139 q 292 89 244 89 q 400 123 351 89 q 481 214 449 157 q 522 340 513 271 m 481 782 q 381 825 421 782 q 342 924 342 868 q 381 1024 342 982 q 481 1065 421 1065 q 580 1024 539 1065 q 621 924 621 983 q 580 824 621 865 q 481 782 539 782 m 481 838 q 540 864 514 838 q 565 924 565 890 q 540 984 565 958 q 481 1010 514 1010 q 422 985 446 1010 q 397 924 397 960 q 422 863 397 889 q 481 838 446 838 z "},"æ":{"ha":1235,"x_min":36,"x_max":1199,"o":"m 1101 131 l 1083 14 q 995 -8 1042 0 q 908 -17 949 -17 q 763 -2 821 -17 q 664 47 704 13 q 589 140 624 82 q 466 26 547 68 q 292 -17 385 -17 q 106 33 175 -17 q 36 179 36 83 q 137 372 36 307 q 456 438 238 438 q 505 436 482 438 q 575 432 528 435 q 581 479 581 454 q 533 584 581 549 q 408 619 486 619 q 290 603 347 619 q 179 564 233 588 l 204 690 q 309 715 256 706 q 418 725 363 725 q 585 692 522 725 q 671 603 647 660 q 781 694 715 664 q 932 725 847 725 q 1128 653 1058 725 q 1199 454 1199 582 q 1196 392 1199 421 q 1186 325 1193 363 l 699 325 q 694 278 694 311 q 727 172 694 214 q 810 109 760 129 q 915 89 861 89 q 1008 100 963 89 q 1101 131 1054 111 m 701 422 l 1064 422 q 1068 476 1068 454 q 1028 581 1068 542 q 918 619 989 619 q 784 564 843 619 q 701 422 725 508 m 553 340 l 428 340 q 244 301 313 340 q 175 185 175 263 q 208 116 175 143 q 306 89 242 89 q 464 153 400 89 q 553 340 528 217 z "},"ç":{"ha":617,"x_min":65,"x_max":635,"o":"m 167 -278 l 189 -228 q 281 -253 250 -253 q 345 -236 326 -253 q 364 -190 364 -219 q 345 -151 364 -165 q 300 -137 326 -137 q 242 -151 274 -137 l 218 -118 l 308 -11 q 128 83 190 7 q 65 281 65 158 q 90 448 65 368 q 165 590 115 528 q 286 689 214 653 q 453 725 358 725 q 549 719 506 725 q 635 697 592 713 l 603 585 q 536 612 568 604 q 475 619 504 619 q 333 576 394 619 q 238 460 272 532 q 204 299 204 388 q 253 144 204 200 q 396 89 303 89 q 468 99 429 89 q 539 121 507 108 l 515 0 q 449 -13 483 -10 q 382 -17 414 -17 q 369 -16 375 -17 q 363 -15 363 -15 l 301 -85 l 304 -87 q 322 -83 311 -85 q 343 -82 332 -82 q 400 -92 371 -82 q 449 -124 429 -101 q 469 -187 469 -147 q 443 -256 469 -229 q 378 -295 417 -282 q 300 -308 339 -308 q 167 -278 229 -308 z "},"è":{"ha":772,"x_min":65,"x_max":719,"o":"m 622 132 l 601 13 q 499 -8 551 0 q 392 -17 446 -17 q 65 301 65 -17 q 90 447 65 372 q 163 584 114 521 q 285 686 213 647 q 456 725 358 725 q 649 653 579 725 q 719 454 719 582 q 716 388 719 418 q 707 325 713 357 l 208 325 q 204 281 204 303 q 257 136 204 183 q 422 89 310 89 q 522 101 471 89 q 622 132 574 113 m 222 422 l 585 422 q 589 476 589 454 q 552 578 589 536 q 438 619 515 619 q 308 566 368 619 q 222 422 247 513 m 571 807 l 478 807 l 338 1007 l 478 1007 l 571 807 z "},"é":{"ha":772,"x_min":65,"x_max":719,"o":"m 622 132 l 601 13 q 499 -8 551 0 q 392 -17 446 -17 q 65 301 65 -17 q 90 447 65 372 q 163 584 114 521 q 285 686 213 647 q 456 725 358 725 q 649 653 579 725 q 719 454 719 582 q 716 388 719 418 q 707 325 713 357 l 208 325 q 204 281 204 303 q 257 136 204 183 q 422 89 310 89 q 522 101 471 89 q 622 132 574 113 m 222 422 l 585 422 q 589 476 589 454 q 552 578 589 536 q 438 619 515 619 q 308 566 368 619 q 222 422 247 513 m 519 807 l 421 807 l 551 1007 l 707 1007 l 519 807 z "},"ê":{"ha":772,"x_min":65,"x_max":719,"o":"m 622 132 l 601 13 q 499 -8 551 0 q 392 -17 446 -17 q 65 301 65 -17 q 90 447 65 372 q 163 584 114 521 q 285 686 213 647 q 456 725 358 725 q 649 653 579 725 q 719 454 719 582 q 716 388 719 418 q 707 325 713 357 l 208 325 q 204 281 204 303 q 257 136 204 183 q 422 89 310 89 q 522 101 471 89 q 622 132 574 113 m 222 422 l 585 422 q 589 476 589 454 q 552 578 589 536 q 438 619 515 619 q 308 566 368 619 q 222 422 247 513 m 682 807 l 579 807 l 508 943 l 388 807 l 274 807 l 458 1007 l 578 1007 l 682 807 z "},"ë":{"ha":772,"x_min":65,"x_max":719,"o":"m 622 132 l 601 13 q 499 -8 551 0 q 392 -17 446 -17 q 65 301 65 -17 q 90 447 65 372 q 163 584 114 521 q 285 686 213 647 q 456 725 358 725 q 649 653 579 725 q 719 454 719 582 q 716 388 719 418 q 707 325 713 357 l 208 325 q 204 281 204 303 q 257 136 204 183 q 422 89 310 89 q 522 101 471 89 q 622 132 574 113 m 222 422 l 585 422 q 589 476 589 454 q 552 578 589 536 q 438 619 515 619 q 308 566 368 619 q 222 422 247 513 m 432 817 l 310 817 l 339 956 l 461 956 l 432 817 m 661 817 l 539 817 l 568 956 l 690 956 l 661 817 z "},"ì":{"ha":386,"x_min":57,"x_max":378,"o":"m 188 0 l 57 0 l 207 708 l 338 708 l 188 0 m 378 807 l 285 807 l 144 1007 l 285 1007 l 378 807 z "},"í":{"ha":386,"x_min":57,"x_max":514,"o":"m 188 0 l 57 0 l 207 708 l 338 708 l 188 0 m 326 807 l 228 807 l 358 1007 l 514 1007 l 326 807 z "},"î":{"ha":386,"x_min":57,"x_max":489,"o":"m 188 0 l 57 0 l 207 708 l 338 708 l 188 0 m 489 807 l 386 807 l 315 943 l 194 807 l 81 807 l 265 1007 l 385 1007 l 489 807 z "},"ï":{"ha":386,"x_min":57,"x_max":497,"o":"m 188 0 l 57 0 l 207 708 l 338 708 l 188 0 m 239 817 l 117 817 l 146 956 l 268 956 l 239 817 m 468 817 l 346 817 l 375 956 l 497 956 l 468 817 z "},"ð":{"ha":849,"x_min":65,"x_max":783,"o":"m 594 694 l 597 694 q 475 856 550 785 l 299 774 l 239 844 l 399 919 q 345 955 372 939 q 294 985 318 971 l 394 1058 q 457 1019 425 1040 q 519 975 489 999 l 700 1058 l 760 988 l 592 910 q 738 686 692 808 q 783 415 783 564 q 737 195 783 293 q 602 40 690 97 q 388 -17 514 -17 q 150 66 235 -17 q 65 299 65 149 q 114 517 65 421 q 253 669 163 613 q 468 725 343 725 q 594 694 543 725 m 386 89 q 490 118 443 89 q 572 194 538 147 q 626 299 607 242 q 644 415 644 357 q 623 517 644 471 q 561 592 601 564 q 463 619 521 619 q 352 590 400 619 q 271 513 304 561 q 221 406 238 464 q 204 289 204 347 q 251 144 204 199 q 386 89 299 89 z "},"ñ":{"ha":849,"x_min":49,"x_max":775,"o":"m 678 0 l 547 0 l 631 404 q 640 460 638 440 q 642 490 642 479 q 606 583 642 547 q 513 619 571 619 q 388 579 442 619 q 301 477 335 539 q 253 350 267 415 l 179 0 l 49 0 l 171 593 q 192 708 189 686 l 314 708 l 292 596 l 294 596 q 396 692 333 658 q 536 725 458 725 q 707 669 642 725 q 772 503 772 614 q 767 434 772 469 q 756 374 761 399 l 678 0 m 711 969 l 775 969 q 730 852 764 890 q 644 814 696 814 q 571 830 608 814 q 498 862 533 846 q 431 878 463 878 q 385 860 400 878 q 367 814 371 842 l 303 814 q 347 929 314 889 q 433 969 381 969 q 507 953 469 969 q 581 922 544 938 q 649 906 618 906 q 692 924 678 906 q 711 969 707 942 z "},"ò":{"ha":849,"x_min":65,"x_max":783,"o":"m 388 -17 q 150 66 235 -17 q 65 299 65 149 q 113 515 65 418 q 250 668 160 611 q 469 725 340 725 q 699 642 614 725 q 783 415 783 558 q 736 194 783 292 q 600 40 689 96 q 388 -17 511 -17 m 386 89 q 489 117 442 89 q 571 192 536 144 q 625 297 606 239 q 644 415 644 356 q 623 517 644 471 q 561 592 601 564 q 463 619 521 619 q 352 590 400 619 q 272 513 304 561 q 222 406 239 464 q 204 289 204 347 q 251 144 204 200 q 386 89 297 89 m 610 807 l 517 807 l 376 1007 l 517 1007 l 610 807 z "},"ó":{"ha":849,"x_min":65,"x_max":783,"o":"m 388 -17 q 150 66 235 -17 q 65 299 65 149 q 113 515 65 418 q 250 668 160 611 q 469 725 340 725 q 699 642 614 725 q 783 415 783 558 q 736 194 783 292 q 600 40 689 96 q 388 -17 511 -17 m 386 89 q 489 117 442 89 q 571 192 536 144 q 625 297 606 239 q 644 415 644 356 q 623 517 644 471 q 561 592 601 564 q 463 619 521 619 q 352 590 400 619 q 272 513 304 561 q 222 406 239 464 q 204 289 204 347 q 251 144 204 200 q 386 89 297 89 m 558 807 l 460 807 l 590 1007 l 746 1007 l 558 807 z "},"ô":{"ha":849,"x_min":65,"x_max":783,"o":"m 388 -17 q 150 66 235 -17 q 65 299 65 149 q 113 515 65 418 q 250 668 160 611 q 469 725 340 725 q 699 642 614 725 q 783 415 783 558 q 736 194 783 292 q 600 40 689 96 q 388 -17 511 -17 m 386 89 q 489 117 442 89 q 571 192 536 144 q 625 297 606 239 q 644 415 644 356 q 623 517 644 471 q 561 592 601 564 q 463 619 521 619 q 352 590 400 619 q 272 513 304 561 q 222 406 239 464 q 204 289 204 347 q 251 144 204 200 q 386 89 297 89 m 721 807 l 618 807 l 547 943 l 426 807 l 313 807 l 497 1007 l 617 1007 l 721 807 z "},"õ":{"ha":849,"x_min":65,"x_max":783,"o":"m 388 -17 q 150 66 235 -17 q 65 299 65 149 q 113 515 65 418 q 250 668 160 611 q 469 725 340 725 q 699 642 614 725 q 783 415 783 558 q 736 194 783 292 q 600 40 689 96 q 388 -17 511 -17 m 386 89 q 489 117 442 89 q 571 192 536 144 q 625 297 606 239 q 644 415 644 356 q 623 517 644 471 q 561 592 601 564 q 463 619 521 619 q 352 590 400 619 q 272 513 304 561 q 222 406 239 464 q 204 289 204 347 q 251 144 204 200 q 386 89 297 89 m 711 969 l 775 969 q 730 852 764 890 q 644 814 696 814 q 571 830 608 814 q 498 862 533 846 q 431 878 463 878 q 385 860 400 878 q 367 814 371 842 l 303 814 q 347 929 314 889 q 433 969 381 969 q 507 953 469 969 q 581 922 544 938 q 649 906 618 906 q 692 924 678 906 q 711 969 707 942 z "},"ö":{"ha":849,"x_min":65,"x_max":783,"o":"m 388 -17 q 150 66 235 -17 q 65 299 65 149 q 113 515 65 418 q 250 668 160 611 q 469 725 340 725 q 699 642 614 725 q 783 415 783 558 q 736 194 783 292 q 600 40 689 96 q 388 -17 511 -17 m 386 89 q 489 117 442 89 q 571 192 536 144 q 625 297 606 239 q 644 415 644 356 q 623 517 644 471 q 561 592 601 564 q 463 619 521 619 q 352 590 400 619 q 272 513 304 561 q 222 406 239 464 q 204 289 204 347 q 251 144 204 200 q 386 89 297 89 m 471 817 l 349 817 l 378 956 l 500 956 l 471 817 m 700 817 l 578 817 l 607 956 l 729 956 l 700 817 z "},"÷":{"ha":833,"x_min":86,"x_max":789,"o":"m 440 533 q 365 565 397 533 q 332 639 332 596 q 363 714 332 682 q 439 746 394 746 q 513 714 481 746 q 544 639 544 682 q 513 567 544 600 q 440 533 481 533 m 789 290 l 86 290 l 86 413 l 789 413 l 789 290 m 440 -43 q 364 -11 396 -43 q 332 64 332 21 q 364 139 332 108 q 439 169 396 169 q 513 138 481 169 q 544 64 544 107 q 513 -9 544 25 q 440 -43 482 -43 z "},"ø":{"ha":849,"x_min":65,"x_max":783,"o":"m 128 -100 l 65 -54 l 153 64 q 88 161 111 103 q 65 299 65 219 q 113 515 65 418 q 250 668 160 611 q 469 725 340 725 q 619 693 553 725 l 704 808 l 767 763 l 685 653 q 758 553 732 614 q 783 415 783 493 q 736 194 783 292 q 600 40 689 96 q 388 -17 511 -17 q 297 -8 340 -17 q 217 21 254 1 l 128 -100 m 232 171 l 549 599 q 512 614 532 608 q 463 619 492 619 q 351 590 399 619 q 270 511 303 560 q 221 404 238 463 q 204 289 204 346 q 232 171 204 219 m 606 546 l 286 115 q 331 96 307 103 q 386 89 356 89 q 490 117 443 89 q 572 194 538 146 q 626 299 607 242 q 644 415 644 357 q 606 546 644 490 z "},"ù":{"ha":849,"x_min":88,"x_max":811,"o":"m 668 0 l 546 0 l 568 113 l 565 113 q 324 -17 483 -17 q 153 39 219 -17 q 88 206 88 94 q 90 254 88 228 q 106 342 93 281 l 182 708 l 313 708 l 226 292 q 221 256 224 275 q 218 218 218 236 q 253 125 218 161 q 347 89 289 89 q 453 117 408 89 q 530 187 499 144 q 580 274 561 229 q 606 351 599 318 l 681 708 l 811 708 l 689 115 q 683 82 688 104 q 674 37 678 60 q 668 0 669 14 m 610 807 l 517 807 l 376 1007 l 517 1007 l 610 807 z "},"ú":{"ha":849,"x_min":88,"x_max":811,"o":"m 668 0 l 546 0 l 568 113 l 565 113 q 324 -17 483 -17 q 153 39 219 -17 q 88 206 88 94 q 90 254 88 228 q 106 342 93 281 l 182 708 l 313 708 l 226 292 q 221 256 224 275 q 218 218 218 236 q 253 125 218 161 q 347 89 289 89 q 453 117 408 89 q 530 187 499 144 q 580 274 561 229 q 606 351 599 318 l 681 708 l 811 708 l 689 115 q 683 82 688 104 q 674 37 678 60 q 668 0 669 14 m 558 807 l 460 807 l 590 1007 l 746 1007 l 558 807 z "},"û":{"ha":849,"x_min":88,"x_max":811,"o":"m 668 0 l 546 0 l 568 113 l 565 113 q 324 -17 483 -17 q 153 39 219 -17 q 88 206 88 94 q 90 254 88 228 q 106 342 93 281 l 182 708 l 313 708 l 226 292 q 221 256 224 275 q 218 218 218 236 q 253 125 218 161 q 347 89 289 89 q 453 117 408 89 q 530 187 499 144 q 580 274 561 229 q 606 351 599 318 l 681 708 l 811 708 l 689 115 q 683 82 688 104 q 674 37 678 60 q 668 0 669 14 m 721 807 l 618 807 l 547 943 l 426 807 l 313 807 l 497 1007 l 617 1007 l 721 807 z "},"ü":{"ha":849,"x_min":88,"x_max":811,"o":"m 668 0 l 546 0 l 568 113 l 565 113 q 324 -17 483 -17 q 153 39 219 -17 q 88 206 88 94 q 90 254 88 228 q 106 342 93 281 l 182 708 l 313 708 l 226 292 q 221 256 224 275 q 218 218 218 236 q 253 125 218 161 q 347 89 289 89 q 453 117 408 89 q 530 187 499 144 q 580 274 561 229 q 606 351 599 318 l 681 708 l 811 708 l 689 115 q 683 82 688 104 q 674 37 678 60 q 668 0 669 14 m 471 817 l 349 817 l 378 956 l 500 956 l 471 817 m 700 817 l 578 817 l 607 956 l 729 956 l 700 817 z "},"ý":{"ha":694,"x_min":-53,"x_max":769,"o":"m 214 -39 l 100 708 l 236 708 l 318 143 l 321 143 l 629 708 l 769 708 l 288 -131 q 225 -226 256 -186 q 153 -287 194 -267 q 46 -308 111 -308 q -3 -306 22 -308 q -53 -299 -28 -304 l -31 -190 q 26 -203 -8 -203 q 133 -158 89 -203 q 214 -39 178 -112 m 481 807 l 382 807 l 513 1007 l 668 1007 l 481 807 z "},"þ":{"ha":849,"x_min":-22,"x_max":783,"o":"m 108 -292 l -22 -292 l 260 1042 l 390 1042 l 303 632 l 306 632 q 396 700 338 675 q 531 725 454 725 q 666 690 610 725 q 753 594 722 656 q 783 454 783 533 q 742 214 783 321 q 621 45 700 107 q 426 -17 542 -17 q 196 106 246 -17 l 193 106 l 108 -292 m 408 89 q 510 120 465 89 q 584 203 554 151 q 629 317 614 254 q 644 443 644 381 q 602 574 644 528 q 485 619 560 619 q 353 570 410 619 q 264 442 296 521 q 232 276 232 364 q 276 144 232 200 q 408 89 321 89 z "},"ÿ":{"ha":694,"x_min":-53,"x_max":769,"o":"m 214 -39 l 100 708 l 236 708 l 318 143 l 321 143 l 629 708 l 769 708 l 288 -131 q 225 -226 256 -186 q 153 -287 194 -267 q 46 -308 111 -308 q -3 -306 22 -308 q -53 -299 -28 -304 l -31 -190 q 26 -203 -8 -203 q 133 -158 89 -203 q 214 -39 178 -112 m 393 817 l 271 817 l 300 956 l 422 956 l 393 817 m 622 817 l 500 817 l 529 956 l 651 956 l 622 817 z "},"Ā":{"ha":1003,"x_min":-43,"x_max":938,"o":"m 938 0 l 794 0 l 743 244 l 267 244 l 111 0 l -43 0 l 586 969 l 724 969 l 938 0 m 722 358 l 631 818 l 338 358 l 722 358 m 865 1088 l 490 1088 l 507 1168 l 881 1168 l 865 1088 z "},"ā":{"ha":772,"x_min":36,"x_max":679,"o":"m 593 0 l 472 0 l 496 118 l 493 118 q 398 19 461 56 q 263 -17 335 -17 q 150 5 201 -17 q 67 70 99 26 q 36 179 36 114 q 137 372 36 307 q 454 438 238 438 q 503 436 478 438 q 550 433 528 435 q 555 458 553 449 q 557 481 557 468 q 520 581 557 542 q 394 619 483 619 q 285 604 342 619 q 178 560 228 589 l 201 689 q 299 714 242 703 q 400 725 357 725 q 601 670 524 725 q 679 500 679 615 q 665 381 679 449 q 632 222 651 314 q 593 0 613 129 m 522 340 l 425 340 q 301 325 358 340 q 210 276 244 310 q 175 185 175 242 q 210 114 175 139 q 292 89 244 89 q 400 123 351 89 q 481 214 449 157 q 522 340 513 271 m 660 854 l 285 854 l 301 935 l 675 935 l 660 854 z "},"Ă":{"ha":1003,"x_min":-43,"x_max":938,"o":"m 938 0 l 794 0 l 743 244 l 267 244 l 111 0 l -43 0 l 586 969 l 724 969 l 938 0 m 722 358 l 631 818 l 338 358 l 722 358 m 835 1217 l 899 1217 q 823 1076 883 1125 q 668 1028 763 1028 q 537 1067 592 1028 q 482 1199 482 1106 l 482 1217 l 546 1217 q 566 1149 546 1172 q 615 1117 586 1125 q 674 1108 644 1108 q 776 1134 735 1108 q 835 1217 817 1160 z "},"ă":{"ha":772,"x_min":36,"x_max":689,"o":"m 593 0 l 472 0 l 496 118 l 493 118 q 398 19 461 56 q 263 -17 335 -17 q 150 5 201 -17 q 67 70 99 26 q 36 179 36 114 q 137 372 36 307 q 454 438 238 438 q 503 436 478 438 q 550 433 528 435 q 555 458 553 449 q 557 481 557 468 q 520 581 557 542 q 394 619 483 619 q 285 604 342 619 q 178 560 228 589 l 201 689 q 299 714 242 703 q 400 725 357 725 q 601 670 524 725 q 679 500 679 615 q 665 381 679 449 q 632 222 651 314 q 593 0 613 129 m 522 340 l 425 340 q 301 325 358 340 q 210 276 244 310 q 175 185 175 242 q 210 114 175 139 q 292 89 244 89 q 400 123 351 89 q 481 214 449 157 q 522 340 513 271 m 625 999 l 689 999 q 613 858 674 906 q 458 810 551 810 q 325 851 378 810 q 272 982 272 893 l 272 999 l 336 999 q 370 917 336 944 q 467 890 404 890 q 625 999 592 890 z "},"Ą":{"ha":1003,"x_min":-43,"x_max":938,"o":"m 853 -189 l 882 -212 q 804 -273 840 -254 q 719 -292 768 -292 q 644 -273 676 -292 q 611 -210 611 -254 q 666 -105 611 -161 q 811 0 721 -49 l 794 0 l 743 244 l 267 244 l 111 0 l -43 0 l 586 969 l 724 969 l 938 0 l 871 0 q 753 -103 790 -61 q 717 -183 717 -144 q 734 -227 717 -218 q 761 -236 751 -236 q 807 -223 783 -236 q 853 -189 831 -210 m 722 358 l 631 818 l 338 358 l 722 358 z "},"ą":{"ha":772,"x_min":36,"x_max":679,"o":"m 539 -189 l 568 -212 q 490 -273 526 -254 q 406 -292 454 -292 q 331 -274 364 -292 q 297 -210 297 -256 q 352 -105 297 -161 q 497 0 407 -49 l 472 0 l 496 118 l 493 118 q 398 19 461 56 q 263 -17 335 -17 q 150 5 201 -17 q 67 70 99 26 q 36 179 36 114 q 137 372 36 307 q 454 438 238 438 q 503 436 478 438 q 550 433 528 435 q 555 458 553 449 q 557 481 557 468 q 520 581 557 542 q 394 619 483 619 q 285 604 342 619 q 178 560 228 589 l 201 689 q 299 714 242 703 q 400 725 357 725 q 601 670 524 725 q 679 500 679 615 q 665 381 679 449 q 632 222 651 314 q 593 0 613 129 l 557 0 q 439 -104 475 -62 q 403 -183 403 -146 q 417 -224 403 -211 q 447 -236 431 -236 q 493 -223 469 -236 q 539 -189 517 -210 m 522 340 l 425 340 q 301 325 358 340 q 210 276 244 310 q 175 185 175 242 q 210 114 175 139 q 292 89 244 89 q 400 123 351 89 q 481 214 449 157 q 522 340 513 271 z "},"Ć":{"ha":849,"x_min":103,"x_max":915,"o":"m 754 139 l 736 10 q 558 -17 653 -17 q 321 33 424 -17 q 160 181 218 82 q 103 426 103 279 q 124 575 103 497 q 188 726 144 653 q 300 858 232 799 q 464 951 368 917 q 685 986 560 986 q 915 942 806 986 l 875 822 q 784 853 832 842 q 688 864 736 864 q 448 803 546 864 q 300 641 350 742 q 250 419 250 540 q 294 242 250 313 q 413 139 338 172 q 581 106 488 106 q 754 139 674 106 m 690 1028 l 592 1028 l 722 1228 l 878 1228 l 690 1028 z "},"ć":{"ha":617,"x_min":65,"x_max":664,"o":"m 539 121 l 515 0 q 449 -13 483 -10 q 379 -17 414 -17 q 149 61 232 -17 q 65 281 65 139 q 90 448 65 368 q 165 590 115 528 q 286 689 214 653 q 453 725 358 725 q 551 718 507 725 q 635 697 596 711 l 603 585 q 536 612 568 604 q 475 619 504 619 q 331 575 392 619 q 238 458 271 531 q 204 299 204 385 q 253 145 204 201 q 396 89 301 89 q 468 99 429 89 q 539 121 507 108 m 476 807 l 378 807 l 508 1007 l 664 1007 l 476 807 z "},"Č":{"ha":849,"x_min":103,"x_max":917,"o":"m 754 139 l 736 10 q 558 -17 653 -17 q 321 33 424 -17 q 160 181 218 82 q 103 426 103 279 q 124 575 103 497 q 188 726 144 653 q 300 858 232 799 q 464 951 368 917 q 685 986 560 986 q 915 942 806 986 l 875 822 q 784 853 832 842 q 688 864 736 864 q 448 803 546 864 q 300 641 350 742 q 250 419 250 540 q 294 242 250 313 q 413 139 338 172 q 581 106 488 106 q 754 139 674 106 m 732 1028 l 613 1028 l 508 1228 l 611 1228 l 682 1092 l 803 1228 l 917 1228 l 732 1028 z "},"č":{"ha":617,"x_min":65,"x_max":710,"o":"m 539 121 l 515 0 q 449 -13 483 -10 q 379 -17 414 -17 q 149 61 232 -17 q 65 281 65 139 q 90 448 65 368 q 165 590 115 528 q 286 689 214 653 q 453 725 358 725 q 551 718 507 725 q 635 697 596 711 l 603 585 q 536 612 568 604 q 475 619 504 619 q 331 575 392 619 q 238 458 271 531 q 204 299 204 385 q 253 145 204 201 q 396 89 301 89 q 468 99 429 89 q 539 121 507 108 m 525 807 l 406 807 l 301 1007 l 404 1007 l 475 871 l 596 1007 l 710 1007 l 525 807 z "},"Ď":{"ha":1003,"x_min":58,"x_max":965,"o":"m 349 0 l 58 0 l 264 969 l 482 969 q 838 865 711 969 q 965 578 965 761 q 891 267 965 396 q 678 69 817 138 q 349 0 540 0 m 225 122 l 372 122 q 607 176 507 122 q 763 329 707 231 q 818 563 818 428 q 736 775 818 703 q 457 847 654 847 l 379 847 l 225 122 m 615 1028 l 496 1028 l 392 1228 l 494 1228 l 565 1092 l 686 1228 l 800 1228 l 615 1028 z "},"ď":{"ha":908,"x_min":65,"x_max":1119,"o":"m 671 0 l 549 0 q 560 58 556 32 q 572 108 565 85 l 569 108 q 481 16 539 49 q 328 -17 424 -17 q 190 22 249 -17 q 98 127 131 60 q 65 282 65 194 q 90 446 65 367 q 160 588 114 525 q 275 688 207 651 q 432 725 343 725 q 572 690 511 725 q 660 592 632 656 l 663 592 l 756 1042 l 886 1042 l 715 253 q 689 120 699 176 q 671 0 679 64 m 376 89 q 485 124 440 89 q 559 211 531 158 q 601 321 588 264 q 615 422 615 378 q 597 519 615 475 q 538 592 578 564 q 438 619 499 619 q 337 588 381 619 q 264 506 293 556 q 219 399 235 456 q 204 290 204 342 q 246 147 204 206 q 376 89 288 89 m 997 739 l 906 739 l 992 1007 l 1119 1007 l 997 739 z "},"Đ":{"ha":1003,"x_min":56,"x_max":965,"o":"m 349 0 l 58 0 l 160 475 l 56 475 l 75 564 l 178 564 l 264 969 l 482 969 q 838 865 711 969 q 965 578 965 761 q 891 267 965 396 q 678 69 817 138 q 349 0 540 0 m 225 122 l 372 122 q 607 176 507 122 q 763 329 707 231 q 818 563 818 428 q 736 775 818 703 q 457 847 654 847 l 379 847 l 319 564 l 569 564 l 550 475 l 300 475 l 225 122 z "},"đ":{"ha":849,"x_min":65,"x_max":971,"o":"m 671 0 l 549 0 q 560 58 556 32 q 572 108 565 85 l 569 108 q 481 16 539 49 q 328 -17 424 -17 q 190 22 249 -17 q 98 127 131 60 q 65 282 65 194 q 90 446 65 367 q 160 588 114 525 q 275 688 207 651 q 432 725 343 725 q 572 690 511 725 q 660 592 632 656 l 663 592 l 714 840 l 456 840 l 474 925 l 732 925 l 756 1042 l 886 1042 l 861 925 l 971 925 l 953 840 l 842 840 l 715 253 q 689 120 699 176 q 671 0 679 64 m 376 89 q 485 124 440 89 q 559 211 531 158 q 601 321 588 264 q 615 422 615 378 q 597 519 615 475 q 538 592 578 564 q 438 619 499 619 q 337 588 381 619 q 264 506 293 556 q 219 399 235 456 q 204 290 204 342 q 246 147 204 206 q 376 89 288 89 z "},"Ē":{"ha":772,"x_min":58,"x_max":797,"o":"m 606 0 l 58 0 l 271 969 l 797 969 l 769 847 l 386 847 l 324 564 l 683 564 l 660 442 l 296 442 l 225 122 l 632 122 l 606 0 m 733 1088 l 358 1088 l 375 1168 l 749 1168 l 733 1088 z "},"ē":{"ha":772,"x_min":65,"x_max":719,"o":"m 622 132 l 601 13 q 499 -8 551 0 q 392 -17 446 -17 q 65 301 65 -17 q 90 447 65 372 q 163 584 114 521 q 285 686 213 647 q 456 725 358 725 q 649 653 579 725 q 719 454 719 582 q 716 388 719 418 q 707 325 713 357 l 208 325 q 204 281 204 303 q 257 136 204 183 q 422 89 310 89 q 522 101 471 89 q 622 132 574 113 m 222 422 l 585 422 q 589 476 589 454 q 552 578 589 536 q 438 619 515 619 q 308 566 368 619 q 222 422 247 513 m 653 854 l 278 854 l 294 935 l 668 935 l 653 854 z "},"Ė":{"ha":772,"x_min":58,"x_max":797,"o":"m 606 0 l 58 0 l 271 969 l 797 969 l 769 847 l 386 847 l 324 564 l 683 564 l 660 442 l 296 442 l 225 122 l 632 122 l 606 0 m 608 1058 l 486 1058 l 515 1197 l 638 1197 l 608 1058 z "},"ė":{"ha":772,"x_min":65,"x_max":719,"o":"m 622 132 l 601 13 q 499 -8 551 0 q 392 -17 446 -17 q 65 301 65 -17 q 90 447 65 372 q 163 584 114 521 q 285 686 213 647 q 456 725 358 725 q 649 653 579 725 q 719 454 719 582 q 716 388 719 418 q 707 325 713 357 l 208 325 q 204 281 204 303 q 257 136 204 183 q 422 89 310 89 q 522 101 471 89 q 622 132 574 113 m 222 422 l 585 422 q 589 476 589 454 q 552 578 589 536 q 438 619 515 619 q 308 566 368 619 q 222 422 247 513 m 522 817 l 400 817 l 429 956 l 551 956 l 522 817 z "},"Ę":{"ha":772,"x_min":58,"x_max":797,"o":"m 539 -189 l 568 -212 q 490 -273 526 -254 q 406 -292 454 -292 q 328 -272 358 -292 q 297 -210 297 -253 q 351 -106 297 -161 q 497 0 406 -50 l 58 0 l 271 969 l 797 969 l 769 847 l 386 847 l 324 564 l 683 564 l 660 442 l 296 442 l 225 122 l 632 122 l 606 0 l 557 0 q 439 -104 475 -62 q 403 -183 403 -146 q 415 -222 403 -208 q 447 -236 428 -236 q 493 -223 469 -236 q 539 -189 517 -210 z "},"ę":{"ha":772,"x_min":65,"x_max":719,"o":"m 418 -189 l 447 -212 q 371 -272 407 -253 q 285 -292 335 -292 q 208 -272 240 -292 q 176 -210 176 -253 q 224 -113 176 -164 q 349 -15 271 -62 q 141 71 217 -7 q 65 301 65 149 q 90 447 65 372 q 163 584 114 521 q 285 686 213 647 q 456 725 358 725 q 649 653 579 725 q 719 454 719 582 q 716 388 719 418 q 707 325 713 357 l 208 325 q 204 281 204 303 q 257 136 204 183 q 422 89 310 89 q 522 101 471 89 q 622 132 574 113 l 601 13 q 513 -6 563 3 q 414 -17 464 -14 q 389 -37 410 -21 q 343 -76 368 -53 q 300 -128 318 -100 q 282 -183 282 -156 q 296 -224 282 -212 q 326 -236 310 -236 q 372 -223 349 -236 q 418 -189 396 -210 m 222 422 l 585 422 q 589 476 589 454 q 552 578 589 536 q 438 619 515 619 q 308 566 368 619 q 222 422 247 513 z "},"Ě":{"ha":772,"x_min":58,"x_max":797,"o":"m 606 0 l 58 0 l 271 969 l 797 969 l 769 847 l 386 847 l 324 564 l 683 564 l 660 442 l 296 442 l 225 122 l 632 122 l 606 0 m 601 1028 l 482 1028 l 378 1228 l 481 1228 l 551 1092 l 672 1228 l 786 1228 l 601 1028 z "},"ě":{"ha":772,"x_min":65,"x_max":719,"o":"m 622 132 l 601 13 q 499 -8 551 0 q 392 -17 446 -17 q 65 301 65 -17 q 90 447 65 372 q 163 584 114 521 q 285 686 213 647 q 456 725 358 725 q 649 653 579 725 q 719 454 719 582 q 716 388 719 418 q 707 325 713 357 l 208 325 q 204 281 204 303 q 257 136 204 183 q 422 89 310 89 q 522 101 471 89 q 622 132 574 113 m 222 422 l 585 422 q 589 476 589 454 q 552 578 589 536 q 438 619 515 619 q 308 566 368 619 q 222 422 247 513 m 529 807 l 410 807 l 306 1007 l 408 1007 l 479 871 l 600 1007 l 714 1007 l 529 807 z "},"Ğ":{"ha":1003,"x_min":103,"x_max":982,"o":"m 696 118 l 760 417 l 557 417 l 585 531 l 922 531 l 810 13 q 682 -10 742 -3 q 560 -17 622 -17 q 223 100 343 -17 q 103 426 103 217 q 124 578 103 500 q 189 728 144 656 q 302 860 233 801 q 467 952 371 918 q 686 986 563 986 q 840 973 767 986 q 982 931 913 960 l 940 811 q 826 849 890 835 q 689 864 761 864 q 495 827 578 864 q 358 727 413 790 q 277 584 304 664 q 250 419 250 504 q 338 189 250 272 q 579 106 426 106 q 642 109 607 106 q 696 118 678 113 m 853 1217 l 917 1217 q 841 1076 901 1125 q 686 1028 781 1028 q 555 1067 610 1028 q 500 1199 500 1106 l 500 1217 l 564 1217 q 584 1149 564 1172 q 633 1117 604 1125 q 692 1108 663 1108 q 794 1134 753 1108 q 853 1217 835 1160 z "},"ğ":{"ha":849,"x_min":32,"x_max":813,"o":"m 539 21 l 553 81 l 550 81 q 462 17 514 35 q 340 0 410 0 q 218 31 279 0 q 116 126 157 63 q 75 285 75 189 q 119 508 75 408 q 242 666 163 607 q 431 725 322 725 q 575 688 513 725 q 664 583 638 651 l 667 583 l 692 708 l 813 708 l 650 -51 q 594 -169 638 -110 q 470 -269 550 -229 q 269 -308 390 -308 q 195 -302 239 -308 q 108 -285 151 -296 q 32 -257 65 -274 l 61 -140 q 288 -203 182 -203 q 401 -181 356 -203 q 474 -124 446 -158 q 517 -50 501 -89 q 539 21 532 -11 m 372 106 q 492 141 436 106 q 581 247 547 176 q 615 425 615 318 q 571 562 615 504 q 438 619 526 619 q 340 588 382 619 q 270 507 299 557 q 228 400 242 457 q 214 290 214 343 q 255 160 214 215 q 372 106 296 106 m 661 999 l 725 999 q 649 858 710 906 q 494 810 588 810 q 361 851 414 810 q 308 982 308 893 l 308 999 l 372 999 q 406 917 372 944 q 503 890 440 890 q 661 999 628 890 z "},"Ģ":{"ha":1003,"x_min":103,"x_max":982,"o":"m 696 118 l 760 417 l 557 417 l 585 531 l 922 531 l 810 13 q 682 -10 742 -3 q 560 -17 622 -17 q 223 100 343 -17 q 103 426 103 217 q 124 578 103 500 q 189 728 144 656 q 302 860 233 801 q 467 952 371 918 q 686 986 563 986 q 840 973 767 986 q 982 931 913 960 l 940 811 q 826 849 890 835 q 689 864 761 864 q 495 827 578 864 q 358 727 413 790 q 277 584 304 664 q 250 419 250 504 q 338 189 250 272 q 579 106 426 106 q 642 109 607 106 q 696 118 678 113 m 449 -308 l 344 -308 l 426 -108 l 558 -108 l 449 -308 z "},"ģ":{"ha":849,"x_min":32,"x_max":813,"o":"m 539 21 l 553 81 l 550 81 q 462 17 514 35 q 340 0 410 0 q 218 31 279 0 q 116 126 157 63 q 75 285 75 189 q 119 508 75 408 q 242 666 163 607 q 431 725 322 725 q 575 688 513 725 q 664 583 638 651 l 667 583 l 692 708 l 813 708 l 650 -51 q 594 -169 638 -110 q 470 -269 550 -229 q 269 -308 390 -308 q 195 -302 239 -308 q 108 -285 151 -296 q 32 -257 65 -274 l 61 -140 q 288 -203 182 -203 q 401 -181 356 -203 q 474 -124 446 -158 q 517 -50 501 -89 q 539 21 532 -11 m 372 106 q 492 141 436 106 q 581 247 547 176 q 615 425 615 318 q 571 562 615 504 q 438 619 526 619 q 340 588 382 619 q 270 507 299 557 q 228 400 242 457 q 214 290 214 343 q 255 160 214 215 q 372 106 296 106 m 539 807 l 411 807 l 521 1007 l 621 1007 l 539 807 z "},"Ī":{"ha":386,"x_min":53,"x_max":551,"o":"m 193 0 l 53 0 l 261 969 l 401 969 l 193 0 m 536 1088 l 161 1088 l 178 1168 l 551 1168 l 536 1088 z "},"ī":{"ha":386,"x_min":57,"x_max":501,"o":"m 188 0 l 57 0 l 207 708 l 338 708 l 188 0 m 486 854 l 111 854 l 128 935 l 501 935 l 486 854 z "},"Į":{"ha":386,"x_min":-67,"x_max":401,"o":"m 175 -189 l 204 -212 q 126 -273 163 -254 q 42 -292 90 -292 q -33 -274 0 -292 q -67 -210 -67 -256 q -12 -106 -67 -161 q 133 0 42 -50 l 53 0 l 261 969 l 401 969 l 193 0 q 74 -105 110 -62 q 39 -183 39 -147 q 52 -224 39 -211 q 83 -236 65 -236 q 129 -223 106 -236 q 175 -189 153 -210 z "},"į":{"ha":386,"x_min":-72,"x_max":411,"o":"m 381 867 l 233 867 l 264 1014 l 411 1014 l 381 867 m 169 -189 l 199 -212 q 118 -274 154 -257 q 36 -292 82 -292 q -37 -274 -3 -292 q -72 -210 -72 -257 q -17 -105 -72 -161 q 128 0 38 -49 l 57 0 l 207 708 l 338 708 l 188 0 q 66 -108 99 -67 q 33 -183 33 -149 q 49 -225 33 -214 q 78 -236 64 -236 q 124 -223 100 -236 q 169 -189 147 -210 z "},"İ":{"ha":386,"x_min":53,"x_max":438,"o":"m 193 0 l 53 0 l 261 969 l 401 969 l 193 0 m 408 1058 l 286 1058 l 315 1197 l 438 1197 l 408 1058 z "},"ı":{"ha":386,"x_min":57,"x_max":338,"o":"m 188 0 l 57 0 l 207 708 l 338 708 l 188 0 z "},"Ķ":{"ha":926,"x_min":72,"x_max":978,"o":"m 840 0 l 665 0 l 310 464 l 213 0 l 72 0 l 282 969 l 421 969 l 326 544 l 329 540 l 794 969 l 978 969 l 456 492 l 840 0 m 376 -308 l 272 -308 l 354 -108 l 486 -108 l 376 -308 z "},"ķ":{"ha":772,"x_min":49,"x_max":792,"o":"m 679 0 l 513 0 l 256 364 l 179 0 l 49 0 l 269 1042 l 400 1042 l 268 431 l 271 431 l 600 708 l 792 708 l 390 394 l 679 0 m 304 -308 l 200 -308 l 282 -108 l 414 -108 l 304 -308 z "},"Ĺ":{"ha":694,"x_min":53,"x_max":622,"o":"m 597 0 l 53 0 l 263 969 l 403 969 l 219 122 l 622 122 l 597 0 m 382 1028 l 283 1028 l 414 1228 l 569 1228 l 382 1028 z "},"ĺ":{"ha":386,"x_min":57,"x_max":550,"o":"m 188 0 l 57 0 l 278 1042 l 408 1042 l 188 0 m 363 1083 l 264 1083 l 394 1283 l 550 1283 l 363 1083 z "},"Ļ":{"ha":694,"x_min":53,"x_max":622,"o":"m 597 0 l 53 0 l 263 969 l 403 969 l 219 122 l 622 122 l 597 0 m 272 -308 l 168 -308 l 250 -108 l 382 -108 l 272 -308 z "},"ļ":{"ha":386,"x_min":-47,"x_max":408,"o":"m 188 0 l 57 0 l 278 1042 l 408 1042 l 188 0 m 57 -308 l -47 -308 l 35 -108 l 167 -108 l 57 -308 z "},"Ľ":{"ha":694,"x_min":53,"x_max":683,"o":"m 597 0 l 53 0 l 263 969 l 403 969 l 219 122 l 622 122 l 597 0 m 561 739 l 469 739 l 556 1007 l 683 1007 l 561 739 z "},"ľ":{"ha":429,"x_min":57,"x_max":642,"o":"m 188 0 l 57 0 l 278 1042 l 408 1042 l 188 0 m 519 739 l 428 739 l 514 1007 l 642 1007 l 519 739 z "},"Ł":{"ha":694,"x_min":21,"x_max":622,"o":"m 597 0 l 53 0 l 124 328 l 21 274 l 42 378 l 146 433 l 263 969 l 403 969 l 304 515 l 603 672 l 582 568 l 282 411 l 219 122 l 622 122 l 597 0 z "},"ł":{"ha":386,"x_min":57,"x_max":428,"o":"m 188 0 l 57 0 l 151 443 l 58 372 l 82 486 l 176 557 l 281 1042 l 411 1042 l 333 675 l 428 746 l 404 632 l 308 560 l 188 0 z "},"Ń":{"ha":1003,"x_min":58,"x_max":1024,"o":"m 813 0 l 633 0 l 360 806 l 357 806 l 192 0 l 58 0 l 260 969 l 443 969 l 717 157 l 719 157 l 892 969 l 1024 969 l 813 0 m 676 1028 l 578 1028 l 708 1228 l 864 1228 l 676 1028 z "},"ń":{"ha":849,"x_min":49,"x_max":772,"o":"m 678 0 l 547 0 l 631 404 q 640 460 638 440 q 642 490 642 479 q 606 583 642 547 q 513 619 571 619 q 388 579 442 619 q 301 477 335 539 q 253 350 267 415 l 179 0 l 49 0 l 171 593 q 192 708 189 686 l 314 708 l 292 596 l 294 596 q 396 692 333 658 q 536 725 458 725 q 707 669 642 725 q 772 503 772 614 q 767 434 772 469 q 756 374 761 399 l 678 0 m 535 807 l 436 807 l 567 1007 l 722 1007 l 535 807 z "},"Ņ":{"ha":1003,"x_min":58,"x_max":1024,"o":"m 813 0 l 633 0 l 360 806 l 357 806 l 192 0 l 58 0 l 260 969 l 443 969 l 717 157 l 719 157 l 892 969 l 1024 969 l 813 0 m 403 -308 l 299 -308 l 381 -108 l 513 -108 l 403 -308 z "},"ņ":{"ha":849,"x_min":49,"x_max":772,"o":"m 678 0 l 547 0 l 631 404 q 640 460 638 440 q 642 490 642 479 q 606 583 642 547 q 513 619 571 619 q 388 579 442 619 q 301 477 335 539 q 253 350 267 415 l 179 0 l 49 0 l 171 593 q 192 708 189 686 l 314 708 l 292 596 l 294 596 q 396 692 333 658 q 536 725 458 725 q 707 669 642 725 q 772 503 772 614 q 767 434 772 469 q 756 374 761 399 l 678 0 m 313 -308 l 208 -308 l 290 -108 l 422 -108 l 313 -308 z "},"Ň":{"ha":1003,"x_min":58,"x_max":1024,"o":"m 813 0 l 633 0 l 360 806 l 357 806 l 192 0 l 58 0 l 260 969 l 443 969 l 717 157 l 719 157 l 892 969 l 1024 969 l 813 0 m 717 1028 l 597 1028 l 493 1228 l 596 1228 l 667 1092 l 788 1228 l 901 1228 l 717 1028 z "},"ň":{"ha":849,"x_min":49,"x_max":772,"o":"m 678 0 l 547 0 l 631 404 q 640 460 638 440 q 642 490 642 479 q 606 583 642 547 q 513 619 571 619 q 388 579 442 619 q 301 477 335 539 q 253 350 267 415 l 179 0 l 49 0 l 171 593 q 192 708 189 686 l 314 708 l 292 596 l 294 596 q 396 692 333 658 q 536 725 458 725 q 707 669 642 725 q 772 503 772 614 q 767 434 772 469 q 756 374 761 399 l 678 0 m 572 807 l 453 807 l 349 1007 l 451 1007 l 522 871 l 643 1007 l 757 1007 l 572 807 z "},"Ō":{"ha":1081,"x_min":103,"x_max":1043,"o":"m 510 -17 q 206 88 310 -17 q 103 394 103 193 q 124 557 103 474 q 190 717 146 640 q 299 854 233 793 q 453 951 365 915 q 650 986 540 986 q 939 883 835 986 q 1043 592 1043 779 q 1008 367 1043 475 q 906 172 974 258 q 740 34 839 85 q 510 -17 640 -17 m 515 106 q 673 147 603 106 q 793 258 743 189 q 869 409 843 326 q 896 575 896 492 q 833 790 896 715 q 646 864 769 864 q 484 826 557 864 q 359 721 411 788 q 278 569 307 654 q 250 390 250 483 q 315 185 250 264 q 515 106 381 106 m 874 1088 l 499 1088 l 515 1168 l 889 1168 l 874 1088 z "},"ō":{"ha":849,"x_min":65,"x_max":783,"o":"m 388 -17 q 150 66 235 -17 q 65 299 65 149 q 113 515 65 418 q 250 668 160 611 q 469 725 340 725 q 699 642 614 725 q 783 415 783 558 q 736 194 783 292 q 600 40 689 96 q 388 -17 511 -17 m 386 89 q 489 117 442 89 q 571 192 536 144 q 625 297 606 239 q 644 415 644 356 q 623 517 644 471 q 561 592 601 564 q 463 619 521 619 q 352 590 400 619 q 272 513 304 561 q 222 406 239 464 q 204 289 204 347 q 251 144 204 200 q 386 89 297 89 m 707 854 l 332 854 l 349 935 l 722 935 l 707 854 z "},"Ő":{"ha":1081,"x_min":103,"x_max":1043,"o":"m 510 -17 q 206 88 310 -17 q 103 394 103 193 q 124 557 103 474 q 190 717 146 640 q 299 854 233 793 q 453 951 365 915 q 650 986 540 986 q 939 883 835 986 q 1043 592 1043 779 q 1008 367 1043 475 q 906 172 974 258 q 740 34 839 85 q 510 -17 640 -17 m 515 106 q 673 147 603 106 q 793 258 743 189 q 869 409 843 326 q 896 575 896 492 q 833 790 896 715 q 646 864 769 864 q 484 826 557 864 q 359 721 411 788 q 278 569 307 654 q 250 390 250 483 q 315 185 250 264 q 515 106 381 106 m 563 1028 l 464 1028 l 594 1228 l 750 1228 l 563 1028 m 793 1028 l 694 1028 l 825 1228 l 981 1228 l 793 1028 z "},"ő":{"ha":849,"x_min":65,"x_max":815,"o":"m 388 -17 q 150 66 235 -17 q 65 299 65 149 q 113 515 65 418 q 250 668 160 611 q 469 725 340 725 q 699 642 614 725 q 783 415 783 558 q 736 194 783 292 q 600 40 689 96 q 388 -17 511 -17 m 386 89 q 489 117 442 89 q 571 192 536 144 q 625 297 606 239 q 644 415 644 356 q 623 517 644 471 q 561 592 601 564 q 463 619 521 619 q 352 590 400 619 q 272 513 304 561 q 222 406 239 464 q 204 289 204 347 q 251 144 204 200 q 386 89 297 89 m 397 807 l 299 807 l 429 1007 l 585 1007 l 397 807 m 628 807 l 529 807 l 660 1007 l 815 1007 l 628 807 z "},"Œ":{"ha":1311,"x_min":103,"x_max":1336,"o":"m 1154 0 l 785 0 q 732 -1 765 0 q 660 -4 699 -3 q 589 -7 622 -6 q 535 -8 556 -8 q 304 49 401 -8 q 155 201 207 106 q 103 407 103 296 q 150 653 103 547 q 281 832 197 760 q 473 941 364 904 q 704 978 582 978 q 775 976 733 978 q 862 974 817 975 q 945 971 907 972 q 1003 969 983 969 l 1336 969 l 1311 847 l 943 847 l 882 564 l 1228 564 l 1206 442 l 856 442 l 786 122 l 1176 122 l 1154 0 m 650 122 l 806 847 q 747 853 774 851 q 689 856 719 856 q 465 801 565 856 q 308 651 365 746 q 250 433 250 556 q 333 200 250 286 q 560 114 415 114 q 650 122 596 114 z "},"œ":{"ha":1311,"x_min":57,"x_max":1254,"o":"m 1157 131 l 1139 14 q 1052 -8 1100 0 q 965 -17 1004 -17 q 774 25 846 -17 q 664 144 703 67 q 540 26 621 68 q 378 -17 460 -17 q 142 66 226 -17 q 57 299 57 149 q 106 517 57 421 q 244 669 154 613 q 461 725 335 725 q 625 685 560 725 q 713 572 690 644 q 819 685 746 646 q 988 725 893 725 q 1184 653 1114 725 q 1254 454 1254 582 q 1251 391 1254 421 q 1242 325 1249 361 l 754 325 q 750 278 750 304 q 782 172 750 214 q 865 110 814 131 q 971 89 915 89 q 1064 100 1018 89 q 1157 131 1110 111 m 378 89 q 478 116 432 89 q 560 190 525 143 q 616 294 596 236 q 636 415 636 353 q 615 517 636 471 q 553 592 593 564 q 454 619 513 619 q 344 590 392 619 q 263 513 296 561 q 213 406 231 464 q 196 289 196 347 q 243 144 196 199 q 378 89 290 89 m 757 422 l 1119 422 q 1124 476 1124 454 q 1084 581 1124 542 q 974 619 1044 619 q 844 568 906 619 q 757 422 783 517 z "},"Ŕ":{"ha":849,"x_min":58,"x_max":818,"o":"m 749 0 l 601 0 l 554 206 q 519 343 535 294 q 482 411 504 392 q 418 431 460 431 l 288 431 l 197 0 l 58 0 l 265 969 l 490 969 q 734 915 650 969 q 818 733 818 861 q 787 613 818 669 q 703 519 756 557 q 582 471 650 482 q 630 418 611 454 q 662 340 649 382 q 683 261 675 299 q 696 204 690 224 q 703 179 697 201 q 716 127 708 157 q 731 68 724 97 q 744 19 739 39 q 749 0 749 0 m 315 553 l 417 553 q 541 569 483 553 q 635 620 599 585 q 671 715 671 656 q 632 816 671 785 q 513 847 593 847 l 378 847 l 315 553 m 533 1028 l 435 1028 l 565 1228 l 721 1228 l 533 1028 z "},"ŕ":{"ha":540,"x_min":49,"x_max":624,"o":"m 179 0 l 49 0 l 171 594 q 185 669 181 639 q 192 708 190 699 l 314 708 l 292 596 l 294 596 q 397 692 335 660 q 535 725 458 725 q 569 721 553 725 q 596 713 586 717 l 567 597 q 542 606 560 600 q 510 611 525 611 q 407 585 451 611 q 331 517 363 558 q 281 430 300 475 q 253 349 261 385 l 179 0 m 436 807 l 338 807 l 468 1007 l 624 1007 l 436 807 z "},"Ŗ":{"ha":849,"x_min":58,"x_max":818,"o":"m 749 0 l 601 0 l 554 206 q 519 343 535 294 q 482 411 504 392 q 418 431 460 431 l 288 431 l 197 0 l 58 0 l 265 969 l 490 969 q 734 915 650 969 q 818 733 818 861 q 787 613 818 669 q 703 519 756 557 q 582 471 650 482 q 630 418 611 454 q 662 340 649 382 q 683 261 675 299 q 696 204 690 224 q 703 179 697 201 q 716 127 708 157 q 731 68 724 97 q 744 19 739 39 q 749 0 749 0 m 315 553 l 417 553 q 541 569 483 553 q 635 620 599 585 q 671 715 671 656 q 632 816 671 785 q 513 847 593 847 l 378 847 l 315 553 m 335 -308 l 231 -308 l 313 -108 l 444 -108 l 335 -308 z "},"ŗ":{"ha":540,"x_min":-56,"x_max":596,"o":"m 179 0 l 49 0 l 171 594 q 185 669 181 639 q 192 708 190 699 l 314 708 l 292 596 l 294 596 q 397 692 335 660 q 535 725 458 725 q 569 721 553 725 q 596 713 586 717 l 567 597 q 542 606 560 600 q 510 611 525 611 q 407 585 451 611 q 331 517 363 558 q 281 430 300 475 q 253 349 261 385 l 179 0 m 49 -308 l -56 -308 l 26 -108 l 158 -108 l 49 -308 z "},"Ř":{"ha":849,"x_min":58,"x_max":818,"o":"m 749 0 l 601 0 l 554 206 q 519 343 535 294 q 482 411 504 392 q 418 431 460 431 l 288 431 l 197 0 l 58 0 l 265 969 l 490 969 q 734 915 650 969 q 818 733 818 861 q 787 613 818 669 q 703 519 756 557 q 582 471 650 482 q 630 418 611 454 q 662 340 649 382 q 683 261 675 299 q 696 204 690 224 q 703 179 697 201 q 716 127 708 157 q 731 68 724 97 q 744 19 739 39 q 749 0 749 0 m 315 553 l 417 553 q 541 569 483 553 q 635 620 599 585 q 671 715 671 656 q 632 816 671 785 q 513 847 593 847 l 378 847 l 315 553 m 586 1028 l 467 1028 l 363 1228 l 465 1228 l 536 1092 l 657 1228 l 771 1228 l 586 1028 z "},"ř":{"ha":540,"x_min":49,"x_max":657,"o":"m 179 0 l 49 0 l 171 594 q 185 669 181 639 q 192 708 190 699 l 314 708 l 292 596 l 294 596 q 397 692 335 660 q 535 725 458 725 q 569 721 553 725 q 596 713 586 717 l 567 597 q 542 606 560 600 q 510 611 525 611 q 407 585 451 611 q 331 517 363 558 q 281 430 300 475 q 253 349 261 385 l 179 0 m 472 807 l 353 807 l 249 1007 l 351 1007 l 422 871 l 543 1007 l 657 1007 l 472 807 z "},"Ś":{"ha":694,"x_min":24,"x_max":706,"o":"m 24 39 l 68 167 q 167 122 113 139 q 272 106 222 106 q 390 131 343 106 q 459 195 436 156 q 482 278 482 235 q 460 356 482 325 q 406 411 439 388 q 335 456 372 435 q 243 519 285 486 q 176 597 201 551 q 151 710 151 642 q 199 861 151 800 q 320 954 246 922 q 472 986 394 986 q 590 975 532 986 q 706 940 647 964 l 667 817 q 588 851 631 839 q 492 864 544 864 q 354 828 410 864 q 299 714 299 792 q 333 632 299 667 q 433 557 367 597 q 580 442 531 500 q 629 294 629 383 q 610 188 629 243 q 552 87 592 133 q 449 12 513 40 q 293 -17 385 -17 q 172 -6 236 -17 q 24 39 107 6 m 500 1028 l 401 1028 l 532 1228 l 688 1228 l 500 1028 z "},"ś":{"ha":540,"x_min":-6,"x_max":574,"o":"m -6 17 l 19 129 q 99 101 58 114 q 182 89 139 89 q 285 115 239 89 q 331 199 331 140 q 297 271 331 242 q 211 335 263 300 q 119 419 149 376 q 89 517 89 461 q 131 638 89 592 q 234 704 172 683 q 356 725 296 725 q 448 715 401 725 q 540 686 494 706 l 501 583 q 429 610 467 600 q 360 619 392 619 q 267 601 307 619 q 228 533 228 582 q 260 464 228 490 q 336 408 293 438 q 399 362 368 388 q 449 300 429 336 q 469 210 469 264 q 444 103 469 147 q 378 33 419 60 q 291 -5 338 7 q 200 -17 244 -17 q 97 -10 143 -17 q -6 17 51 -4 m 386 807 l 288 807 l 418 1007 l 574 1007 l 386 807 z "},"Ş":{"ha":694,"x_min":24,"x_max":706,"o":"m 79 -261 l 101 -211 q 204 -236 149 -236 q 257 -224 238 -236 q 276 -183 276 -211 q 258 -149 276 -162 q 213 -135 240 -135 q 154 -149 183 -135 l 131 -115 l 218 -12 q 128 4 176 -8 q 24 39 79 17 l 68 165 q 167 122 113 138 q 272 106 222 106 q 390 131 343 106 q 459 195 436 156 q 482 278 482 235 q 460 356 482 325 q 406 411 439 388 q 335 456 372 435 q 243 519 285 486 q 176 597 201 551 q 151 710 151 642 q 199 861 151 800 q 320 954 246 922 q 472 986 394 986 q 590 975 532 986 q 706 940 647 964 l 667 817 q 588 851 631 839 q 492 864 544 864 q 354 828 410 864 q 299 714 299 792 q 333 632 299 667 q 433 557 367 597 q 580 442 531 500 q 629 294 629 383 q 594 149 629 221 q 485 30 558 76 q 296 -17 411 -17 l 274 -17 l 214 -82 l 217 -85 q 235 -81 224 -82 q 258 -79 247 -79 q 342 -103 303 -79 q 382 -181 382 -126 q 356 -247 382 -222 q 290 -281 329 -271 q 213 -292 251 -292 q 79 -261 140 -292 z "},"ş":{"ha":540,"x_min":-6,"x_max":540,"o":"m 11 -261 l 33 -211 q 136 -236 81 -236 q 189 -224 169 -236 q 208 -183 208 -211 q 190 -149 208 -162 q 144 -135 172 -135 q 86 -149 115 -135 l 63 -115 l 149 -15 q 60 -3 94 -12 q -6 17 26 6 l 19 129 q 99 101 58 114 q 182 89 139 89 q 285 115 239 89 q 331 199 331 140 q 297 271 331 242 q 211 335 263 300 q 119 419 149 376 q 89 517 89 461 q 131 638 89 592 q 234 704 172 683 q 356 725 296 725 q 448 715 401 725 q 540 686 494 706 l 501 583 q 429 610 467 600 q 360 619 392 619 q 267 601 307 619 q 228 533 228 582 q 260 464 228 490 q 336 408 293 438 q 399 362 368 388 q 449 300 429 336 q 469 210 469 264 q 401 49 469 113 q 206 -17 332 -14 l 146 -82 l 149 -85 q 190 -79 169 -79 q 248 -89 219 -79 q 295 -121 276 -99 q 314 -181 314 -143 q 286 -249 314 -225 q 219 -283 258 -274 q 144 -292 179 -292 q 11 -261 72 -292 z "},"Š":{"ha":694,"x_min":24,"x_max":706,"o":"m 24 39 l 68 167 q 167 122 113 139 q 272 106 222 106 q 390 131 343 106 q 459 195 436 156 q 482 278 482 235 q 460 356 482 325 q 406 411 439 388 q 335 456 372 435 q 243 519 285 486 q 176 597 201 551 q 151 710 151 642 q 199 861 151 800 q 320 954 246 922 q 472 986 394 986 q 590 975 532 986 q 706 940 647 964 l 667 817 q 588 851 631 839 q 492 864 544 864 q 354 828 410 864 q 299 714 299 792 q 333 632 299 667 q 433 557 367 597 q 580 442 531 500 q 629 294 629 383 q 610 188 629 243 q 552 87 592 133 q 449 12 513 40 q 293 -17 385 -17 q 172 -6 236 -17 q 24 39 107 6 m 504 1028 l 385 1028 l 281 1228 l 383 1228 l 454 1092 l 575 1228 l 689 1228 l 504 1028 z "},"š":{"ha":540,"x_min":-6,"x_max":621,"o":"m -6 17 l 19 129 q 99 101 58 114 q 182 89 139 89 q 285 115 239 89 q 331 199 331 140 q 297 271 331 242 q 211 335 263 300 q 119 419 149 376 q 89 517 89 461 q 131 638 89 592 q 234 704 172 683 q 356 725 296 725 q 448 715 401 725 q 540 686 494 706 l 501 583 q 429 610 467 600 q 360 619 392 619 q 267 601 307 619 q 228 533 228 582 q 260 464 228 490 q 336 408 293 438 q 399 362 368 388 q 449 300 429 336 q 469 210 469 264 q 444 103 469 147 q 378 33 419 60 q 291 -5 338 7 q 200 -17 244 -17 q 97 -10 143 -17 q -6 17 51 -4 m 436 807 l 317 807 l 213 1007 l 315 1007 l 386 871 l 507 1007 l 621 1007 l 436 807 z "},"Ţ":{"ha":772,"x_min":128,"x_max":897,"o":"m 388 0 l 247 0 l 429 847 l 128 847 l 154 969 l 897 969 l 871 847 l 569 847 l 388 0 m 257 -308 l 153 -308 l 235 -108 l 367 -108 l 257 -308 z "},"ţ":{"ha":540,"x_min":83,"x_max":586,"o":"m 469 107 l 450 -1 q 389 -13 428 -10 q 322 -17 350 -17 q 224 7 261 -17 q 169 67 186 31 q 153 140 153 103 q 158 203 153 164 q 178 307 164 243 l 239 603 l 83 603 l 103 708 l 261 708 l 296 872 l 436 921 l 392 708 l 586 708 l 565 603 l 369 603 l 315 350 q 289 216 294 256 q 283 165 283 176 q 306 108 283 128 q 378 89 328 89 q 425 94 399 89 q 469 107 451 99 m 200 -308 l 96 -308 l 178 -108 l 310 -108 l 200 -308 z "},"Ť":{"ha":772,"x_min":128,"x_max":897,"o":"m 388 0 l 247 0 l 429 847 l 128 847 l 154 969 l 897 969 l 871 847 l 569 847 l 388 0 m 583 1028 l 464 1028 l 360 1228 l 463 1228 l 533 1092 l 654 1228 l 768 1228 l 583 1028 z "},"ť":{"ha":549,"x_min":83,"x_max":703,"o":"m 589 767 l 497 767 l 575 1007 l 703 1007 l 589 767 m 469 107 l 450 -1 q 389 -13 428 -10 q 322 -17 350 -17 q 224 7 261 -17 q 169 67 186 31 q 153 140 153 103 q 158 203 153 164 q 178 307 164 243 l 239 603 l 83 603 l 103 708 l 261 708 l 296 872 l 436 921 l 392 708 l 586 708 l 565 603 l 369 603 l 315 350 q 289 216 294 256 q 283 165 283 176 q 306 108 283 128 q 378 89 328 89 q 425 94 399 89 q 469 107 451 99 z "},"Ū":{"ha":1003,"x_min":131,"x_max":1022,"o":"m 772 458 l 883 969 l 1022 969 l 897 400 q 748 86 850 189 q 472 -17 646 -17 q 308 13 374 -17 q 203 89 242 43 q 147 185 164 135 q 131 278 131 236 q 138 356 131 310 q 164 493 144 401 l 267 969 l 406 969 l 281 385 q 269 299 269 333 q 327 157 269 208 q 481 106 385 106 q 624 151 568 106 q 715 276 681 196 q 772 458 750 356 m 846 1088 l 471 1088 l 488 1168 l 861 1168 l 846 1088 z "},"ū":{"ha":849,"x_min":88,"x_max":811,"o":"m 668 0 l 546 0 l 568 113 l 565 113 q 324 -17 483 -17 q 153 39 219 -17 q 88 206 88 94 q 90 254 88 228 q 106 342 93 281 l 182 708 l 313 708 l 226 292 q 221 256 224 275 q 218 218 218 236 q 253 125 218 161 q 347 89 289 89 q 453 117 408 89 q 530 187 499 144 q 580 274 561 229 q 606 351 599 318 l 681 708 l 811 708 l 689 115 q 683 82 688 104 q 674 37 678 60 q 668 0 669 14 m 711 854 l 336 854 l 353 935 l 726 935 l 711 854 z "},"Ů":{"ha":1003,"x_min":131,"x_max":1022,"o":"m 772 458 l 883 969 l 1022 969 l 897 400 q 748 86 850 189 q 472 -17 646 -17 q 308 13 374 -17 q 203 89 242 43 q 147 185 164 135 q 131 278 131 236 q 138 356 131 310 q 164 493 144 401 l 267 969 l 406 969 l 281 385 q 269 299 269 333 q 327 157 269 208 q 481 106 385 106 q 624 151 568 106 q 715 276 681 196 q 772 458 750 356 m 660 1013 q 560 1054 600 1013 q 521 1154 521 1096 q 562 1256 521 1215 q 660 1296 603 1296 q 759 1255 718 1296 q 800 1154 800 1214 q 759 1054 800 1096 q 660 1013 718 1013 m 660 1068 q 719 1094 693 1068 q 744 1154 744 1121 q 719 1213 744 1186 q 658 1240 694 1240 q 602 1216 628 1240 q 576 1154 576 1192 q 601 1094 576 1119 q 660 1068 625 1068 z "},"ů":{"ha":849,"x_min":88,"x_max":811,"o":"m 668 0 l 546 0 l 568 113 l 565 113 q 324 -17 483 -17 q 153 39 219 -17 q 88 206 88 94 q 90 254 88 228 q 106 342 93 281 l 182 708 l 313 708 l 226 292 q 221 256 224 275 q 218 218 218 236 q 253 125 218 161 q 347 89 289 89 q 453 117 408 89 q 530 187 499 144 q 580 274 561 229 q 606 351 599 318 l 681 708 l 811 708 l 689 115 q 683 82 688 104 q 674 37 678 60 q 668 0 669 14 m 525 782 q 426 825 465 782 q 386 924 386 868 q 426 1024 386 982 q 525 1065 465 1065 q 624 1024 583 1065 q 665 924 665 983 q 624 824 665 865 q 525 782 583 782 m 525 838 q 584 864 558 838 q 610 924 610 890 q 584 984 610 958 q 525 1010 558 1010 q 466 985 490 1010 q 442 924 442 960 q 466 863 442 889 q 525 838 490 838 z "},"Ű":{"ha":1003,"x_min":131,"x_max":1022,"o":"m 772 458 l 883 969 l 1022 969 l 897 400 q 748 86 850 189 q 472 -17 646 -17 q 308 13 374 -17 q 203 89 242 43 q 147 185 164 135 q 131 278 131 236 q 138 356 131 310 q 164 493 144 401 l 267 969 l 406 969 l 281 385 q 269 299 269 333 q 327 157 269 208 q 481 106 385 106 q 624 151 568 106 q 715 276 681 196 q 772 458 750 356 m 556 1028 l 457 1028 l 588 1228 l 743 1228 l 556 1028 m 786 1028 l 688 1028 l 818 1228 l 974 1228 l 786 1028 z "},"ű":{"ha":849,"x_min":88,"x_max":847,"o":"m 668 0 l 546 0 l 568 113 l 565 113 q 324 -17 483 -17 q 153 39 219 -17 q 88 206 88 94 q 90 254 88 228 q 106 342 93 281 l 182 708 l 313 708 l 226 292 q 221 256 224 275 q 218 218 218 236 q 253 125 218 161 q 347 89 289 89 q 453 117 408 89 q 530 187 499 144 q 580 274 561 229 q 606 351 599 318 l 681 708 l 811 708 l 689 115 q 683 82 688 104 q 674 37 678 60 q 668 0 669 14 m 429 807 l 331 807 l 461 1007 l 617 1007 l 429 807 m 660 807 l 561 807 l 692 1007 l 847 1007 l 660 807 z "},"Ų":{"ha":1003,"x_min":131,"x_max":1022,"o":"m 497 -189 l 526 -212 q 450 -272 486 -253 q 364 -292 414 -292 q 288 -273 321 -292 q 256 -210 256 -254 q 283 -137 256 -174 q 350 -69 310 -101 q 428 -15 390 -37 q 269 33 336 -10 q 167 142 203 76 q 131 278 131 207 q 138 356 131 310 q 164 493 144 401 l 267 969 l 406 969 l 281 385 q 269 299 269 333 q 327 157 269 208 q 481 106 385 106 q 624 151 568 106 q 715 276 681 196 q 772 458 750 356 l 883 969 l 1022 969 l 897 400 q 826 192 872 283 q 699 45 779 100 q 493 -17 619 -10 q 435 -66 465 -39 q 383 -122 404 -93 q 361 -183 361 -151 q 377 -226 361 -217 q 406 -236 393 -236 q 451 -223 428 -236 q 497 -189 475 -210 z "},"ų":{"ha":849,"x_min":88,"x_max":811,"o":"m 617 -189 l 646 -212 q 572 -272 607 -251 q 483 -292 536 -292 q 410 -274 444 -292 q 375 -210 375 -257 q 433 -101 375 -157 q 575 0 490 -46 l 546 0 l 568 113 l 565 113 q 324 -17 486 -17 q 153 39 219 -17 q 88 206 88 94 q 90 256 88 228 q 106 342 93 283 l 182 708 l 313 708 l 226 292 q 221 256 224 275 q 218 218 218 236 q 253 125 218 161 q 347 89 289 89 q 453 117 408 89 q 530 187 499 144 q 580 274 561 229 q 606 351 599 318 l 681 708 l 811 708 l 689 115 q 683 82 688 104 q 674 37 678 60 q 668 0 669 14 l 635 0 q 516 -105 551 -62 q 481 -183 481 -147 q 494 -225 481 -214 q 525 -236 508 -236 q 571 -223 547 -236 q 617 -189 594 -210 z "},"Ÿ":{"ha":926,"x_min":147,"x_max":1051,"o":"m 460 0 l 324 0 l 407 406 l 147 969 l 300 969 l 493 531 l 875 969 l 1051 969 l 543 406 l 460 0 m 558 1042 l 436 1042 l 465 1181 l 588 1181 l 558 1042 m 788 1042 l 665 1042 l 694 1181 l 817 1181 l 788 1042 z "},"Ź":{"ha":772,"x_min":-18,"x_max":838,"o":"m 654 0 l -18 0 l 4 122 l 643 847 l 167 847 l 192 969 l 838 969 l 815 846 l 176 122 l 678 122 l 654 0 m 526 1028 l 428 1028 l 558 1228 l 714 1228 l 526 1028 z "},"ź":{"ha":694,"x_min":-8,"x_max":707,"o":"m 568 0 l -8 0 l 14 114 l 518 603 l 125 603 l 146 708 l 707 708 l 681 594 l 172 106 l 592 106 l 568 0 m 464 807 l 365 807 l 496 1007 l 651 1007 l 464 807 z "},"Ż":{"ha":772,"x_min":-18,"x_max":838,"o":"m 654 0 l -18 0 l 4 122 l 643 847 l 167 847 l 192 969 l 838 969 l 815 846 l 176 122 l 678 122 l 654 0 m 585 1058 l 463 1058 l 492 1197 l 614 1197 l 585 1058 z "},"ż":{"ha":694,"x_min":-8,"x_max":707,"o":"m 568 0 l -8 0 l 14 114 l 518 603 l 125 603 l 146 708 l 707 708 l 681 594 l 172 106 l 592 106 l 568 0 m 506 817 l 383 817 l 413 956 l 535 956 l 506 817 z "},"Ž":{"ha":772,"x_min":-18,"x_max":838,"o":"m 654 0 l -18 0 l 4 122 l 643 847 l 167 847 l 192 969 l 838 969 l 815 846 l 176 122 l 678 122 l 654 0 m 546 1028 l 426 1028 l 322 1228 l 425 1228 l 496 1092 l 617 1228 l 731 1228 l 546 1028 z "},"ž":{"ha":694,"x_min":-8,"x_max":707,"o":"m 568 0 l -8 0 l 14 114 l 518 603 l 125 603 l 146 708 l 707 708 l 681 594 l 172 106 l 592 106 l 568 0 m 513 807 l 393 807 l 289 1007 l 392 1007 l 463 871 l 583 1007 l 697 1007 l 513 807 z "},"ƒ":{"ha":772,"x_min":22,"x_max":753,"o":"m 233 -79 l 346 478 l 190 478 l 207 575 l 363 575 l 386 682 q 431 831 404 763 q 503 943 457 900 q 628 986 550 986 q 694 981 661 986 q 753 965 726 976 l 725 842 q 690 863 710 854 q 643 872 669 872 q 575 840 600 872 q 538 746 550 807 l 501 575 l 663 575 l 646 478 l 485 478 l 393 -6 q 349 -173 375 -106 q 274 -274 324 -240 q 132 -308 224 -308 q 75 -303 103 -308 q 22 -287 47 -299 l 44 -167 q 84 -186 63 -178 q 131 -194 106 -194 q 199 -173 179 -194 q 233 -79 219 -151 z "},"Ș":{"ha":694,"x_min":24,"x_max":706,"o":"m 24 39 l 68 167 q 167 122 113 139 q 272 106 222 106 q 390 131 343 106 q 459 195 436 156 q 482 278 482 235 q 460 356 482 325 q 406 411 439 388 q 335 456 372 435 q 243 519 285 486 q 176 597 201 551 q 151 710 151 642 q 199 861 151 800 q 320 954 246 922 q 472 986 394 986 q 590 975 532 986 q 706 940 647 964 l 667 817 q 588 851 631 839 q 492 864 544 864 q 354 828 410 864 q 299 714 299 792 q 333 632 299 667 q 433 557 367 597 q 580 442 531 500 q 629 294 629 383 q 610 188 629 243 q 552 87 592 133 q 449 12 513 40 q 293 -17 385 -17 q 172 -6 236 -17 q 24 39 107 6 m 226 -308 l 122 -308 l 204 -108 l 336 -108 l 226 -308 z "},"ș":{"ha":540,"x_min":-6,"x_max":540,"o":"m -6 17 l 19 129 q 99 101 58 114 q 182 89 139 89 q 285 115 239 89 q 331 199 331 140 q 297 271 331 242 q 211 335 263 300 q 119 419 149 376 q 89 517 89 461 q 131 638 89 592 q 234 704 172 683 q 356 725 296 725 q 448 715 401 725 q 540 686 494 706 l 501 583 q 429 610 467 600 q 360 619 392 619 q 267 601 307 619 q 228 533 228 582 q 260 464 228 490 q 336 408 293 438 q 399 362 368 388 q 449 300 429 336 q 469 210 469 264 q 444 103 469 147 q 378 33 419 60 q 291 -5 338 7 q 200 -17 244 -17 q 97 -10 143 -17 q -6 17 51 -4 m 147 -308 l 43 -308 l 125 -108 l 257 -108 l 147 -308 z "},"Ț":{"ha":772,"x_min":128,"x_max":897,"o":"m 388 0 l 247 0 l 429 847 l 128 847 l 154 969 l 897 969 l 871 847 l 569 847 l 388 0 m 257 -308 l 153 -308 l 235 -108 l 367 -108 l 257 -308 z "},"ț":{"ha":540,"x_min":83,"x_max":586,"o":"m 469 107 l 450 -1 q 389 -13 428 -10 q 322 -17 350 -17 q 224 7 261 -17 q 169 67 186 31 q 153 140 153 103 q 158 203 153 164 q 178 307 164 243 l 239 603 l 83 603 l 103 708 l 261 708 l 296 872 l 436 921 l 392 708 l 586 708 l 565 603 l 369 603 l 315 350 q 289 216 294 256 q 283 165 283 176 q 306 108 283 128 q 378 89 328 89 q 425 94 399 89 q 469 107 451 99 m 200 -308 l 96 -308 l 178 -108 l 310 -108 l 200 -308 z "},"ˆ":{"ha":386,"x_min":81,"x_max":489,"o":"m 489 807 l 386 807 l 315 943 l 194 807 l 81 807 l 265 1007 l 385 1007 l 489 807 z "},"ˇ":{"ha":386,"x_min":135,"x_max":543,"o":"m 358 807 l 239 807 l 135 1007 l 238 1007 l 308 871 l 429 1007 l 543 1007 l 358 807 z "},"ˉ":{"ha":386,"x_min":113,"x_max":503,"o":"m 488 854 l 113 854 l 129 935 l 503 935 l 488 854 z "},"˘":{"ha":386,"x_min":114,"x_max":531,"o":"m 467 999 l 531 999 q 454 858 515 906 q 300 810 393 810 q 167 851 219 810 q 114 982 114 893 l 114 999 l 178 999 q 212 917 178 944 q 308 890 246 890 q 467 999 433 890 z "},"˙":{"ha":386,"x_min":232,"x_max":383,"o":"m 354 817 l 232 817 l 261 956 l 383 956 l 354 817 z "},"˚":{"ha":386,"x_min":168,"x_max":447,"o":"m 307 782 q 208 825 247 782 q 168 924 168 868 q 208 1024 168 982 q 307 1065 247 1065 q 406 1024 365 1065 q 447 924 447 983 q 406 824 447 865 q 307 782 365 782 m 307 838 q 366 864 340 838 q 392 924 392 890 q 366 984 392 958 q 307 1010 340 1010 q 248 985 272 1010 q 224 924 224 960 q 248 863 224 889 q 307 838 272 838 z "},"˛":{"ha":386,"x_min":-17,"x_max":254,"o":"m 225 -189 l 254 -212 q 178 -273 214 -254 q 85 -292 143 -292 q -17 -215 -17 -292 q 39 -97 -17 -151 q 183 0 94 -43 l 243 0 q 126 -97 163 -56 q 89 -178 89 -137 q 142 -236 89 -236 q 188 -221 161 -236 q 225 -189 214 -206 z "},"˜":{"ha":386,"x_min":71,"x_max":543,"o":"m 479 969 l 543 969 q 498 852 532 890 q 413 814 464 814 q 339 830 376 814 q 266 862 301 846 q 199 878 231 878 q 153 860 168 878 q 135 814 139 842 l 71 814 q 115 929 82 889 q 201 969 149 969 q 275 953 238 969 q 349 922 313 938 q 417 906 386 906 q 460 924 446 906 q 479 969 475 942 z "},"˝":{"ha":386,"x_min":113,"x_max":629,"o":"m 211 807 l 113 807 l 243 1007 l 399 1007 l 211 807 m 442 807 l 343 807 l 474 1007 l 629 1007 l 442 807 z "},"Δ":{"ha":983,"x_min":-54,"x_max":899,"o":"m 899 0 l -54 0 l 561 969 l 699 969 l 899 0 m 733 122 l 606 818 l 175 122 l 733 122 z "},"Ω":{"ha":1056,"x_min":13,"x_max":1024,"o":"m 906 0 l 542 0 l 572 122 q 724 246 657 168 q 831 417 792 324 q 871 599 871 510 q 808 795 871 726 q 626 864 746 864 q 479 831 547 864 q 360 738 411 797 q 282 603 310 679 q 254 440 254 526 q 288 260 254 344 q 386 122 322 176 l 365 0 l 13 0 l 38 122 l 238 122 q 142 267 176 185 q 108 433 108 349 q 152 653 108 553 q 272 828 196 754 q 444 944 347 903 q 644 986 540 986 q 847 940 763 986 q 978 811 932 893 q 1024 619 1024 729 q 986 433 1024 528 q 884 256 949 338 q 739 122 819 175 l 932 122 l 906 0 z "},"μ":{"ha":849,"x_min":-10,"x_max":825,"o":"m 682 0 l 560 0 l 582 113 l 579 113 q 478 17 540 51 q 331 -17 417 -17 q 240 -9 274 -17 q 183 15 207 -1 l 121 -292 l -10 -292 l 196 708 l 326 708 l 240 292 q 234 253 236 272 q 232 218 232 233 q 267 125 232 161 q 361 89 303 89 q 469 118 424 89 q 546 190 515 147 q 594 275 576 232 q 618 346 613 318 l 694 708 l 825 708 l 697 88 q 689 42 693 68 q 682 0 685 17 z "},"π":{"ha":849,"x_min":67,"x_max":879,"o":"m 753 106 l 735 1 q 690 -10 717 -4 q 635 -17 663 -17 q 533 10 567 -17 q 500 97 500 38 q 502 130 500 107 q 513 189 504 153 l 601 603 l 325 603 l 197 0 l 67 0 l 194 603 l 69 603 l 92 708 l 879 708 l 857 603 l 732 603 l 642 182 q 636 152 636 160 q 636 138 636 144 q 647 101 636 115 q 683 88 657 88 q 715 92 701 88 q 753 106 729 96 z "},"ẞ":{"ha":881,"x_min":40,"x_max":879,"o":"m 283 26 l 328 154 q 413 119 365 132 q 497 106 460 106 q 631 142 579 106 q 682 258 682 178 q 652 355 682 311 q 581 447 622 399 q 506 546 535 500 q 476 644 476 592 q 533 785 476 732 q 678 865 589 839 q 636 869 656 868 q 597 871 617 871 q 411 818 485 871 q 314 653 338 765 l 176 0 l 40 0 l 182 669 q 326 915 218 843 q 608 986 435 986 q 696 983 647 986 q 793 977 744 981 q 879 968 842 974 l 856 853 q 781 839 821 851 q 704 805 740 826 q 646 755 668 783 q 624 690 624 726 q 645 613 624 653 q 701 531 667 574 q 760 458 731 496 q 809 377 789 419 q 829 288 829 335 q 738 61 829 139 q 493 -17 646 -17 q 384 -6 440 -17 q 283 26 328 6 z "},"‐":{"ha":463,"x_min":49,"x_max":436,"o":"m 415 321 l 49 321 l 71 426 l 436 426 l 415 321 z "},"–":{"ha":694,"x_min":-1,"x_max":714,"o":"m 693 325 l -1 325 l 19 422 l 714 422 l 693 325 z "},"—":{"ha":1389,"x_min":-1,"x_max":1408,"o":"m 1388 325 l -1 325 l 19 422 l 1408 422 l 1388 325 z "},"‘":{"ha":386,"x_min":125,"x_max":450,"o":"m 290 629 l 125 629 l 317 969 l 450 969 l 290 629 z "},"’":{"ha":386,"x_min":125,"x_max":450,"o":"m 258 629 l 125 629 l 285 969 l 450 969 l 258 629 z "},"‚":{"ha":386,"x_min":-78,"x_max":247,"o":"m 56 -185 l -78 -185 l 82 156 l 247 156 l 56 -185 z "},"“":{"ha":772,"x_min":182,"x_max":779,"o":"m 347 629 l 182 629 l 374 969 l 507 969 l 347 629 m 619 629 l 454 629 l 646 969 l 779 969 l 619 629 z "},"”":{"ha":772,"x_min":182,"x_max":779,"o":"m 315 629 l 182 629 l 342 969 l 507 969 l 315 629 m 588 629 l 454 629 l 614 969 l 779 969 l 588 629 z "},"„":{"ha":772,"x_min":7,"x_max":604,"o":"m 140 -185 l 7 -185 l 167 156 l 332 156 l 140 -185 m 413 -185 l 279 -185 l 439 156 l 604 156 l 413 -185 z "},"†":{"ha":772,"x_min":146,"x_max":772,"o":"m 375 0 l 253 0 l 388 629 l 146 629 l 167 726 l 408 726 l 461 969 l 583 969 l 531 726 l 772 726 l 751 629 l 510 629 l 375 0 z "},"‡":{"ha":772,"x_min":60,"x_max":776,"o":"m 664 225 l 424 225 l 375 0 l 253 0 l 301 225 l 60 225 l 81 322 l 322 322 l 392 647 l 151 647 l 172 744 l 413 744 l 461 969 l 583 969 l 535 744 l 776 744 l 756 647 l 514 647 l 444 322 l 685 322 l 664 225 z "},"•":{"ha":694,"x_min":133,"x_max":618,"o":"m 375 242 q 253 275 308 242 q 166 363 199 308 q 133 485 133 418 q 166 606 133 551 q 253 694 199 661 q 375 726 308 726 q 497 694 442 726 q 585 607 551 661 q 618 485 618 553 q 585 362 618 417 q 496 274 551 307 q 375 242 440 242 z "},"…":{"ha":1389,"x_min":99,"x_max":1211,"o":"m 254 0 l 99 0 l 131 156 l 286 156 l 254 0 m 717 0 l 561 0 l 593 156 l 749 156 l 717 0 m 1179 0 l 1024 0 l 1056 156 l 1211 156 l 1179 0 z "},"‰":{"ha":1389,"x_min":86,"x_max":1346,"o":"m 183 -31 l 86 -31 l 794 1000 l 892 1000 l 183 -31 m 647 -17 q 518 33 567 -17 q 469 164 469 82 q 497 299 469 238 q 578 399 525 361 q 706 436 631 436 q 878 250 878 436 q 853 119 878 181 q 777 21 828 58 q 647 -17 726 -17 m 658 72 q 720 102 697 72 q 753 175 743 132 q 764 256 764 218 q 749 322 764 296 q 690 347 733 347 q 636 328 657 347 q 603 278 615 308 q 588 217 592 249 q 583 161 583 185 q 599 97 583 121 q 658 72 614 72 m 1115 -17 q 986 33 1035 -17 q 938 164 938 82 q 965 299 938 238 q 1046 399 993 361 q 1174 436 1099 436 q 1346 250 1346 436 q 1321 119 1346 181 q 1245 21 1296 58 q 1115 -17 1194 -17 m 1126 72 q 1188 102 1165 72 q 1222 175 1211 132 q 1232 256 1232 218 q 1217 322 1232 296 q 1158 347 1201 347 q 1104 328 1125 347 q 1072 278 1083 308 q 1056 217 1060 249 q 1051 161 1051 185 q 1067 97 1051 121 q 1126 72 1082 72 m 274 533 q 144 583 193 533 q 96 714 96 632 q 124 849 96 788 q 204 949 151 911 q 332 986 257 986 q 504 800 504 986 q 479 669 504 731 q 403 571 454 608 q 274 533 353 533 m 285 622 q 347 652 324 622 q 380 725 369 682 q 390 806 390 768 q 375 872 390 846 q 317 897 360 897 q 263 878 283 897 q 230 828 242 858 q 214 767 218 799 q 210 711 210 735 q 225 647 210 671 q 285 622 240 622 z "},"‹":{"ha":463,"x_min":43,"x_max":442,"o":"m 383 93 l 249 93 l 43 374 l 297 654 l 442 654 l 181 374 l 383 93 z "},"›":{"ha":463,"x_min":43,"x_max":442,"o":"m 188 93 l 43 93 l 304 374 l 101 654 l 236 654 l 442 374 l 188 93 z "},"⁄":{"ha":232,"x_min":-235,"x_max":467,"o":"m -137 -31 l -235 -31 l 369 1000 l 467 1000 l -137 -31 z "},"€":{"ha":772,"x_min":0,"x_max":926,"o":"m 725 135 l 708 14 q 610 -10 664 -3 q 508 -17 557 -17 q 230 83 328 -17 q 132 351 132 183 l 0 351 l 33 426 l 138 426 q 148 485 142 456 q 163 543 154 515 l 40 543 l 74 618 l 189 618 q 320 814 239 732 q 505 941 401 896 q 722 986 608 986 q 826 978 774 986 q 926 950 879 969 l 875 835 q 797 863 844 853 q 710 872 749 872 q 499 806 596 872 q 342 618 403 740 l 783 618 l 750 543 l 310 543 q 285 426 292 488 l 700 426 l 668 351 l 286 351 q 362 165 293 231 q 544 100 431 100 q 637 108 589 100 q 725 135 685 117 z "},"₹":{"ha":771,"x_min":100,"x_max":869,"o":"m 550 0 l 392 0 l 100 435 l 124 547 l 275 547 q 448 575 381 547 q 533 683 515 603 l 151 683 l 169 764 l 542 764 q 492 863 538 836 q 374 889 446 889 l 197 889 l 214 969 l 869 969 l 853 889 l 635 889 q 681 764 679 839 l 826 764 l 808 683 l 675 683 q 556 499 653 554 q 310 444 460 444 l 239 444 l 550 0 z "},"₺":{"ha":772,"x_min":39,"x_max":749,"o":"m 610 503 l 749 503 q 658 238 715 353 q 504 56 600 122 q 258 -10 408 -10 q 174 -7 211 -10 q 86 0 136 -4 l 172 411 l 39 363 l 58 454 l 192 503 l 219 631 l 86 582 l 106 674 l 239 722 l 292 969 l 429 969 l 388 776 l 664 878 l 644 786 l 368 685 l 342 557 l 618 658 l 599 567 l 322 465 l 246 104 q 288 101 268 101 q 419 134 365 101 q 510 224 474 167 q 569 353 546 281 q 610 503 593 425 z "},"₼":{"ha":1100,"x_min":1,"x_max":1028,"o":"m 989 0 l 847 0 l 860 60 q 874 140 867 94 q 885 235 881 186 q 890 324 890 283 q 883 442 890 382 q 858 553 876 501 q 803 640 839 606 q 708 682 767 674 l 583 97 l 444 97 l 571 682 q 447 629 504 674 q 342 517 389 585 q 258 371 294 450 q 197 213 222 292 q 157 67 171 133 l 143 0 l 1 0 l 19 89 q 74 279 39 182 q 158 465 108 376 q 274 626 208 554 q 419 744 339 699 q 593 796 499 789 l 631 969 l 769 969 l 732 796 q 871 743 814 788 q 963 631 928 699 q 1013 483 997 564 q 1028 319 1028 403 q 1021 192 1028 263 q 1003 67 1014 122 l 989 0 z "},"₽":{"ha":772,"x_min":28,"x_max":839,"o":"m 526 199 l 282 199 l 239 0 l 101 0 l 144 199 l 28 199 l 51 307 l 168 307 l 189 401 l 71 401 l 94 510 l 213 510 l 313 969 l 526 969 q 685 946 614 969 q 797 868 756 922 q 839 721 839 814 q 786 540 839 611 q 644 435 733 469 q 442 401 554 401 l 326 401 l 306 307 l 550 307 l 526 199 m 350 510 l 425 510 q 628 558 556 510 q 700 708 700 607 q 648 822 700 789 q 514 856 596 856 l 424 856 l 350 510 z "},"ℓ":{"ha":694,"x_min":54,"x_max":647,"o":"m 472 121 l 501 56 q 406 1 454 21 q 303 -19 358 -19 q 191 16 232 -19 q 150 119 150 51 q 153 153 150 135 q 161 197 156 171 l 183 306 l 88 224 l 54 289 l 204 404 l 281 763 q 369 945 307 889 q 508 1001 432 1001 q 608 961 569 1001 q 647 857 647 921 q 558 626 647 749 q 307 379 469 503 l 282 268 q 266 188 272 221 q 260 139 260 154 q 279 82 260 101 q 332 63 299 63 q 394 75 361 63 q 472 121 426 88 m 393 786 l 328 481 q 493 676 432 578 q 554 850 554 774 q 540 903 554 881 q 496 926 525 926 q 393 786 422 926 z "},"™":{"ha":1375,"x_min":124,"x_max":1349,"o":"m 407 392 l 301 392 l 301 872 l 124 872 l 124 969 l 585 969 l 585 872 l 407 872 l 407 392 m 1349 392 l 1243 392 l 1243 833 l 1240 833 l 1078 392 l 992 392 l 829 833 l 826 833 l 826 392 l 721 392 l 721 969 l 885 969 l 1036 579 l 1185 969 l 1349 969 l 1349 392 z "},"Ω":{"ha":1056,"x_min":13,"x_max":1024,"o":"m 906 0 l 542 0 l 572 122 q 724 246 657 168 q 831 417 792 324 q 871 599 871 510 q 808 795 871 726 q 626 864 746 864 q 479 831 547 864 q 360 738 411 797 q 282 603 310 679 q 254 440 254 526 q 288 260 254 344 q 386 122 322 176 l 365 0 l 13 0 l 38 122 l 238 122 q 142 267 176 185 q 108 433 108 349 q 152 653 108 553 q 272 828 196 754 q 444 944 347 903 q 644 986 540 986 q 847 940 763 986 q 978 811 932 893 q 1024 619 1024 729 q 986 433 1024 528 q 884 256 949 338 q 739 122 819 175 l 932 122 l 906 0 z "},"℮":{"ha":833,"x_min":61,"x_max":779,"o":"m 688 193 l 736 164 q 597 19 672 61 q 419 -24 522 -24 q 231 27 313 -24 q 106 165 150 78 q 61 360 61 251 q 106 558 61 471 q 232 694 151 644 q 419 743 313 743 q 605 696 524 743 q 733 563 686 649 q 779 360 779 476 l 218 360 l 218 108 q 419 26 300 26 q 573 67 510 26 q 688 193 636 108 m 622 410 l 622 611 q 417 694 535 694 q 311 674 361 694 q 218 611 261 654 l 218 410 l 622 410 z "},"∂":{"ha":768,"x_min":40,"x_max":767,"o":"m 617 540 l 618 540 q 628 581 622 551 q 640 647 635 610 q 646 721 646 685 q 597 912 646 840 q 460 983 547 983 q 264 917 363 983 l 243 1008 q 368 1067 304 1049 q 496 1086 432 1086 q 693 997 619 1086 q 767 742 767 907 q 753 601 767 681 q 713 438 740 522 q 643 273 685 353 q 544 129 601 193 q 415 27 488 65 q 254 -11 343 -11 q 97 52 154 -11 q 40 222 40 115 q 69 382 40 303 q 151 526 99 461 q 272 628 203 590 q 422 667 342 667 q 542 632 490 667 q 617 540 594 597 m 581 425 q 528 525 571 483 q 421 567 486 567 q 326 538 372 567 q 244 463 281 510 q 185 358 207 415 q 164 242 164 300 q 197 133 164 174 q 288 92 231 92 q 400 135 344 92 q 503 253 456 178 q 581 425 550 329 z "},"∆":{"ha":983,"x_min":-54,"x_max":899,"o":"m 899 0 l -54 0 l 561 969 l 699 969 l 899 0 m 733 122 l 606 818 l 175 122 l 733 122 z "},"∏":{"ha":999,"x_min":94,"x_max":903,"o":"m 903 -297 l 794 -297 l 794 992 l 203 992 l 203 -297 l 94 -297 l 94 1092 l 903 1092 l 903 -297 z "},"∑":{"ha":854,"x_min":35,"x_max":818,"o":"m 818 -297 l 35 -297 l 35 -208 l 482 403 l 54 1003 l 54 1092 l 801 1092 l 801 992 l 194 992 l 613 403 l 169 -197 l 818 -197 l 818 -297 z "},"−":{"ha":833,"x_min":86,"x_max":789,"o":"m 789 290 l 86 290 l 86 413 l 789 413 l 789 290 z "},"∕":{"ha":232,"x_min":-235,"x_max":467,"o":"m -137 -31 l -235 -31 l 369 1000 l 467 1000 l -137 -31 z "},"∙":{"ha":386,"x_min":133,"x_max":297,"o":"m 215 339 q 157 363 181 339 q 133 421 133 386 q 157 479 133 456 q 215 503 181 503 q 273 480 249 503 q 297 421 297 457 q 274 363 297 386 q 215 339 250 339 z "},"√":{"ha":700,"x_min":-53,"x_max":674,"o":"m 381 -297 l 276 -297 l 51 167 l -14 136 l -53 219 l 103 292 l 313 -149 l 568 1092 l 674 1092 l 381 -297 z "},"∞":{"ha":1054,"x_min":14,"x_max":953,"o":"m 485 288 l 418 228 q 324 163 372 188 q 219 138 276 138 q 70 198 126 138 q 14 350 14 258 q 69 506 14 444 q 215 567 125 567 q 342 530 281 567 q 485 408 404 493 q 591 508 546 474 q 674 556 636 543 q 747 569 711 569 q 895 509 838 569 q 953 354 953 449 q 896 197 953 257 q 749 136 839 136 q 622 173 686 136 q 485 288 558 210 m 543 349 q 658 256 613 282 q 751 231 704 231 q 833 264 803 231 q 863 350 863 297 q 831 440 863 406 q 747 475 800 475 q 642 435 692 475 q 543 349 593 394 m 424 349 q 305 444 354 414 q 214 474 256 474 q 134 438 164 474 q 104 350 104 401 q 136 263 104 294 q 219 231 168 231 q 424 349 306 231 z "},"∫":{"ha":769,"x_min":136,"x_max":583,"o":"m 299 -68 l 299 832 q 338 1022 299 953 q 471 1092 378 1092 q 522 1084 496 1092 q 565 1060 547 1076 q 583 1014 583 1043 q 566 974 583 988 q 525 961 549 961 q 490 976 503 961 q 468 1006 476 992 q 449 1021 460 1021 q 416 988 428 1021 q 404 885 404 956 q 405 852 404 875 q 406 806 406 829 q 407 771 407 783 l 407 -7 q 388 -168 407 -110 q 342 -253 369 -226 q 285 -288 314 -281 q 236 -296 257 -296 q 163 -274 189 -296 q 136 -224 136 -253 q 152 -188 136 -203 q 188 -174 168 -174 q 222 -188 210 -174 q 242 -217 233 -203 q 260 -232 250 -232 q 299 -68 299 -232 z "},"≈":{"ha":824,"x_min":7,"x_max":740,"o":"m 671 576 l 740 576 q 683 427 731 481 q 560 374 636 374 q 464 388 515 374 q 360 423 413 403 q 263 458 308 443 q 183 472 217 472 q 113 439 139 472 q 79 365 86 406 l 7 365 q 65 517 18 463 q 186 571 113 571 q 280 556 231 571 q 381 522 329 542 q 480 487 432 501 q 567 472 528 472 q 671 576 650 472 m 671 326 l 740 326 q 683 177 731 231 q 560 124 636 124 q 464 138 515 124 q 360 173 413 153 q 263 208 308 193 q 183 222 217 222 q 113 189 139 222 q 79 115 86 156 l 7 115 q 65 267 18 213 q 186 321 113 321 q 280 306 231 321 q 381 272 329 292 q 480 237 432 251 q 567 222 528 222 q 671 326 650 222 z "},"≠":{"ha":824,"x_min":21,"x_max":725,"o":"m 725 158 l 326 158 l 221 -44 l 135 0 l 217 158 l 21 158 l 21 258 l 268 258 l 361 435 l 21 435 l 21 533 l 414 533 l 521 739 l 608 694 l 522 533 l 725 533 l 725 435 l 471 435 l 378 258 l 725 258 l 725 158 z "},"≤":{"ha":824,"x_min":21,"x_max":725,"o":"m 725 114 l 21 369 l 21 474 l 725 733 l 725 625 l 158 422 l 725 221 l 725 114 m 725 -42 l 21 -42 l 21 58 l 725 58 l 725 -42 z "},"≥":{"ha":824,"x_min":21,"x_max":725,"o":"m 725 369 l 21 114 l 21 221 l 588 422 l 21 625 l 21 733 l 725 474 l 725 369 m 725 -42 l 21 -42 l 21 58 l 725 58 l 725 -42 z "},"◊":{"ha":824,"x_min":124,"x_max":700,"o":"m 461 -49 l 361 -49 l 124 494 l 361 1038 l 461 1038 l 700 494 l 461 -49 m 411 57 l 594 494 l 411 932 l 229 494 l 411 57 z "},"":{"ha":386,"x_min":186,"x_max":419,"o":"m 419 1028 l 326 1028 l 186 1228 l 326 1228 l 419 1028 z "},"":{"ha":386,"x_min":261,"x_max":547,"o":"m 360 1028 l 261 1028 l 392 1228 l 547 1228 l 360 1028 z "},"":{"ha":386,"x_min":119,"x_max":528,"o":"m 528 1028 l 425 1028 l 354 1164 l 233 1028 l 119 1028 l 304 1228 l 424 1228 l 528 1028 z "},"":{"ha":386,"x_min":179,"x_max":588,"o":"m 403 1028 l 283 1028 l 179 1228 l 282 1228 l 353 1092 l 474 1228 l 588 1228 l 403 1028 z "},"":{"ha":386,"x_min":119,"x_max":592,"o":"m 528 1203 l 592 1203 q 549 1088 582 1129 q 461 1047 515 1047 q 386 1063 424 1047 q 313 1095 349 1079 q 242 1111 276 1111 q 206 1097 222 1111 q 183 1047 189 1083 l 119 1047 q 163 1162 129 1121 q 250 1203 196 1203 q 325 1187 288 1203 q 399 1155 363 1171 q 471 1139 436 1139 q 508 1155 493 1139 q 528 1203 524 1171 z "},"":{"ha":386,"x_min":160,"x_max":540,"o":"m 282 1058 l 160 1058 l 189 1197 l 311 1197 l 282 1058 m 511 1058 l 389 1058 l 418 1197 l 540 1197 l 511 1058 z "},"":{"ha":386,"x_min":161,"x_max":551,"o":"m 536 1088 l 161 1088 l 178 1168 l 551 1168 l 536 1088 z "},"":{"ha":386,"x_min":160,"x_max":576,"o":"m 513 1217 l 576 1217 q 501 1076 561 1125 q 346 1028 440 1028 q 215 1067 269 1028 q 160 1199 160 1106 l 160 1217 l 224 1217 q 244 1149 224 1172 q 293 1117 264 1125 q 351 1108 322 1108 q 453 1134 413 1108 q 513 1217 494 1160 z "},"":{"ha":386,"x_min":217,"x_max":496,"o":"m 356 1013 q 256 1054 296 1013 q 217 1154 217 1096 q 258 1256 217 1215 q 356 1296 299 1296 q 455 1255 414 1296 q 496 1154 496 1214 q 455 1054 496 1096 q 356 1013 414 1013 m 356 1068 q 415 1094 389 1068 q 440 1154 440 1121 q 415 1213 440 1186 q 354 1240 390 1240 q 298 1216 324 1240 q 272 1154 272 1192 q 297 1094 272 1119 q 356 1068 321 1068 z "},"":{"ha":386,"x_min":157,"x_max":674,"o":"m 256 1028 l 157 1028 l 288 1228 l 443 1228 l 256 1028 m 486 1028 l 388 1028 l 518 1228 l 674 1228 l 486 1028 z "},"":{"ha":386,"x_min":283,"x_max":435,"o":"m 406 1058 l 283 1058 l 313 1197 l 435 1197 l 406 1058 z "},"":{"ha":386,"x_min":97,"x_max":311,"o":"m 189 739 l 97 739 l 183 1007 l 311 1007 l 189 739 z "},"":{"ha":386,"x_min":-35,"x_max":179,"o":"m 69 -308 l -35 -308 l 47 -108 l 179 -108 l 69 -308 z "},"":{"ha":386,"x_min":193,"x_max":403,"o":"m 321 807 l 193 807 l 303 1007 l 403 1007 l 321 807 z "},"":{"ha":711,"x_min":0,"x_max":711,"o":"m 711 0 l 0 0 l 0 997 l 711 997 l 711 0 m 642 69 l 642 926 l 69 926 l 69 69 l 642 69 m 386 163 l 308 163 l 308 256 l 386 256 l 386 163 m 376 325 l 313 325 q 311 338 313 325 q 310 367 310 350 q 323 449 310 415 q 383 535 336 483 q 438 591 414 567 q 461 658 461 615 q 429 743 461 710 q 356 776 397 776 q 280 744 310 776 q 242 644 250 713 l 172 656 q 230 797 181 749 q 360 846 279 846 q 483 796 433 846 q 532 664 532 746 q 512 576 532 613 q 443 496 492 540 q 403 455 417 471 q 384 422 389 439 q 378 375 379 404 l 376 325 z "},"ﬁ":{"ha":926,"x_min":83,"x_max":950,"o":"m 253 0 l 122 0 l 253 603 l 83 603 l 103 708 l 275 708 l 297 801 q 345 929 314 871 q 431 1023 376 988 q 574 1058 486 1058 q 674 1043 621 1058 l 647 939 q 617 949 636 944 q 583 953 597 953 q 499 928 531 953 q 449 864 467 904 q 421 774 432 824 l 407 708 l 594 708 l 574 603 l 383 603 l 253 0 m 919 867 l 772 867 l 803 1014 l 950 1014 l 919 867 m 726 0 l 596 0 l 746 708 l 876 708 l 726 0 z "},"ﬂ":{"ha":926,"x_min":83,"x_max":949,"o":"m 253 0 l 122 0 l 253 603 l 83 603 l 103 708 l 275 708 l 297 801 q 345 929 314 871 q 431 1023 376 988 q 574 1058 486 1058 q 674 1043 621 1058 l 647 939 q 617 949 636 944 q 583 953 597 953 q 499 928 531 953 q 449 864 467 904 q 421 774 432 824 l 407 708 l 594 708 l 574 603 l 383 603 l 253 0 m 728 0 l 597 0 l 818 1042 l 949 1042 l 728 0 z "},"Ĉ":{"ha":849,"x_min":103,"x_max":915,"o":"m 754 139 l 736 10 q 558 -17 653 -17 q 321 33 424 -17 q 160 181 218 82 q 103 426 103 279 q 124 575 103 497 q 188 726 144 653 q 300 858 232 799 q 464 951 368 917 q 685 986 560 986 q 915 942 806 986 l 875 822 q 784 853 832 842 q 688 864 736 864 q 448 803 546 864 q 300 641 350 742 q 250 419 250 540 q 294 242 250 313 q 413 139 338 172 q 581 106 488 106 q 754 139 674 106 m 857 1028 l 754 1028 l 683 1164 l 563 1028 l 449 1028 l 633 1228 l 753 1228 l 857 1028 z "},"ĉ":{"ha":617,"x_min":65,"x_max":656,"o":"m 539 121 l 515 0 q 449 -13 483 -10 q 379 -17 414 -17 q 149 61 232 -17 q 65 281 65 139 q 90 448 65 368 q 165 590 115 528 q 286 689 214 653 q 453 725 358 725 q 551 718 507 725 q 635 697 596 711 l 603 585 q 536 612 568 604 q 475 619 504 619 q 331 575 392 619 q 238 458 271 531 q 204 299 204 385 q 253 145 204 201 q 396 89 301 89 q 468 99 429 89 q 539 121 507 108 m 656 807 l 553 807 l 482 943 l 361 807 l 247 807 l 432 1007 l 551 1007 l 656 807 z "},"Ċ":{"ha":849,"x_min":103,"x_max":915,"o":"m 754 139 l 736 10 q 558 -17 653 -17 q 321 33 424 -17 q 160 181 218 82 q 103 426 103 279 q 124 575 103 497 q 188 726 144 653 q 300 858 232 799 q 464 951 368 917 q 685 986 560 986 q 915 942 806 986 l 875 822 q 784 853 832 842 q 688 864 736 864 q 448 803 546 864 q 300 641 350 742 q 250 419 250 540 q 294 242 250 313 q 413 139 338 172 q 581 106 488 106 q 754 139 674 106 m 735 1058 l 613 1058 l 642 1197 l 764 1197 l 735 1058 z "},"ċ":{"ha":617,"x_min":65,"x_max":635,"o":"m 539 121 l 515 0 q 449 -13 483 -10 q 379 -17 414 -17 q 149 61 232 -17 q 65 281 65 139 q 90 448 65 368 q 165 590 115 528 q 286 689 214 653 q 453 725 358 725 q 551 718 507 725 q 635 697 596 711 l 603 585 q 536 612 568 604 q 475 619 504 619 q 331 575 392 619 q 238 458 271 531 q 204 299 204 385 q 253 145 204 201 q 396 89 301 89 q 468 99 429 89 q 539 121 507 108 m 521 817 l 399 817 l 428 956 l 550 956 l 521 817 z "},"Ĕ":{"ha":772,"x_min":58,"x_max":797,"o":"m 606 0 l 58 0 l 271 969 l 797 969 l 769 847 l 386 847 l 324 564 l 683 564 l 660 442 l 296 442 l 225 122 l 632 122 l 606 0 m 710 1217 l 774 1217 q 698 1076 758 1125 q 543 1028 638 1028 q 412 1067 467 1028 q 357 1199 357 1106 l 357 1217 l 421 1217 q 441 1149 421 1172 q 490 1117 461 1125 q 549 1108 519 1108 q 651 1134 610 1108 q 710 1217 692 1160 z "},"ĕ":{"ha":772,"x_min":65,"x_max":724,"o":"m 622 132 l 601 13 q 499 -8 551 0 q 392 -17 446 -17 q 65 301 65 -17 q 90 447 65 372 q 163 584 114 521 q 285 686 213 647 q 456 725 358 725 q 649 653 579 725 q 719 454 719 582 q 716 388 719 418 q 707 325 713 357 l 208 325 q 204 281 204 303 q 257 136 204 183 q 422 89 310 89 q 522 101 471 89 q 622 132 574 113 m 222 422 l 585 422 q 589 476 589 454 q 552 578 589 536 q 438 619 515 619 q 308 566 368 619 q 222 422 247 513 m 660 999 l 724 999 q 647 858 708 906 q 493 810 586 810 q 360 851 413 810 q 307 982 307 893 l 307 999 l 371 999 q 405 917 371 944 q 501 890 439 890 q 660 999 626 890 z "},"Ĝ":{"ha":1003,"x_min":103,"x_max":982,"o":"m 696 118 l 760 417 l 557 417 l 585 531 l 922 531 l 810 13 q 682 -10 742 -3 q 560 -17 622 -17 q 223 100 343 -17 q 103 426 103 217 q 124 578 103 500 q 189 728 144 656 q 302 860 233 801 q 467 952 371 918 q 686 986 563 986 q 840 973 767 986 q 982 931 913 960 l 940 811 q 826 849 890 835 q 689 864 761 864 q 495 827 578 864 q 358 727 413 790 q 277 584 304 664 q 250 419 250 504 q 338 189 250 272 q 579 106 426 106 q 642 109 607 106 q 696 118 678 113 m 868 1028 l 765 1028 l 694 1164 l 574 1028 l 460 1028 l 644 1228 l 764 1228 l 868 1028 z "},"ĝ":{"ha":849,"x_min":32,"x_max":813,"o":"m 539 21 l 553 81 l 550 81 q 462 17 514 35 q 340 0 410 0 q 218 31 279 0 q 116 126 157 63 q 75 285 75 189 q 119 508 75 408 q 242 666 163 607 q 431 725 322 725 q 575 688 513 725 q 664 583 638 651 l 667 583 l 692 708 l 813 708 l 650 -51 q 594 -169 638 -110 q 470 -269 550 -229 q 269 -308 390 -308 q 195 -302 239 -308 q 108 -285 151 -296 q 32 -257 65 -274 l 61 -140 q 288 -203 182 -203 q 401 -181 356 -203 q 474 -124 446 -158 q 517 -50 501 -89 q 539 21 532 -11 m 372 106 q 492 141 436 106 q 581 247 547 176 q 615 425 615 318 q 571 562 615 504 q 438 619 526 619 q 340 588 382 619 q 270 507 299 557 q 228 400 242 457 q 214 290 214 343 q 255 160 214 215 q 372 106 296 106 m 697 807 l 594 807 l 524 943 l 403 807 l 289 807 l 474 1007 l 593 1007 l 697 807 z "},"Ġ":{"ha":1003,"x_min":103,"x_max":982,"o":"m 696 118 l 760 417 l 557 417 l 585 531 l 922 531 l 810 13 q 682 -10 742 -3 q 560 -17 622 -17 q 223 100 343 -17 q 103 426 103 217 q 124 578 103 500 q 189 728 144 656 q 302 860 233 801 q 467 952 371 918 q 686 986 563 986 q 840 973 767 986 q 982 931 913 960 l 940 811 q 826 849 890 835 q 689 864 761 864 q 495 827 578 864 q 358 727 413 790 q 277 584 304 664 q 250 419 250 504 q 338 189 250 272 q 579 106 426 106 q 642 109 607 106 q 696 118 678 113 m 746 1058 l 624 1058 l 653 1197 l 775 1197 l 746 1058 z "},"ġ":{"ha":849,"x_min":32,"x_max":813,"o":"m 539 21 l 553 81 l 550 81 q 462 17 514 35 q 340 0 410 0 q 218 31 279 0 q 116 126 157 63 q 75 285 75 189 q 119 508 75 408 q 242 666 163 607 q 431 725 322 725 q 575 688 513 725 q 664 583 638 651 l 667 583 l 692 708 l 813 708 l 650 -51 q 594 -169 638 -110 q 470 -269 550 -229 q 269 -308 390 -308 q 195 -302 239 -308 q 108 -285 151 -296 q 32 -257 65 -274 l 61 -140 q 288 -203 182 -203 q 401 -181 356 -203 q 474 -124 446 -158 q 517 -50 501 -89 q 539 21 532 -11 m 372 106 q 492 141 436 106 q 581 247 547 176 q 615 425 615 318 q 571 562 615 504 q 438 619 526 619 q 340 588 382 619 q 270 507 299 557 q 228 400 242 457 q 214 290 214 343 q 255 160 214 215 q 372 106 296 106 m 563 817 l 440 817 l 469 956 l 592 956 l 563 817 z "},"Ĥ":{"ha":1003,"x_min":64,"x_max":1008,"o":"m 804 0 l 663 0 l 758 442 l 299 442 l 206 0 l 64 0 l 268 969 l 408 969 l 324 564 l 785 564 l 872 969 l 1008 969 l 804 0 m 840 1028 l 738 1028 l 667 1164 l 546 1028 l 432 1028 l 617 1228 l 736 1228 l 840 1028 z "},"ĥ":{"ha":849,"x_min":49,"x_max":782,"o":"m 678 0 l 547 0 l 631 403 q 640 459 638 439 q 642 490 642 479 q 606 583 642 547 q 513 619 571 619 q 409 592 454 619 q 332 524 364 565 q 281 435 300 482 q 253 351 261 389 l 179 0 l 49 0 l 267 1042 l 397 1042 l 310 619 l 313 619 q 408 699 349 672 q 536 725 468 725 q 707 669 642 725 q 772 503 772 614 q 766 431 772 468 q 756 374 760 394 l 678 0 m 782 1096 l 679 1096 l 608 1232 l 488 1096 l 374 1096 l 558 1296 l 678 1296 l 782 1096 z "},"Ħ":{"ha":1003,"x_min":64,"x_max":1063,"o":"m 804 0 l 663 0 l 754 421 l 294 421 l 206 0 l 64 0 l 210 690 l 107 690 l 124 775 l 228 775 l 268 969 l 408 969 l 368 775 l 829 775 l 872 969 l 1008 969 l 967 775 l 1063 775 l 1047 690 l 950 690 l 804 0 m 778 532 l 813 690 l 350 690 l 318 532 l 778 532 z "},"ħ":{"ha":849,"x_min":49,"x_max":772,"o":"m 678 0 l 547 0 l 631 403 q 640 459 638 439 q 642 490 642 479 q 606 583 642 547 q 513 619 571 619 q 409 592 454 619 q 332 524 364 565 q 281 435 300 482 q 253 351 261 389 l 179 0 l 49 0 l 224 840 l 121 840 l 139 925 l 242 925 l 267 1042 l 397 1042 l 372 925 l 636 925 l 618 840 l 354 840 l 310 619 l 313 619 q 408 699 349 672 q 536 725 468 725 q 707 669 642 725 q 772 503 772 614 q 766 431 772 468 q 756 374 760 394 l 678 0 z "},"Ĩ":{"ha":386,"x_min":53,"x_max":592,"o":"m 193 0 l 53 0 l 261 969 l 401 969 l 193 0 m 528 1203 l 592 1203 q 549 1088 582 1129 q 461 1047 515 1047 q 386 1063 424 1047 q 313 1095 349 1079 q 242 1111 276 1111 q 206 1097 222 1111 q 183 1047 189 1083 l 119 1047 q 163 1162 129 1121 q 250 1203 196 1203 q 325 1187 288 1203 q 399 1155 363 1171 q 471 1139 436 1139 q 508 1155 493 1139 q 528 1203 524 1171 z "},"ĩ":{"ha":386,"x_min":57,"x_max":535,"o":"m 188 0 l 57 0 l 207 708 l 338 708 l 188 0 m 471 969 l 535 969 q 490 852 524 890 q 404 814 456 814 q 331 830 368 814 q 258 862 293 846 q 190 878 222 878 q 145 860 160 878 q 126 814 131 842 l 63 814 q 107 929 74 889 q 193 969 140 969 q 267 953 229 969 q 341 922 304 938 q 408 906 378 906 q 452 924 438 906 q 471 969 467 942 z "},"Ĳ":{"ha":893,"x_min":53,"x_max":906,"o":"m 193 0 l 53 0 l 261 969 l 401 969 l 193 0 m 618 292 l 768 969 l 906 969 l 743 233 q 683 83 722 138 q 583 6 644 29 q 433 -17 522 -17 q 373 -9 408 -17 q 314 7 338 -1 l 339 133 q 385 113 361 119 q 444 106 410 106 q 563 158 526 106 q 618 292 600 210 z "},"ĳ":{"ha":749,"x_min":57,"x_max":774,"o":"m 381 867 l 233 867 l 264 1014 l 411 1014 l 381 867 m 188 0 l 57 0 l 207 708 l 338 708 l 188 0 m 743 867 l 596 867 l 626 1014 l 774 1014 l 743 867 m 210 -283 l 233 -181 q 292 -194 261 -194 q 367 -160 342 -194 q 410 -43 392 -126 l 569 708 l 700 708 l 529 -97 q 456 -255 507 -201 q 310 -308 404 -308 q 254 -299 288 -308 q 210 -283 221 -289 z "},"Ĵ":{"ha":540,"x_min":-39,"x_max":681,"o":"m 265 292 l 415 969 l 553 969 l 390 233 q 331 83 369 138 q 231 6 292 29 q 81 -17 169 -17 q 20 -9 56 -17 q -39 7 -15 -1 l -14 133 q 33 113 8 119 q 92 106 57 106 q 210 158 174 106 q 265 292 247 210 m 681 1028 l 578 1028 l 507 1164 l 386 1028 l 272 1028 l 457 1228 l 576 1228 l 681 1028 z "},"ĵ":{"ha":386,"x_min":-153,"x_max":486,"o":"m -153 -283 l -129 -181 q -71 -194 -101 -194 q 4 -160 -21 -194 q 47 -43 29 -126 l 207 708 l 338 708 l 167 -97 q 93 -255 144 -201 q -53 -308 42 -308 q -108 -299 -75 -308 q -153 -283 -142 -289 m 486 807 l 383 807 l 313 943 l 192 807 l 78 807 l 263 1007 l 382 1007 l 486 807 z "},"Ŀ":{"ha":694,"x_min":53,"x_max":622,"o":"m 597 0 l 53 0 l 263 969 l 403 969 l 219 122 l 622 122 l 597 0 m 554 486 l 432 486 l 461 625 l 583 625 l 554 486 z "},"ŀ":{"ha":550,"x_min":57,"x_max":551,"o":"m 188 0 l 57 0 l 278 1042 l 408 1042 l 188 0 m 522 488 l 400 488 l 429 626 l 551 626 l 522 488 z "},"ŉ":{"ha":946,"x_min":43,"x_max":869,"o":"m 163 671 l 43 671 l 165 969 l 321 969 l 163 671 m 775 0 l 644 0 l 728 404 q 737 460 735 440 q 739 490 739 479 q 703 583 739 547 q 610 619 668 619 q 485 579 539 619 q 398 477 432 539 q 350 350 364 415 l 276 0 l 146 0 l 268 593 q 289 708 286 686 l 411 708 l 389 596 l 392 596 q 493 692 431 658 q 633 725 556 725 q 804 669 739 725 q 869 503 869 614 q 864 434 869 469 q 853 374 858 399 l 775 0 z "},"Ŏ":{"ha":1081,"x_min":103,"x_max":1043,"o":"m 510 -17 q 206 88 310 -17 q 103 394 103 193 q 124 557 103 474 q 190 717 146 640 q 299 854 233 793 q 453 951 365 915 q 650 986 540 986 q 939 883 835 986 q 1043 592 1043 779 q 1008 367 1043 475 q 906 172 974 258 q 740 34 839 85 q 510 -17 640 -17 m 515 106 q 673 147 603 106 q 793 258 743 189 q 869 409 843 326 q 896 575 896 492 q 833 790 896 715 q 646 864 769 864 q 484 826 557 864 q 359 721 411 788 q 278 569 307 654 q 250 390 250 483 q 315 185 250 264 q 515 106 381 106 m 853 1217 l 917 1217 q 841 1076 901 1125 q 686 1028 781 1028 q 555 1067 610 1028 q 500 1199 500 1106 l 500 1217 l 564 1217 q 584 1149 564 1172 q 633 1117 604 1125 q 692 1108 663 1108 q 794 1134 753 1108 q 853 1217 835 1160 z "},"ŏ":{"ha":849,"x_min":65,"x_max":783,"o":"m 388 -17 q 150 66 235 -17 q 65 299 65 149 q 113 515 65 418 q 250 668 160 611 q 469 725 340 725 q 699 642 614 725 q 783 415 783 558 q 736 194 783 292 q 600 40 689 96 q 388 -17 511 -17 m 386 89 q 489 117 442 89 q 571 192 536 144 q 625 297 606 239 q 644 415 644 356 q 623 517 644 471 q 561 592 601 564 q 463 619 521 619 q 352 590 400 619 q 272 513 304 561 q 222 406 239 464 q 204 289 204 347 q 251 144 204 200 q 386 89 297 89 m 679 999 l 743 999 q 667 858 728 906 q 513 810 606 810 q 379 851 432 810 q 326 982 326 893 l 326 999 l 390 999 q 424 917 390 944 q 521 890 458 890 q 679 999 646 890 z "},"Ŝ":{"ha":694,"x_min":24,"x_max":706,"o":"m 24 39 l 68 167 q 167 122 113 139 q 272 106 222 106 q 390 131 343 106 q 459 195 436 156 q 482 278 482 235 q 460 356 482 325 q 406 411 439 388 q 335 456 372 435 q 243 519 285 486 q 176 597 201 551 q 151 710 151 642 q 199 861 151 800 q 320 954 246 922 q 472 986 394 986 q 590 975 532 986 q 706 940 647 964 l 667 817 q 588 851 631 839 q 492 864 544 864 q 354 828 410 864 q 299 714 299 792 q 333 632 299 667 q 433 557 367 597 q 580 442 531 500 q 629 294 629 383 q 610 188 629 243 q 552 87 592 133 q 449 12 513 40 q 293 -17 385 -17 q 172 -6 236 -17 q 24 39 107 6 m 669 1028 l 567 1028 l 496 1164 l 375 1028 l 261 1028 l 446 1228 l 565 1228 l 669 1028 z "},"ŝ":{"ha":540,"x_min":-6,"x_max":586,"o":"m -6 17 l 19 129 q 99 101 58 114 q 182 89 139 89 q 285 115 239 89 q 331 199 331 140 q 297 271 331 242 q 211 335 263 300 q 119 419 149 376 q 89 517 89 461 q 131 638 89 592 q 234 704 172 683 q 356 725 296 725 q 448 715 401 725 q 540 686 494 706 l 501 583 q 429 610 467 600 q 360 619 392 619 q 267 601 307 619 q 228 533 228 582 q 260 464 228 490 q 336 408 293 438 q 399 362 368 388 q 449 300 429 336 q 469 210 469 264 q 444 103 469 147 q 378 33 419 60 q 291 -5 338 7 q 200 -17 244 -17 q 97 -10 143 -17 q -6 17 51 -4 m 586 807 l 483 807 l 413 943 l 292 807 l 178 807 l 363 1007 l 482 1007 l 586 807 z "},"Ŧ":{"ha":772,"x_min":128,"x_max":897,"o":"m 388 0 l 247 0 l 364 544 l 129 544 l 149 639 l 383 639 l 429 847 l 128 847 l 154 969 l 897 969 l 871 847 l 569 847 l 524 639 l 765 639 l 746 544 l 504 544 l 388 0 z "},"ŧ":{"ha":540,"x_min":54,"x_max":586,"o":"m 469 107 l 450 -1 q 389 -13 428 -10 q 322 -17 350 -17 q 224 7 261 -17 q 169 67 186 31 q 153 140 153 103 q 161 213 153 164 q 181 325 169 261 l 190 379 l 54 379 l 75 467 l 210 467 l 239 603 l 83 603 l 103 708 l 261 708 l 296 872 l 436 921 l 392 708 l 586 708 l 565 603 l 369 603 l 340 467 l 511 467 l 490 379 l 319 379 q 292 230 300 283 q 283 165 283 176 q 306 108 283 128 q 378 89 328 89 q 425 94 399 89 q 469 107 451 99 z "},"Ũ":{"ha":1003,"x_min":131,"x_max":1022,"o":"m 772 458 l 883 969 l 1022 969 l 897 400 q 748 86 850 189 q 472 -17 646 -17 q 308 13 374 -17 q 203 89 242 43 q 147 185 164 135 q 131 278 131 236 q 138 356 131 310 q 164 493 144 401 l 267 969 l 406 969 l 281 385 q 269 299 269 333 q 327 157 269 208 q 481 106 385 106 q 624 151 568 106 q 715 276 681 196 q 772 458 750 356 m 840 1204 l 904 1204 q 861 1090 894 1131 q 774 1049 828 1049 q 699 1065 736 1049 q 625 1097 661 1081 q 554 1113 589 1113 q 518 1099 535 1113 q 496 1049 501 1085 l 432 1049 q 475 1163 442 1122 q 563 1204 508 1204 q 638 1188 600 1204 q 712 1156 675 1172 q 783 1140 749 1140 q 821 1156 806 1140 q 840 1204 836 1172 z "},"ũ":{"ha":849,"x_min":88,"x_max":811,"o":"m 668 0 l 546 0 l 568 113 l 565 113 q 324 -17 483 -17 q 153 39 219 -17 q 88 206 88 94 q 90 254 88 228 q 106 342 93 281 l 182 708 l 313 708 l 226 292 q 221 256 224 275 q 218 218 218 236 q 253 125 218 161 q 347 89 289 89 q 453 117 408 89 q 530 187 499 144 q 580 274 561 229 q 606 351 599 318 l 681 708 l 811 708 l 689 115 q 683 82 688 104 q 674 37 678 60 q 668 0 669 14 m 688 969 l 751 969 q 706 852 740 890 q 621 814 672 814 q 547 830 585 814 q 474 862 510 846 q 407 878 439 878 q 362 860 376 878 q 343 814 347 842 l 279 814 q 324 929 290 889 q 410 969 357 969 q 483 953 446 969 q 558 922 521 938 q 625 906 594 906 q 669 924 654 906 q 688 969 683 942 z "},"Ŭ":{"ha":1003,"x_min":131,"x_max":1022,"o":"m 772 458 l 883 969 l 1022 969 l 897 400 q 748 86 850 189 q 472 -17 646 -17 q 308 13 374 -17 q 203 89 242 43 q 147 185 164 135 q 131 278 131 236 q 138 356 131 310 q 164 493 144 401 l 267 969 l 406 969 l 281 385 q 269 299 269 333 q 327 157 269 208 q 481 106 385 106 q 624 151 568 106 q 715 276 681 196 q 772 458 750 356 m 810 1218 l 874 1218 q 798 1078 858 1126 q 643 1029 738 1029 q 512 1068 567 1029 q 457 1200 457 1107 l 457 1218 l 521 1218 q 541 1150 521 1174 q 590 1118 561 1126 q 649 1110 619 1110 q 751 1135 710 1110 q 810 1218 792 1161 z "},"ŭ":{"ha":849,"x_min":88,"x_max":811,"o":"m 668 0 l 546 0 l 568 113 l 565 113 q 324 -17 483 -17 q 153 39 219 -17 q 88 206 88 94 q 90 254 88 228 q 106 342 93 281 l 182 708 l 313 708 l 226 292 q 221 256 224 275 q 218 218 218 236 q 253 125 218 161 q 347 89 289 89 q 453 117 408 89 q 530 187 499 144 q 580 274 561 229 q 606 351 599 318 l 681 708 l 811 708 l 689 115 q 683 82 688 104 q 674 37 678 60 q 668 0 669 14 m 679 999 l 743 999 q 667 858 728 906 q 513 810 606 810 q 379 851 432 810 q 326 982 326 893 l 326 999 l 390 999 q 424 917 390 944 q 521 890 458 890 q 679 999 646 890 z "},"Ŵ":{"ha":1389,"x_min":156,"x_max":1515,"o":"m 1008 0 l 828 0 l 807 839 l 804 839 l 418 0 l 235 0 l 156 969 l 294 969 l 347 140 l 350 140 l 736 969 l 919 969 l 944 139 l 947 139 l 1367 969 l 1515 969 l 1008 0 m 1022 1028 l 919 1028 l 849 1164 l 728 1028 l 614 1028 l 799 1228 l 918 1228 l 1022 1028 z "},"ŵ":{"ha":1157,"x_min":96,"x_max":1229,"o":"m 842 0 l 692 0 l 636 569 l 633 569 l 328 0 l 174 0 l 96 708 l 226 708 l 275 139 l 278 139 l 581 708 l 739 708 l 788 139 l 790 139 l 1085 708 l 1229 708 l 842 0 m 879 807 l 776 807 l 706 943 l 585 807 l 471 807 l 656 1007 l 775 1007 l 879 807 z "},"Ŷ":{"ha":926,"x_min":147,"x_max":1051,"o":"m 460 0 l 324 0 l 407 406 l 147 969 l 300 969 l 493 531 l 875 969 l 1051 969 l 543 406 l 460 0 m 790 1028 l 688 1028 l 617 1164 l 496 1028 l 382 1028 l 567 1228 l 686 1228 l 790 1028 z "},"ŷ":{"ha":694,"x_min":-53,"x_max":769,"o":"m 214 -39 l 100 708 l 236 708 l 318 143 l 321 143 l 629 708 l 769 708 l 288 -131 q 225 -226 256 -186 q 153 -287 194 -267 q 46 -308 111 -308 q -3 -306 22 -308 q -53 -299 -28 -304 l -31 -190 q 26 -203 -8 -203 q 133 -158 89 -203 q 214 -39 178 -112 m 635 807 l 532 807 l 461 943 l 340 807 l 226 807 l 411 1007 l 531 1007 l 635 807 z "},"ȷ":{"ha":386,"x_min":-153,"x_max":338,"o":"m -153 -283 l -129 -181 q -71 -194 -101 -194 q 4 -160 -21 -194 q 47 -43 29 -126 l 207 708 l 338 708 l 167 -97 q 93 -255 144 -201 q -53 -308 42 -308 q -108 -299 -75 -308 q -153 -283 -142 -289 z "}}}
